<svg viewBox="0 0 16 16" fill="none" xmlns="http://www.w3.org/2000/svg"><path d="M5.993 6.237c.252-.296.376-.674.347-1.064a1.46 1.46 0 00-.499-1A1.43 1.43 0 004.79 3.82 1.46 1.46 0 003.452 5.39c.028.39.205.745.498 1a1.43 1.43 0 001.053.352c.386-.03.737-.208.99-.504zm-.431-.655H5.56a.25.25 0 01-.248-.25.566.566 0 00-.092-.292.432.432 0 00-.249-.168.251.251 0 01.057-.498.906.906 0 01.58.353c.192.244.2.566.2.602a.25.25 0 01-.246.253zM8.41 4.706a1.43 1.43 0 001.053.351c.386-.029.738-.208.99-.504.253-.296.376-.674.348-1.064a1.468 1.468 0 00-.618-1.093 1.426 1.426 0 00-.934-.258 1.46 1.46 0 00-1.337 1.568c.029.39.206.745.499 1zm.84-1.753a.248.248 0 01.28-.212.845.845 0 01.59.422c.01.015.019.028.026.044a.93.93 0 01.035.702.248.248 0 11-.46-.188.427.427 0 00-.024-.302.349.349 0 00-.238-.182.247.247 0 01-.192-.152.249.249 0 01-.017-.132zM2.437 7.664c-.34.025-.65.183-.873.444a1.29 1.29 0 00-.306.938 1.287 1.287 0 001.271 1.195l.097-.003a1.29 1.29 0 001.179-1.382 1.283 1.283 0 00-1.368-1.192zm.878 1.523a.25.25 0 01-.287.203.25.25 0 01-.201-.29c0-.002.018-.149-.089-.282a.312.312 0 00-.203-.108.248.248 0 01-.235-.26.252.252 0 01.26-.24.805.805 0 01.563.292.899.899 0 01.192.684zM14.52 5.816a1.294 1.294 0 00-.301-1.564 1.259 1.259 0 00-.928-.31 1.265 1.265 0 00-.873.445 1.29 1.29 0 00-.306.937 1.287 1.287 0 001.271 1.195 1.287 1.287 0 00.291-.035 1.28 1.28 0 00.847-.668zm-.44-.237a.248.248 0 11-.47-.16.443.443 0 00.003-.272.322.322 0 00-.157-.185.252.252 0 01-.095-.34.247.247 0 01.337-.096.821.821 0 01.387.469.94.94 0 01-.004.584zM12.491 9.072c-.296-.743-.828-1.286-1.539-1.57-1.122-.45-2.439-.18-3.298.222-2.103.985-2.403 2.78-2.091 3.745.22.681.727 1.082 1.334 1.082.094 0 .191-.01.29-.03.574-.115.948-.366 1.31-.609.505-.34 1.027-.691 2.215-.775.835-.058 1.404-.31 1.691-.75.14-.216.207-.475.198-.756a1.87 1.87 0 00-.106-.548l-.004-.01zm-1.725.02c-.459-.47-1.171-.494-1.179-.494a.25.25 0 01-.242-.256.248.248 0 01.253-.245c.037 0 .918.025 1.521.644a.252.252 0 01-.003.354.245.245 0 01-.35-.003zm.657 1.017a.249.249 0 01-.281-.212 1.746 1.746 0 00-.03-.159.248.248 0 11.482-.118c.016.067.029.135.039.205a.25.25 0 01-.21.284z" fill="#FFB1B5"/><path d="M15.211 8.939a5.183 5.183 0 00-.396-.506c-.367-.415-.694-.66-.7-.663a.294.294 0 01.123-.524c.056-.01 1.14-.213 1.58-1.24a2.283 2.283 0 00.18-.822c.025-.52-.235-1.395-.78-1.933a1.783 1.783 0 00-.614-.403c-.615-.258-1.501-.318-2.366.233a.287.287 0 01-.293.009.292.292 0 01-.15-.254 2.815 2.815 0 00-.363-1.264 2.115 2.115 0 00-.874-.842c-.66-.34-2.074-.5-3.052.515a2.714 2.714 0 00-.702 1.5.288.288 0 01-.505.17 2.139 2.139 0 00-1.533-.622c-1.515 0-2.294 1.009-2.515 1.605-.468 1.263.154 2.273.16 2.283.055.088.06.198.013.29a.29.29 0 01-.242.159c-.047.002-1.18.082-1.77 1.12-.523.922-.465 2.353.542 3.06.747.523 1.898.35 2.358.25a.289.289 0 01.256.07.294.294 0 01.09.253c-.018.152-.424 3.722 2.29 4.105 1.656.235 2.532-.57 3.237-1.218.273-.251.532-.489.805-.637.342-.185.909-.19 1.626-.197 1.48-.014 3.322-.03 3.992-1.54a2.86 2.86 0 00.183-.564c.043-.2.062-.402.057-.605-.013-.564-.207-1.137-.585-1.713l-.052-.075zm-2.793-4.552a1.277 1.277 0 01.978-.447c.302.002.591.11.823.312a1.293 1.293 0 01-.836 2.268 1.287 1.287 0 01-1.272-1.195 1.293 1.293 0 01.307-.938zm-3.169-2.25a1.426 1.426 0 011.053.352 1.461 1.461 0 01.498 1c.029.39-.095.768-.347 1.064a1.434 1.434 0 01-2.043.153 1.46 1.46 0 01-.498-1 1.46 1.46 0 011.337-1.568zm-5.75 7.657a1.265 1.265 0 01-1.801.135 1.287 1.287 0 01-.44-.883 1.291 1.291 0 01.306-.938c.223-.26.533-.418.873-.444a1.283 1.283 0 011.368 1.192c.025.343-.084.676-.306.938zm1.394-3.049c-.346 0-.678-.124-.943-.355a1.46 1.46 0 01-.499-1 1.46 1.46 0 011.337-1.568 1.43 1.43 0 011.053.351c.293.255.47.61.499 1 .028.39-.095.768-.348 1.064a1.434 1.434 0 01-1.099.508zm7.51 3.642c-.287.44-.856.692-1.69.751-1.189.083-1.712.435-2.217.775-.362.243-.735.494-1.31.61-.098.02-.195.03-.289.03-.607 0-1.114-.402-1.334-1.084-.312-.965-.012-2.759 2.091-3.744.859-.402 2.176-.672 3.298-.223.71.285 1.243.828 1.539 1.57l.004.012c.065.188.1.372.106.547.01.282-.057.54-.198.756z" fill="#fff"/><path d="M3.123 8.502a.804.804 0 00-.563-.293.252.252 0 00-.26.24.248.248 0 00.235.26c.005.001.125.012.203.11.107.133.089.28.089.281a.25.25 0 00.244.294.25.25 0 00.244-.207.9.9 0 00-.192-.684zM5.028 4.374a.25.25 0 00-.057.498c.005.001.135.023.249.168a.566.566 0 01.092.293.25.25 0 00.248.249h.002a.25.25 0 00.246-.253c0-.036-.008-.357-.2-.601a.906.906 0 00-.58-.354zM9.46 3.237a.35.35 0 01.257.235.429.429 0 01.004.249.251.251 0 00.23.344c.098 0 .19-.059.23-.156a.928.928 0 00-.035-.703c-.008-.016-.017-.029-.025-.043a.845.845 0 00-.59-.422.249.249 0 00-.264.344.248.248 0 00.192.152zM13.456 4.962c.08.045.132.107.157.185a.445.445 0 01-.002.271.251.251 0 00.235.33c.104 0 .2-.065.235-.17a.94.94 0 00.004-.584.822.822 0 00-.386-.469.246.246 0 00-.338.096.252.252 0 00.095.341zM11.594 9.621a.248.248 0 10-.482.118c.012.051.022.105.03.16a.249.249 0 00.28.211.25.25 0 00.21-.284 2.2 2.2 0 00-.038-.205zM11.119 8.742c-.603-.619-1.484-.644-1.521-.644a.248.248 0 00-.253.245.25.25 0 00.242.256c.007 0 .72.023 1.178.494a.246.246 0 00.351.003.252.252 0 00.003-.354z" fill="#fff"/></svg>
