<?xml version="1.0" encoding="UTF-8"?>
<svg version="1.1" xmlns="http://www.w3.org/2000/svg" width="250" height="250">
<path d="M0 0 C82.5 0 165 0 250 0 C250 82.5 250 165 250 250 C167.5 250 85 250 0 250 C0 167.5 0 85 0 0 Z " fill="#EDE8D5" transform="translate(0,0)"/>
<path d="M0 0 C3 1 3 1 4.75 3.5 C6.35537318 7.99504489 6.38294224 11.43368128 5 16 C1.58736439 20.29331577 -2.71933711 20.78693649 -7.890625 21.60546875 C-9.97878152 21.79043052 -9.97878152 21.79043052 -11 23 C-6.47938558 23.11668418 -1.95916153 23.18741645 2.5625 23.25 C4.47772461 23.30027344 4.47772461 23.30027344 6.43164062 23.3515625 C13.48103492 23.42480296 18.36567944 23.4490024 24 19 C25.8624438 16.59141286 25.8624438 16.59141286 27 14 C27.391875 13.236875 27.78375 12.47375 28.1875 11.6875 C28.455625 11.130625 28.72375 10.57375 29 10 C33.16634194 11.74181102 34.40235965 13.71310288 36.23828125 17.71875 C38.50735377 24.51433129 36.93508324 29.76294812 34 36 C34 37.32 34 38.64 34 40 C39.78371122 40.56478574 39.78371122 40.56478574 44.8125 38.0625 C47.53809461 34.24666755 48.79501596 30.49664777 50 26 C51.65 26.33 53.3 26.66 55 27 C57.94328476 35.16345018 57.94328476 35.16345018 58.25 39.6875 C59.20938592 43.92478781 60.93260964 44.84460053 64.27734375 47.37890625 C67.18399186 50.11418735 67.89360323 53.22523455 69 57 C71.29113732 54.8092961 72.6975667 52.90542812 74 50 C74.66 50 75.32 50 76 50 C76.81206312 60.17785773 75.19664792 68.39086164 68.9921875 76.68359375 C66.17338036 79.93406324 63.58875411 82.60749726 60 85 C59.01 85 58.02 85 57 85 C58.39195915 87.7839183 60.15575779 87.97898997 63 89 C62.51421457 92.12290635 62.0013988 94.99580359 61 98 C61.94875 97.34 62.8975 96.68 63.875 96 C67 94 67 94 69 94 C69 93.34 69 92.68 69 92 C69.66 92 70.32 92 71 92 C71.433125 91.1028125 71.433125 91.1028125 71.875 90.1875 C73 88 73 88 75 85 C75.99 85 76.98 85 78 85 C78.81307284 95.20858125 76.60332773 104.06313437 70.3125 112.25 C66.27336081 116.95091906 61.76650087 121.04998308 57 125 C57.59167969 124.71125 58.18335938 124.4225 58.79296875 124.125 C66.64147627 120.43760984 66.64147627 120.43760984 71 121 C69.12363255 128.16894736 64.95374618 130.97516738 59 135 C56.52958256 136.39125487 54.04204771 137.63878839 51.47265625 138.8359375 C47.53502629 140.68967167 43.78878425 142.86117018 40 145 C43.96 145 47.92 145 52 145 C46.65897241 150.34102759 41.4795609 151.08715549 34.1875 151.375 C28.05901976 151.67122085 23.68699922 153.05393507 18.3046875 155.94140625 C16 157 16 157 12 157 C13.50014369 158.50014369 14.90636268 158.14822596 17 158.25 C22.23096919 158.78650966 27.01699405 160.47930724 31 164 C31.75 166.671875 31.75 166.671875 32 169 C29.29120665 170.35439668 26.99066732 170.06501451 24 170 C24.60328125 171.12277344 25.2065625 172.24554688 25.828125 173.40234375 C38.15822705 196.4367134 38.15822705 196.4367134 37 203 C33.34640291 206.86851457 28.49558744 209.8372443 23.125 210.1875 C22.42375 210.125625 21.7225 210.06375 21 210 C20.67 208.02 20.34 206.04 20 204 C19.34 204 18.68 204 18 204 C18 205.98 18 207.96 18 210 C15.03 210 12.06 210 9 210 C10.26953125 208.53515625 11.5390625 207.0703125 12.80859375 205.60546875 C15.35245725 202.17750842 15.27703652 198.43133016 15.5625 194.3125 C15.64628906 193.13300781 15.73007813 191.95351562 15.81640625 190.73828125 C15.87699219 189.83464844 15.93757813 188.93101562 16 188 C19.54622073 191.26252308 20.55888874 193.14777614 21 198 C22.64471357 193.0658593 22.83508502 189.05267401 20.8828125 184.25390625 C19.64866197 181.79606409 18.36860159 179.38527706 17 177 C17.78375 177.33 18.5675 177.66 19.375 178 C21.84332497 179.11866511 21.84332497 179.11866511 24 179 C21.60677759 173.76482597 17.83901623 171.70111357 13 169 C14.77444972 166.75393573 15.58352485 166.04918998 18.48046875 165.70703125 C19.37378906 165.74183594 20.26710938 165.77664062 21.1875 165.8125 C22.08855469 165.83957031 22.98960937 165.86664063 23.91796875 165.89453125 C24.60503906 165.92933594 25.29210937 165.96414062 26 166 C19.68284595 162.55427961 14.09629025 162.68538615 7 163 C7.33 161.68 7.66 160.36 8 159 C7.19304687 159.16113281 6.38609375 159.32226562 5.5546875 159.48828125 C1.3789401 160.08940533 -2.66302279 160.18398416 -6.875 160.1875 C-7.63941406 160.19974609 -8.40382813 160.21199219 -9.19140625 160.22460938 C-14.451002 160.23800393 -18.94446359 159.45677758 -24 158 C-23.01 160.475 -23.01 160.475 -22 163 C-22.66386719 162.95359375 -23.32773438 162.9071875 -24.01171875 162.859375 C-29.59526354 162.63059657 -29.59526354 162.63059657 -34.8125 164.375 C-38.02105402 168.22526483 -42 173.81527685 -42 179 C-41.505 177.824375 -41.01 176.64875 -40.5 175.4375 C-37.99429864 170.48785752 -34.75732836 166.88899577 -30 164 C-26.70516362 162.92640163 -25.58004106 163.19160363 -22 164 C-18.56507688 166.82393896 -16.40358604 169.78924189 -15 174 C-14.92026524 175.33525717 -14.89228662 176.67412083 -14.90234375 178.01171875 C-14.90717773 179.14770508 -14.90717773 179.14770508 -14.91210938 180.30664062 C-14.92467773 181.48516602 -14.92467773 181.48516602 -14.9375 182.6875 C-14.94201172 183.48478516 -14.94652344 184.28207031 -14.95117188 185.10351562 C-14.9629415 187.06904257 -14.98087652 189.03453085 -15 191 C-14.01 189.02 -13.02 187.04 -12 185 C-11.34 185 -10.68 185 -10 185 C-9.60409653 192.39019811 -10.87232954 197.8084943 -15 204 C-14.0925 203.54625 -13.185 203.0925 -12.25 202.625 C-9.83333333 201.41666667 -7.41666667 200.20833333 -5 199 C-6.46625496 205.47595942 -6.46625496 205.47595942 -8.71875 207.6875 C-11.49592182 209.28532488 -13.5647248 209.49790029 -16.75 209.6875 C-17.73484375 209.75324219 -18.7196875 209.81898438 -19.734375 209.88671875 C-20.85585937 209.94279297 -20.85585937 209.94279297 -22 210 C-21.36735592 203.46267786 -20.30815174 197.54075871 -19 191 C-21.64 197.27 -24.28 203.54 -27 210 C-29.825625 210.0825 -32.65125 210.165 -35.5625 210.25 C-36.43849854 210.28641602 -37.31449707 210.32283203 -38.21704102 210.36035156 C-43.9859399 210.44113569 -47.23289553 209.25058936 -52 206 C-52.35010015 199.96687887 -51.11774554 195.04818806 -49.3125 189.3125 C-49.03921875 188.43053955 -48.7659375 187.5485791 -48.484375 186.63989258 C-41.71950128 165.18698344 -41.71950128 165.18698344 -35 160 C-31.625 159.0625 -31.625 159.0625 -29 159 C-30.27122085 156.45755829 -31.04862547 156.36915441 -33.6875 155.4375 C-37.74715993 154.13789413 -41.49936362 153.7619712 -45.75 153.5625 C-57.43422518 152.90848524 -67.0476234 148.98339274 -77 143 C-77 142.67 -77 142.34 -77 142 C-74.36 141.67 -71.72 141.34 -69 141 C-69.9178125 140.50371094 -70.835625 140.00742188 -71.78125 139.49609375 C-80.94532983 134.45822266 -89.83195856 129.47474264 -95 120 C-95 119.01 -95 118.02 -95 117 C-91.21760329 117.65690619 -87.78158474 118.720131 -84.1875 120.0625 C-83.21167969 120.42472656 -82.23585938 120.78695312 -81.23046875 121.16015625 C-80.12638672 121.57587891 -80.12638672 121.57587891 -79 122 C-80.13019173 120.81050415 -80.13019173 120.81050415 -82.2578125 119.43359375 C-93.3188827 111.73303943 -100.10510392 104.22031034 -104 91 C-104.42996673 86.6052874 -104.39418805 82.39446674 -104 78 C-101.640625 78.30078125 -101.640625 78.30078125 -99 79 C-97.81826845 80.67411969 -96.64290945 82.35416182 -95.53515625 84.078125 C-92.7263575 87.59448374 -88.82951204 89.72231637 -85 92 C-85.495 91.01 -85.495 91.01 -86 90 C-85.855625 88.7625 -85.71125 87.525 -85.5625 86.25 C-85.43585667 84.07304472 -85.43585667 84.07304472 -86 82 C-87.81994556 80.24663782 -89.77943515 79.00218793 -91.890625 77.6171875 C-96.73507015 73.90311288 -99.0429527 68.28854487 -100 62.375 C-100.34151133 56.60948519 -98.42390736 52.6112636 -94.625 48.3125 C-89.22557784 43.5558662 -85.7610304 40.60497758 -78.2734375 40.6328125 C-74.02908762 41.31832605 -70.56115908 43.69184134 -67 46 C-67.0825 44.989375 -67.165 43.97875 -67.25 42.9375 C-66.7357137 34.8374907 -61.43363606 30.02084132 -56.12109375 24.33203125 C-51.91023281 19.70241066 -50.33185461 16.19438512 -48.84375 10.14453125 C-48.5653125 9.43683594 -48.286875 8.72914062 -48 8 C-47.01 7.67 -46.02 7.34 -45 7 C-40.98323176 11.85359495 -41.71863841 17.04972335 -42 23 C-41.61070313 22.48050781 -41.22140625 21.96101563 -40.8203125 21.42578125 C-33.40725126 12.18507588 -25.74222826 9.81348033 -14.21484375 8.44921875 C-8.79555012 7.6919663 -5.32859524 6.46486142 -1.5625 2.3125 C-1.046875 1.549375 -0.53125 0.78625 0 0 Z " fill="#070606" transform="translate(136,36)"/>
<path d="M0 0 C12.42522737 6.7179459 18.21731355 16.13345009 22.44921875 29.32421875 C25.39244739 39.48064506 25.62044436 50.21593712 22.44921875 60.32421875 C23.43921875 59.99421875 24.42921875 59.66421875 25.44921875 59.32421875 C28.95882268 48.79540695 27.35216992 33.59727158 23.44921875 23.32421875 C23.11921875 22.99421875 22.78921875 22.66421875 22.44921875 22.32421875 C21.91551435 16.6984494 21.66947524 11.85681807 24.26171875 6.76171875 C24.98359375 5.95734375 25.70546875 5.15296875 26.44921875 4.32421875 C26.88234375 3.78796875 27.31546875 3.25171875 27.76171875 2.69921875 C30.72801201 0.28223906 33.93520013 0.86275097 37.609375 0.98828125 C47.05647765 2.10582022 53.3189334 9.11418875 58.98828125 16.265625 C60.32541372 18.23030738 61.40790235 20.18798879 62.44921875 22.32421875 C63.03703125 23.52691406 63.03703125 23.52691406 63.63671875 24.75390625 C67.55259038 34.35323045 68.89392088 49.28213009 65.44921875 59.32421875 C63.48828125 60.23046875 63.48828125 60.23046875 61.07421875 60.82421875 C57.30270629 61.90159976 57.30270629 61.90159976 54.38671875 64.51171875 C54.07734375 65.10984375 53.76796875 65.70796875 53.44921875 66.32421875 C53.77921875 66.65421875 54.10921875 66.98421875 54.44921875 67.32421875 C55.29484375 66.49921875 56.14046875 65.67421875 57.01171875 64.82421875 C59.61470711 62.66324728 60.47412257 62.32072348 64.01171875 61.82421875 C67.71145511 62.36236222 69.61417779 62.89418364 72.44921875 65.32421875 C75.18103043 70.52766957 75.30307454 76.59790148 74.44921875 82.32421875 C70.04446481 93.88445053 58.20899444 105.56719999 47.44921875 111.32421875 C42.86153819 113.30321821 38.23504895 114.89627874 33.44921875 116.32421875 C32.65257812 116.57171875 31.8559375 116.81921875 31.03515625 117.07421875 C13.71332317 121.48118688 -7.96949973 118.75127805 -23.55078125 110.32421875 C-33.80169998 103.55075032 -44.42251003 93.41541624 -48.15625 81.37109375 C-49.21922142 75.85627174 -49.3712966 70.93594533 -46.80078125 65.88671875 C-43.99097265 62.68665896 -42.12040738 60.57311661 -37.81640625 59.890625 C-29.24293962 59.87951947 -24.07739106 61.24781445 -17.61328125 66.88671875 C-15.55078125 69.32421875 -15.55078125 69.32421875 -14.55078125 72.32421875 C-15.00452414 67.4464827 -16.07256013 64.80243987 -19.55078125 61.32421875 C-22.2637188 59.68383791 -24.72598435 58.50358383 -27.83203125 57.828125 C-30.35692429 57.23379141 -32.32561712 56.66895376 -34.55078125 55.32421875 C-36.2790951 52.12683812 -36.87215843 48.87057027 -37.55078125 45.32421875 C-37.94265625 44.25171875 -38.33453125 43.17921875 -38.73828125 42.07421875 C-41.3366879 30.08157266 -39.48467424 20.03562394 -32.90625 9.75390625 C-24.38229436 -1.90640327 -13.54573179 -6.06049225 0 0 Z " fill="#F4F4F4" transform="translate(116.55078125,72.67578125)"/>
<path d="M0 0 C9.44710265 1.11753897 15.7095584 8.1259075 21.37890625 15.27734375 C22.71603872 17.24202613 23.79852735 19.19970754 24.83984375 21.3359375 C25.42765625 22.53863281 25.42765625 22.53863281 26.02734375 23.765625 C29.94321538 33.3649492 31.28454588 48.29384884 27.83984375 58.3359375 C25.87890625 59.2421875 25.87890625 59.2421875 23.46484375 59.8359375 C19.69333129 60.91331851 19.69333129 60.91331851 16.77734375 63.5234375 C16.31328125 64.420625 16.31328125 64.420625 15.83984375 65.3359375 C17.36084398 66.85693773 19.11493949 68.05616982 20.83984375 69.3359375 C21.16984375 69.0059375 21.49984375 68.6759375 21.83984375 68.3359375 C25.05183485 68.05042718 27.25223505 68.07305993 30.21484375 69.3984375 C32.62779102 72.27541309 32.11330805 74.71253549 31.83984375 78.3359375 C30.18984375 77.0159375 28.53984375 75.6959375 26.83984375 74.3359375 C26.75734375 75.1815625 26.67484375 76.0271875 26.58984375 76.8984375 C24.60643215 85.98907401 18.68280583 92.04292424 11.15625 97.00390625 C6.78533575 99.51736621 3.05565299 100.59744527 -1.97265625 100.9609375 C-2.94847656 101.03570312 -3.92429687 101.11046875 -4.9296875 101.1875 C-5.66574219 101.23648438 -6.40179688 101.28546875 -7.16015625 101.3359375 C-7.16015625 101.9959375 -7.16015625 102.6559375 -7.16015625 103.3359375 C-5.18015625 103.3359375 -3.20015625 103.3359375 -1.16015625 103.3359375 C-2.56509841 106.73121439 -3.85777319 108.64240773 -7.16015625 110.3359375 C-13.48411335 111.50421873 -17.95401126 109.87699007 -23.41015625 106.72265625 C-25.16015625 105.3359375 -25.16015625 105.3359375 -26.16015625 102.3359375 C-27.71863281 102.09810547 -27.71863281 102.09810547 -29.30859375 101.85546875 C-43.84115318 99.49213876 -54.75010636 94.82729623 -64.12109375 82.82421875 C-68.16015625 76.93628961 -68.16015625 76.93628961 -68.16015625 74.3359375 C-70.15999159 75.12711654 -70.15999159 75.12711654 -72.16015625 76.3359375 C-72.49015625 77.3259375 -72.82015625 78.3159375 -73.16015625 79.3359375 C-74.15015625 79.0059375 -75.14015625 78.6759375 -76.16015625 78.3359375 C-76.50114568 75.26703259 -76.37977442 73.70529533 -74.78515625 71.0234375 C-70.73478743 68.41962897 -66.84193618 68.70060711 -62.16015625 69.3359375 C-59.03515625 70.6484375 -59.03515625 70.6484375 -57.16015625 72.3359375 C-57.16015625 73.3259375 -57.16015625 74.3159375 -57.16015625 75.3359375 C-59.47015625 74.6759375 -61.78015625 74.0159375 -64.16015625 73.3359375 C-56.94733243 84.98742213 -49.4244814 91.91449578 -36.16015625 96.3359375 C-28.98365318 97.03216541 -21.81402909 96.18456038 -15.16015625 93.3359375 C-12.42811499 91.01039373 -11.30426332 89.76825871 -10.16015625 86.3359375 C-11.12953125 86.4390625 -12.09890625 86.5421875 -13.09765625 86.6484375 C-18.20742199 86.6484375 -22.09976684 84.25585897 -26.16015625 81.3359375 C-28.45952319 78.90131368 -29.0769444 77.50517063 -29.3125 74.1953125 C-29.18689513 70.89681937 -28.93497047 68.34367133 -26.88671875 65.6796875 C-24.1563666 63.29582674 -21.65685023 62.05939143 -18.16015625 61.3359375 C-17.64453125 60.8203125 -17.12890625 60.3046875 -16.59765625 59.7734375 C-16.12328125 59.2990625 -15.64890625 58.8246875 -15.16015625 58.3359375 C-14.17015625 58.3359375 -13.18015625 58.3359375 -12.16015625 58.3359375 C-8.65055232 47.8071257 -10.25720508 32.60899033 -14.16015625 22.3359375 C-14.49015625 22.0059375 -14.82015625 21.6759375 -15.16015625 21.3359375 C-15.69386065 15.71016815 -15.93989976 10.86853682 -13.34765625 5.7734375 C-12.62578125 4.9690625 -11.90390625 4.1646875 -11.16015625 3.3359375 C-10.72703125 2.7996875 -10.29390625 2.2634375 -9.84765625 1.7109375 C-6.88136299 -0.70604219 -3.67417487 -0.12553028 0 0 Z " fill="#F0F0F0" transform="translate(154.16015625,73.6640625)"/>
<path d="M0 0 C0.66 0 1.32 0 2 0 C2.81206312 10.17785773 1.19664792 18.39086164 -5.0078125 26.68359375 C-7.82661964 29.93406324 -10.41124589 32.60749726 -14 35 C-14.99 35 -15.98 35 -17 35 C-15.60804085 37.7839183 -13.84424221 37.97898997 -11 39 C-11.48578543 42.12290635 -11.9986012 44.99580359 -13 48 C-12.05125 47.34 -11.1025 46.68 -10.125 46 C-7 44 -7 44 -5 44 C-5 43.34 -5 42.68 -5 42 C-4.34 42 -3.68 42 -3 42 C-2.71125 41.401875 -2.4225 40.80375 -2.125 40.1875 C-1 38 -1 38 1 35 C1.99 35 2.98 35 4 35 C4.81307284 45.20858125 2.60332773 54.06313437 -3.6875 62.25 C-7.72663919 66.95091906 -12.23349913 71.04998308 -17 75 C-16.40832031 74.71125 -15.81664062 74.4225 -15.20703125 74.125 C-7.35852373 70.43760984 -7.35852373 70.43760984 -3 71 C-4.87636745 78.16894736 -9.04625382 80.97516738 -15 85 C-17.47041744 86.39125487 -19.95795229 87.63878839 -22.52734375 88.8359375 C-26.46497371 90.68967167 -30.21121575 92.86117018 -34 95 C-30.04 95 -26.08 95 -22 95 C-27.34102759 100.34102759 -32.5204391 101.08715549 -39.8125 101.375 C-45.94098024 101.67122085 -50.31300078 103.05393507 -55.6953125 105.94140625 C-58 107 -58 107 -62 107 C-60.49985631 108.50014369 -59.09363732 108.14822596 -57 108.25 C-51.76903081 108.78650966 -46.98300595 110.47930724 -43 114 C-42.25 116.671875 -42.25 116.671875 -42 119 C-44.70879335 120.35439668 -47.00933268 120.06501451 -50 120 C-49.39671875 121.12277344 -48.7934375 122.24554688 -48.171875 123.40234375 C-35.84177295 146.4367134 -35.84177295 146.4367134 -37 153 C-40.65359709 156.86851457 -45.50441256 159.8372443 -50.875 160.1875 C-51.57625 160.125625 -52.2775 160.06375 -53 160 C-53.33 158.02 -53.66 156.04 -54 154 C-54.66 154 -55.32 154 -56 154 C-56 155.98 -56 157.96 -56 160 C-58.97 160 -61.94 160 -65 160 C-63.73046875 158.53515625 -62.4609375 157.0703125 -61.19140625 155.60546875 C-58.64754275 152.17750842 -58.72296348 148.43133016 -58.4375 144.3125 C-58.35371094 143.13300781 -58.26992187 141.95351562 -58.18359375 140.73828125 C-58.12300781 139.83464844 -58.06242187 138.93101562 -58 138 C-54.45377927 141.26252308 -53.44111126 143.14777614 -53 148 C-51.35528643 143.0658593 -51.16491498 139.05267401 -53.1171875 134.25390625 C-54.35133803 131.79606409 -55.63139841 129.38527706 -57 127 C-56.21625 127.33 -55.4325 127.66 -54.625 128 C-52.15667503 129.11866511 -52.15667503 129.11866511 -50 129 C-52.39322241 123.76482597 -56.16098377 121.70111357 -61 119 C-59.22555028 116.75393573 -58.41647515 116.04918998 -55.51953125 115.70703125 C-54.62621094 115.74183594 -53.73289062 115.77664062 -52.8125 115.8125 C-51.91144531 115.83957031 -51.01039063 115.86664063 -50.08203125 115.89453125 C-49.05142578 115.94673828 -49.05142578 115.94673828 -48 116 C-54.31715405 112.55427961 -59.90370975 112.68538615 -67 113 C-66.505 111.02 -66.505 111.02 -66 109 C-66.80695313 109.16113281 -67.61390625 109.32226562 -68.4453125 109.48828125 C-72.6210599 110.08940533 -76.66302279 110.18398416 -80.875 110.1875 C-81.63941406 110.19974609 -82.40382812 110.21199219 -83.19140625 110.22460938 C-88.451002 110.23800393 -92.94446359 109.45677758 -98 108 C-97.34 109.65 -96.68 111.3 -96 113 C-96.66386719 112.95359375 -97.32773438 112.9071875 -98.01171875 112.859375 C-103.59526354 112.63059657 -103.59526354 112.63059657 -108.8125 114.375 C-112.02105402 118.22526483 -116 123.81527685 -116 129 C-115.2575 127.2365625 -115.2575 127.2365625 -114.5 125.4375 C-111.99429864 120.48785752 -108.75732836 116.88899577 -104 114 C-100.70516362 112.92640163 -99.58004106 113.19160363 -96 114 C-92.56507688 116.82393896 -90.40358604 119.78924189 -89 124 C-88.92026524 125.33525717 -88.89228662 126.67412083 -88.90234375 128.01171875 C-88.90556641 128.76904297 -88.90878906 129.52636719 -88.91210938 130.30664062 C-88.92467773 131.48516602 -88.92467773 131.48516602 -88.9375 132.6875 C-88.94201172 133.48478516 -88.94652344 134.28207031 -88.95117188 135.10351562 C-88.9629415 137.06904257 -88.98087652 139.03453085 -89 141 C-88.01 139.02 -87.02 137.04 -86 135 C-85.34 135 -84.68 135 -84 135 C-83.60409653 142.39019811 -84.87232954 147.8084943 -89 154 C-88.0925 153.54625 -87.185 153.0925 -86.25 152.625 C-83.83333333 151.41666667 -81.41666667 150.20833333 -79 149 C-80.46625496 155.47595942 -80.46625496 155.47595942 -82.71875 157.6875 C-85.49592182 159.28532488 -87.5647248 159.49790029 -90.75 159.6875 C-91.73484375 159.75324219 -92.7196875 159.81898438 -93.734375 159.88671875 C-94.85585937 159.94279297 -94.85585937 159.94279297 -96 160 C-95.36735592 153.46267786 -94.30815174 147.54075871 -93 141 C-95.64 147.27 -98.28 153.54 -101 160 C-103.825625 160.0825 -106.65125 160.165 -109.5625 160.25 C-110.43849854 160.28641602 -111.31449707 160.32283203 -112.21704102 160.36035156 C-117.9859399 160.44113569 -121.23289553 159.25058936 -126 156 C-126.35010015 149.96687887 -125.11774554 145.04818806 -123.3125 139.3125 C-123.03921875 138.43053955 -122.7659375 137.5485791 -122.484375 136.63989258 C-115.71950128 115.18698344 -115.71950128 115.18698344 -109 110 C-105.625 109.0625 -105.625 109.0625 -103 109 C-104.27122085 106.45755829 -105.04862547 106.36915441 -107.6875 105.4375 C-113.97266878 103.42380515 -120.44777261 103.27029103 -127 103 C-127 102.67 -127 102.34 -127 102 C-126.07316406 101.95101562 -125.14632812 101.90203125 -124.19140625 101.8515625 C-122.39509766 101.73941406 -122.39509766 101.73941406 -120.5625 101.625 C-119.36753906 101.55539063 -118.17257813 101.48578125 -116.94140625 101.4140625 C-115.48541016 101.20910156 -115.48541016 101.20910156 -114 101 C-113.505 100.01 -113.505 100.01 -113 99 C-108.91106997 99.63375369 -104.94330596 100.46624362 -100.9375 101.5 C-98.96059191 102.00885665 -96.98149148 102.50929417 -95 103 C-94.24460938 103.18949219 -93.48921875 103.37898438 -92.7109375 103.57421875 C-75.1857266 106.32673746 -57.30171765 103.17600196 -42 94.25 C-33.16181286 87.62135964 -24.16223799 79.53886862 -20 69 C-19.41224695 63.27805121 -19.33254818 57.20153104 -22 52 C-24.41757561 50.03012358 -26.25874708 49.96645871 -29.375 49.5625 C-34.90454714 50.22985914 -37.12536023 53.12536023 -41 57 C-40.74722187 53.29258749 -40.4253723 51.46290515 -37.875 48.6875 C-34.53125869 46.72486923 -31.81660469 46.45350244 -28 46 C-27.95512451 45.31373535 -27.91024902 44.6274707 -27.86401367 43.92041016 C-27.65311448 40.82074364 -27.42058965 37.72307343 -27.1875 34.625 C-27.08211914 33.00464844 -27.08211914 33.00464844 -26.97460938 31.3515625 C-26.89404297 30.3203125 -26.81347656 29.2890625 -26.73046875 28.2265625 C-26.66239014 27.27346191 -26.59431152 26.32036133 -26.52416992 25.33837891 C-26 23 -26 23 -23 21 C-23 21.66 -23 22.32 -23 23 C-17.24128345 22.48614036 -17.24128345 22.48614036 -12.546875 19.484375 C-10.98147106 16.79748763 -10.04303421 14.24206745 -9.5 11.1875 C-9.335 10.465625 -9.17 9.74375 -9 9 C-7.125 7.875 -7.125 7.875 -5 7 C-2.57454673 4.94769338 -1.2952719 2.8894527 0 0 Z " fill="#080807" transform="translate(210,86)"/>
<path d="M0 0 C5.42097176 1.62629153 8.83455804 4.25183705 12 9 C9.85279101 11.14720899 8.92209857 11.5434221 6 12 C5.34 11.67 4.68 11.34 4 11 C2.35857459 10.85359499 0.7101859 10.77903411 -0.9375 10.75 C-1.81277344 10.72421875 -2.68804687 10.6984375 -3.58984375 10.671875 C-6.04713603 10.80807616 -6.04713603 10.80807616 -7.8046875 12.34765625 C-9.43993099 14.60813989 -9.22055871 16.27977591 -9 19 C-8.34 19.33 -7.68 19.66 -7 20 C-6.67 18.68 -6.34 17.36 -6 16 C-4.68 15.67 -3.36 15.34 -2 15 C-1.59910156 15.70125 -1.19820312 16.4025 -0.78515625 17.125 C7.29514292 30.61048796 16.91414471 37.1263646 32 41 C35.0242301 41.50611258 37.93637241 41.79229643 41 42 C41 42.99 41 43.98 41 45 C46.23472148 48.46506387 50.59325371 50.80231229 56.984375 50.43359375 C60.08647538 49.76628146 61.85917516 48.2746264 64 46 C64.495 45.01 64.495 45.01 65 44 C61.535 44.495 61.535 44.495 58 45 C58.33 43.68 58.66 42.36 59 41 C59.67804688 40.98582031 60.35609375 40.97164062 61.0546875 40.95703125 C70.2785289 40.48434132 78.27507638 37.53278294 85 31 C89.22389694 26.16725305 91.28693933 21.14194924 93 15 C94.32 15.66 95.64 16.32 97 17 C97.33 15.35 97.66 13.7 98 12 C94.57984364 9.8952884 91.96632047 9.83122041 88 10 C87.01 10 86.02 10 85 10 C84.505 8.02 84.505 8.02 84 6 C86.87726072 3.209929 88.4681503 2.06648121 92.5 1.5625 C96.26745907 2.03343238 98.12406987 2.53491703 101 5 C103.73181168 10.20345082 103.85385579 16.27368273 103 22 C98.59524606 33.56023178 86.75977569 45.24298124 76 51 C71.41231944 52.97899946 66.7858302 54.57205999 62 56 C61.20335937 56.2475 60.40671875 56.495 59.5859375 56.75 C42.26410442 61.15696813 20.58128152 58.4270593 5 50 C-5.25091873 43.22653157 -15.87172878 33.09119749 -19.60546875 21.046875 C-20.66844017 15.53205299 -20.82051535 10.61172658 -18.25 5.5625 C-12.74344847 -0.70885036 -8.11986633 -0.93690765 0 0 Z " fill="#F6F6F6" transform="translate(88,133)"/>
<path d="M0 0 C1.0621875 0.16371094 2.124375 0.32742187 3.21875 0.49609375 C8.9708648 1.2151081 14.71245098 1.10749889 20.5 1.0625 C21.60859375 1.05798828 22.7171875 1.05347656 23.859375 1.04882812 C26.57297399 1.03713158 29.28645761 1.02074086 32 1 C31.67 2.32 31.34 3.64 31 5 C31.78503906 4.89300781 32.57007813 4.78601563 33.37890625 4.67578125 C39.8832169 3.93357157 44.30843962 3.58506377 50 7 C50.495 7.99 50.495 7.99 51 9 C50.22914063 8.98839844 49.45828125 8.97679687 48.6640625 8.96484375 C47.66117187 8.95582031 46.65828125 8.94679687 45.625 8.9375 C44.12839844 8.92009766 44.12839844 8.92009766 42.6015625 8.90234375 C40.01567547 8.81993398 40.01567547 8.81993398 38 10 C38.81404297 10.56267578 38.81404297 10.56267578 39.64453125 11.13671875 C47.18930041 16.53360768 47.18930041 16.53360768 49 21 C48.505 22.485 48.505 22.485 48 24 C48 23.34 48 22.68 48 22 C46.02 21.34 44.04 20.68 42 20 C42.3609375 20.556875 42.721875 21.11375 43.09375 21.6875 C46.4065994 27.13529679 47.75627348 30.62569499 47 37 C46 39.5 46 39.5 45 41 C44.67 41 44.34 41 44 41 C43.80083984 40.04287109 43.80083984 40.04287109 43.59765625 39.06640625 C43.42105469 38.24011719 43.24445313 37.41382813 43.0625 36.5625 C42.88847656 35.73878906 42.71445313 34.91507813 42.53515625 34.06640625 C42.19247006 32.02338796 42.19247006 32.02338796 41 31 C40.96261719 31.80824219 40.92523438 32.61648437 40.88671875 33.44921875 C40.82097656 34.51785156 40.75523437 35.58648437 40.6875 36.6875 C40.60048828 38.27111328 40.60048828 38.27111328 40.51171875 39.88671875 C39.96217936 43.23009964 38.91325982 45.23526262 37 48 C36.01 47.67 35.02 47.34 34 47 C33.505 47.99 33.505 47.99 33 49 C32.67 48.01 32.34 47.02 32 46 C31.443125 46.804375 30.88625 47.60875 30.3125 48.4375 C27.63890156 51.40013611 26.89509979 51.74032668 23 52 C19.99769283 52.06065267 17.00226818 52.058868 14 52 C14.29648438 51.41734375 14.59296875 50.8346875 14.8984375 50.234375 C15.87217266 48.25928099 16.76725601 46.27739489 17.625 44.25 C18.305625 42.64125 18.305625 42.64125 19 41 C18.52949219 41.3609375 18.05898437 41.721875 17.57421875 42.09375 C16.95160156 42.5578125 16.32898438 43.021875 15.6875 43.5 C15.07261719 43.9640625 14.45773438 44.428125 13.82421875 44.90625 C12 46 12 46 9 46 C9.28875 45.29875 9.5775 44.5975 9.875 43.875 C12.10643701 38.17243875 13.37180457 33.07255585 14 27 C13.34 27 12.68 27 12 27 C11.896875 27.598125 11.79375 28.19625 11.6875 28.8125 C10.90576469 31.29983964 9.8735926 32.24696028 8 34 C8.03480469 32.77023438 8.06960937 31.54046875 8.10546875 30.2734375 C8.13362045 28.64063873 8.16091913 27.0078251 8.1875 25.375 C8.21263672 24.56675781 8.23777344 23.75851563 8.26367188 22.92578125 C8.33675606 16.93287773 7.04250346 13.22500547 3.8125 8.125 C0.64920346 6.16157456 -2.4859046 6.22987596 -6 7 C-12.47111544 10.3883664 -15.23257484 16.54692567 -18 23 C-18.95435272 20.43332469 -19.07808771 19.23892508 -18.21484375 16.59765625 C-15.48361729 11.1769652 -13.33172998 7.07599807 -8 4 C-4.94826104 3.62478619 -2.05482637 3.69451736 1 4 C0.67 2.68 0.34 1.36 0 0 Z " fill="#F9FAF9" transform="translate(112,194)"/>
<path d="M0 0 C4.09135146 2.60944463 6.53545529 5.34751351 7.671875 10.203125 C6.67547074 14.64165308 4.47858359 17.39294592 0.984375 20.265625 C-1.40820601 21.34968865 -3.40282576 21.79532114 -6.015625 22.265625 C-5.95375 22.9875 -5.891875 23.709375 -5.828125 24.453125 C-6.0514758 27.80338702 -7.228337 29.47445345 -9.015625 32.265625 C1.14074421 32.10464508 9.81328457 31.3006341 17.359375 23.953125 C20.0162283 19.55909838 22.35837511 15.14362466 23.984375 10.265625 C22.334375 10.595625 20.684375 10.925625 18.984375 11.265625 C19.55782437 8.39837814 19.8458265 7.4041735 21.984375 5.265625 C25.23328407 4.91248271 27.36334148 4.98779422 30.359375 6.328125 C32.77232227 9.20510059 32.2578393 11.64222299 31.984375 15.265625 C30.334375 13.945625 28.684375 12.625625 26.984375 11.265625 C26.901875 12.11125 26.819375 12.956875 26.734375 13.828125 C24.7509634 22.91876151 18.82733708 28.97261174 11.30078125 33.93359375 C6.929867 36.44705371 3.20018424 37.52713277 -1.828125 37.890625 C-2.80394531 37.96539062 -3.77976562 38.04015625 -4.78515625 38.1171875 C-5.52121094 38.16617188 -6.25726563 38.21515625 -7.015625 38.265625 C-7.015625 38.925625 -7.015625 39.585625 -7.015625 40.265625 C-5.035625 40.265625 -3.055625 40.265625 -1.015625 40.265625 C-2.42056716 43.66090189 -3.71324194 45.57209523 -7.015625 47.265625 C-13.3395821 48.43390623 -17.80948001 46.80667757 -23.265625 43.65234375 C-25.015625 42.265625 -25.015625 42.265625 -26.015625 39.265625 C-27.57410156 39.02779297 -27.57410156 39.02779297 -29.1640625 38.78515625 C-43.69662193 36.42182626 -54.60557511 31.75698373 -63.9765625 19.75390625 C-68.015625 13.86597711 -68.015625 13.86597711 -68.015625 11.265625 C-70.01546034 12.05680404 -70.01546034 12.05680404 -72.015625 13.265625 C-72.345625 14.255625 -72.675625 15.245625 -73.015625 16.265625 C-74.005625 15.935625 -74.995625 15.605625 -76.015625 15.265625 C-76.35661443 12.19672009 -76.23524317 10.63498283 -74.640625 7.953125 C-70.59025618 5.34931647 -66.69740493 5.63029461 -62.015625 6.265625 C-58.890625 7.578125 -58.890625 7.578125 -57.015625 9.265625 C-57.015625 10.255625 -57.015625 11.245625 -57.015625 12.265625 C-59.325625 11.605625 -61.635625 10.945625 -64.015625 10.265625 C-56.80280118 21.91710963 -49.27995015 28.84418328 -36.015625 33.265625 C-28.83912193 33.96185291 -21.66949784 33.11424788 -15.015625 30.265625 C-12.28358374 27.94008123 -11.15973207 26.69794621 -10.015625 23.265625 C-10.985 23.36875 -11.954375 23.471875 -12.953125 23.578125 C-18.06289074 23.578125 -21.95523559 21.18554647 -26.015625 18.265625 C-28.31499194 15.83100118 -28.93241315 14.43485813 -29.16796875 11.125 C-29.04360764 7.85916909 -28.79747773 5.28918614 -26.77734375 2.64453125 C-18.87423974 -4.23749989 -9.16839972 -4.61671192 0 0 Z " fill="#090909" transform="translate(154.015625,136.734375)"/>
<path d="M0 0 C3.45783046 2.76182176 5.60645867 5.81937602 7 10 C7.07973476 11.33525717 7.10771338 12.67412083 7.09765625 14.01171875 C7.09443359 14.76904297 7.09121094 15.52636719 7.08789062 16.30664062 C7.07532227 17.48516602 7.07532227 17.48516602 7.0625 18.6875 C7.05798828 19.48478516 7.05347656 20.28207031 7.04882812 21.10351562 C7.0370585 23.06904257 7.01912348 25.03453085 7 27 C7.99 25.02 8.98 23.04 10 21 C10.66 21 11.32 21 12 21 C12.39590347 28.39019811 11.12767046 33.8084943 7 40 C7.9075 39.54625 8.815 39.0925 9.75 38.625 C12.16666667 37.41666667 14.58333333 36.20833333 17 35 C15.53374504 41.47595942 15.53374504 41.47595942 13.28125 43.6875 C10.50407818 45.28532488 8.4352752 45.49790029 5.25 45.6875 C4.26515625 45.75324219 3.2803125 45.81898438 2.265625 45.88671875 C1.14414063 45.94279297 1.14414063 45.94279297 0 46 C0.63264408 39.46267786 1.69184826 33.54075871 3 27 C0.36 33.27 -2.28 39.54 -5 46 C-7.825625 46.0825 -10.65125 46.165 -13.5625 46.25 C-14.43849854 46.28641602 -15.31449707 46.32283203 -16.21704102 46.36035156 C-21.9859399 46.44113569 -25.23289553 45.25058936 -30 42 C-30.21544006 36.76884607 -29.52370193 32.56214697 -28 27.5625 C-27.62875 26.32628906 -27.2575 25.09007812 -26.875 23.81640625 C-26.58625 22.88699219 -26.2975 21.95757812 -26 21 C-25.34 21 -24.68 21 -24 21 C-23.67 20.34 -23.34 19.68 -23 19 C-22.67 19.66 -22.34 20.32 -22 21 C-21.72027344 20.2265625 -21.44054687 19.453125 -21.15234375 18.65625 C-17.50380708 9.17709363 -12.19607597 -2.82840352 0 0 Z " fill="#050505" transform="translate(114,200)"/>
<path d="M0 0 C0.495 1.485 0.495 1.485 1 3 C1.99 2.67 2.98 2.34 4 2 C4.495 2.99 4.495 2.99 5 4 C3.35 4.99 1.7 5.98 0 7 C3.96 7 7.92 7 12 7 C6.65897241 12.34102759 1.4795609 13.08715549 -5.8125 13.375 C-11.94098024 13.67122085 -16.31300078 15.05393507 -21.6953125 17.94140625 C-24 19 -24 19 -28 19 C-26.49985631 20.50014369 -25.09363732 20.14822596 -23 20.25 C-17.76903081 20.78650966 -12.98300595 22.47930724 -9 26 C-8.25 28.671875 -8.25 28.671875 -8 31 C-10.70879335 32.35439668 -13.00933268 32.06501451 -16 32 C-15.39671875 33.12277344 -14.7934375 34.24554688 -14.171875 35.40234375 C-1.84177295 58.4367134 -1.84177295 58.4367134 -3 65 C-6.65359709 68.86851457 -11.50441256 71.8372443 -16.875 72.1875 C-17.926875 72.0946875 -17.926875 72.0946875 -19 72 C-19.33 70.02 -19.66 68.04 -20 66 C-20.66 66 -21.32 66 -22 66 C-22 67.98 -22 69.96 -22 72 C-24.97 72 -27.94 72 -31 72 C-29.73046875 70.53515625 -28.4609375 69.0703125 -27.19140625 67.60546875 C-24.64754275 64.17750842 -24.72296348 60.43133016 -24.4375 56.3125 C-24.31181641 54.54326172 -24.31181641 54.54326172 -24.18359375 52.73828125 C-24.12300781 51.83464844 -24.06242187 50.93101562 -24 50 C-20.45377927 53.26252308 -19.44111126 55.14777614 -19 60 C-17.35528643 55.0658593 -17.16491498 51.05267401 -19.1171875 46.25390625 C-20.35133803 43.79606409 -21.63139841 41.38527706 -23 39 C-22.21625 39.33 -21.4325 39.66 -20.625 40 C-18.15667503 41.11866511 -18.15667503 41.11866511 -16 41 C-18.39322241 35.76482597 -22.16098377 33.70111357 -27 31 C-25.22555028 28.75393573 -24.41647515 28.04918998 -21.51953125 27.70703125 C-20.62621094 27.74183594 -19.73289062 27.77664062 -18.8125 27.8125 C-17.46091797 27.85310547 -17.46091797 27.85310547 -16.08203125 27.89453125 C-15.05142578 27.94673828 -15.05142578 27.94673828 -14 28 C-20.31715405 24.55427961 -25.90370975 24.68538615 -33 25 C-32.67 23.68 -32.34 22.36 -32 21 C-32.80695313 21.16113281 -33.61390625 21.32226562 -34.4453125 21.48828125 C-38.6210599 22.08940533 -42.66302279 22.18398416 -46.875 22.1875 C-47.63941406 22.19974609 -48.40382812 22.21199219 -49.19140625 22.22460938 C-54.451002 22.23800393 -58.94446359 21.45677758 -64 20 C-63.34 21.65 -62.68 23.3 -62 25 C-62.99580078 24.93039063 -62.99580078 24.93039063 -64.01171875 24.859375 C-69.59526354 24.63059657 -69.59526354 24.63059657 -74.8125 26.375 C-79.95294182 32.54353018 -82.55676373 39.0217471 -83 47 C-83.99 47 -84.98 47 -86 47 C-87.47540274 42.45209613 -85.87192037 39.31610951 -84 35.125 C-83.68184326 34.40699219 -83.36368652 33.68898437 -83.03588867 32.94921875 C-80.53229434 27.58129582 -78.1694467 24.12117537 -73 21 C-71.68 21 -70.36 21 -69 21 C-70.27122085 18.45755829 -71.04862547 18.36915441 -73.6875 17.4375 C-79.97266878 15.42380515 -86.44777261 15.27029103 -93 15 C-93 14.67 -93 14.34 -93 14 C-91.60974609 13.92652344 -91.60974609 13.92652344 -90.19140625 13.8515625 C-88.99386719 13.77679688 -87.79632813 13.70203125 -86.5625 13.625 C-85.36753906 13.55539063 -84.17257813 13.48578125 -82.94140625 13.4140625 C-81.97074219 13.27742187 -81.00007813 13.14078125 -80 13 C-79.67 12.34 -79.34 11.68 -79 11 C-74.91106997 11.63375369 -70.94330596 12.46624362 -66.9375 13.5 C-64.96059191 14.00885665 -62.98149148 14.50929417 -61 15 C-60.24460938 15.18949219 -59.48921875 15.37898437 -58.7109375 15.57421875 C-40.25173147 18.47343122 -20.25001826 15.09092237 -5 4 C-3.31916921 2.68456721 -1.6475884 1.35683751 0 0 Z " fill="#141412" transform="translate(176,174)"/>
<path d="M0 0 C10.0318543 7.46321419 13.1257987 18.12125935 15 30 C15.3323445 32.89917543 15.6031931 35.78335864 15.7890625 38.6953125 C15.99014433 40.89231765 16.40396615 42.87968288 17 45 C17.66 45 18.32 45 19 45 C18.34 47.97 17.68 50.94 17 54 C12.9180147 53.16504846 11.32794731 52.4484901 8.83203125 49.03515625 C6.38940932 44.48023345 6.44128572 40.07285925 6.4375 35 C6.40006506 27.83388387 6.25468782 21.7368638 1.3125 16.0625 C-2.14492417 14.47395376 -5.27328797 14.19050927 -9 15 C-12.04666973 17.58966927 -12.88962249 19.09858364 -13.375 23.0625 C-13.01284423 25.89938687 -12.36003675 27.5349334 -11 30 C-11 30.99 -11 31.98 -11 33 C-14.24208567 32.64950425 -15.61527704 32.43778819 -17.8125 29.9375 C-18.204375 29.298125 -18.59625 28.65875 -19 28 C-19.33 30.31 -19.66 32.62 -20 35 C-23.38266921 34.7181109 -24.81072018 34.16935563 -27.375 31.875 C-29.53358615 28.05596297 -29.12115882 26.1856596 -28 22 C-26.4375 19.0625 -26.4375 19.0625 -25 17 C-27.52246503 18.02703822 -27.52246503 18.02703822 -30 20 C-31.36900354 23.57996259 -31.36900354 23.57996259 -32 27 C-32.66 27 -33.32 27 -34 27 C-35.88057482 23.23885037 -35.65340782 19.08532555 -35 15 C-32.57304996 10.65994928 -29.50054783 8.03503032 -25 6 C-27.76276177 6.52268466 -30.3260876 7.10869587 -33 8 C-30.98944243 3.30869901 -28.35757171 0.77575526 -23.9375 -1.75 C-16.37077119 -4.69891787 -7.10760763 -3.78264724 0 0 Z " fill="#0A0A09" transform="translate(65,185)"/>
<path d="M0 0 C2.475 0.495 2.475 0.495 5 1 C7.94328476 9.16345018 7.94328476 9.16345018 8.25 13.6875 C9.21213005 17.93690774 11.00335966 19.01706781 14.34375 21.59765625 C16.58231389 23.49304407 17.34490237 25.16124359 18 28 C18.125 30.8125 18.125 30.8125 18 33 C17.01 33.495 17.01 33.495 16 34 C15.566875 35.2375 15.13375 36.475 14.6875 37.75 C13.20840232 41.84143436 11.59765259 44.38352539 8 47 C4.3125 47.25 4.3125 47.25 1 47 C0.01 47.495 0.01 47.495 -1 48 C-1.47001033 51.27555608 -1.47001033 51.27555608 -1.625 55.0625 C-1.69976562 56.35285156 -1.77453125 57.64320312 -1.8515625 58.97265625 C-1.90054688 59.97167969 -1.94953125 60.97070312 -2 62 C-2.33 62 -2.66 62 -3 62 C-3.01417969 60.93523437 -3.02835938 59.87046875 -3.04296875 58.7734375 C-3.42466839 44.692962 -5.99812287 32.61562868 -16 22 C-16.99391094 21.07673469 -17.99306264 20.15904067 -19 19.25 C-19.66 18.5075 -20.32 17.765 -21 17 C-20.8125 14.1875 -20.8125 14.1875 -20 12 C-19.01 11.67 -18.02 11.34 -17 11 C-16.67 11.99 -16.34 12.98 -16 14 C-10.21628878 14.56478574 -10.21628878 14.56478574 -5.1875 12.0625 C-2.46190539 8.24666755 -1.20498404 4.49664777 0 0 Z " fill="#080808" transform="translate(186,62)"/>
<path d="M0 0 C3 1 3 1 3.9140625 2.8125 C4.26597656 3.8953125 4.26597656 3.8953125 4.625 5 C5.41115133 7.74269271 5.41115133 7.74269271 7 10 C8.66617115 10.04063832 10.33388095 10.042721 12 10 C12.33 7.03 12.66 4.06 13 1 C15.83132321 1.62918293 17.54748795 2.32420898 19.1875 4.7734375 C22.34755612 11.02384262 23.20155817 16.30659973 23.25 23.3125 C23.270625 24.04662109 23.29125 24.78074219 23.3125 25.53710938 C23.35517938 31.54956701 21.97942489 35.77041203 18.8125 40.9375 C16.3051469 42.40732768 13.93446831 42.65515285 11.05859375 42.5390625 C6.36367899 41.30965408 4.18380066 36.9587228 1.8125 33.03515625 C-3.36032749 23.43119344 -5.0020196 11.61223487 -2 1 C-1.34 0.67 -0.68 0.34 0 0 Z " fill="#070707" transform="translate(103,96)"/>
<path d="M0 0 C3.23356015 1.21258505 4.00856305 2.01284458 6 5 C6.33 3.35 6.66 1.7 7 0 C7.66 0.66 8.32 1.32 9 2 C9.99 2 10.98 2 12 2 C21.00537386 12.45785351 20.51268724 25.81984684 20.17700195 38.80859375 C20.00225532 40.97207764 19.5898636 42.91484553 19 45 C11.73846154 47.33846154 11.73846154 47.33846154 8 45.625 C7.34 45.08875 6.68 44.5525 6 44 C6.15984375 43.48695313 6.3196875 42.97390625 6.484375 42.4453125 C8.79932039 31.46685934 7.2220622 20.06677595 1.4375 10.5 C0.05685777 8.40107973 -1.21303092 6.78696908 -3 5 C-2.75 2.9375 -2.75 2.9375 -2 1 C-1.34 0.67 -0.68 0.34 0 0 Z " fill="#F6F6F6" transform="translate(163,87)"/>
<path d="M0 0 C0.268125 0.5775 0.53625 1.155 0.8125 1.75 C2.0597403 4.11319214 3.17503651 6.03985403 5 8 C7.52733235 8.65555119 7.52733235 8.65555119 10 9 C10.66 9.66 11.32 10.32 12 11 C12 8.03 12 5.06 12 2 C12.99 1.67 13.98 1.34 15 1 C15.65357278 2.22506898 16.29748233 3.45529516 16.9375 4.6875 C17.29714844 5.37199219 17.65679687 6.05648437 18.02734375 6.76171875 C20.10767562 11.54898847 20.18747723 16.26374057 20.25 21.4375 C20.27578125 22.71496094 20.3015625 23.99242188 20.328125 25.30859375 C19.91129871 29.99788956 18.31923292 33.14108088 15.625 36.9375 C14 38 14 38 11.625 38 C6.50122857 36.04808707 4.03544336 32.44961039 1.8125 27.625 C1.19191505 26.0898688 0.58643028 24.54850024 0 23 C-0.4125 21.948125 -0.825 20.89625 -1.25 19.8125 C-2.40522351 13.94011382 -2.52583878 7.96208387 -2 2 C-1.34 1.34 -0.68 0.68 0 0 Z " fill="#070707" transform="translate(151,98)"/>
<path d="M0 0 C4.75 1.875 4.75 1.875 7 3 C7.33 2.34 7.66 1.68 8 1 C10.45041717 1.36352343 11.65706659 1.5490017 13.18847656 3.56298828 C13.65979004 4.55661377 13.65979004 4.55661377 14.140625 5.5703125 C14.48867187 6.3025 14.83671875 7.0346875 15.1953125 7.7890625 C15.54335937 8.55992187 15.89140625 9.33078125 16.25 10.125 C16.61351562 10.87265625 16.97703125 11.6203125 17.3515625 12.390625 C19.51681706 17.06301641 20.62471384 20.74974538 20 26 C16.34640291 29.86851457 11.49558744 32.8372443 6.125 33.1875 C5.073125 33.0946875 5.073125 33.0946875 4 33 C3.67 31.02 3.34 29.04 3 27 C2.34 27 1.68 27 1 27 C1 28.98 1 30.96 1 33 C-1.97 33 -4.94 33 -8 33 C-6.73046875 31.53515625 -5.4609375 30.0703125 -4.19140625 28.60546875 C-1.64754275 25.17750842 -1.72296348 21.43133016 -1.4375 17.3125 C-1.35371094 16.13300781 -1.26992187 14.95351562 -1.18359375 13.73828125 C-1.12300781 12.83464844 -1.06242188 11.93101562 -1 11 C2.54622073 14.26252308 3.55888874 16.14777614 4 21 C5.64471357 16.0658593 5.83508502 12.05267401 3.8828125 7.25390625 C2.64866197 4.79606409 1.36860159 2.38527706 0 0 Z " fill="#070605" transform="translate(153,213)"/>
<path d="M0 0 C2.39879055 1.96264682 4.08494311 3.65991151 5.75 6.25 C3.94587357 9.51460973 2.91605307 11.13929795 -0.25 13.25 C-4.35211847 12.79420906 -8.29765741 11.4124537 -12.25 10.25 C-12.25 12.23 -12.25 14.21 -12.25 16.25 C-11.59 16.25 -10.93 16.25 -10.25 16.25 C-10.25 15.59 -10.25 14.93 -10.25 14.25 C-8.6 14.58 -6.95 14.91 -5.25 15.25 C-3.83312881 19.50061356 -5.05679961 21.96851625 -6.25 26.25 C-10.16442413 25.97690064 -11.9526101 25.50007787 -15 22.9375 C-18.93228691 18.24060175 -19.75293447 14.78765908 -19.63671875 8.7265625 C-18.89956502 4.00580021 -16.16472029 1.65412821 -12.375 -1.125 C-7.67328643 -2.50785693 -4.31928681 -2.32576982 0 0 Z " fill="#F1F1F1" transform="translate(62.25,85.75)"/>
<path d="M0 0 C1.68838682 1.01446597 3.35886626 2.05858092 5.02734375 3.10546875 C6.01734375 3.10546875 7.00734375 3.10546875 8.02734375 3.10546875 C7.69734375 6.07546875 7.36734375 9.04546875 7.02734375 12.10546875 C3.09911274 12.10546875 1.96115481 10.58792426 -0.97265625 8.10546875 C-4.08219004 6.55070185 -6.53532386 6.81902438 -9.97265625 7.10546875 C-13.67655646 9.13213113 -15.62628636 10.58591391 -17.97265625 14.10546875 C-18.64450991 19.84586545 -17.95315133 24.69211552 -15.97265625 30.10546875 C-16.46765625 31.59046875 -16.46765625 31.59046875 -16.97265625 33.10546875 C-18.45765625 33.60046875 -18.45765625 33.60046875 -19.97265625 34.10546875 C-23.67704775 28.32333737 -26.40958724 23.12206646 -25.97265625 16.10546875 C-23.76780228 8.75595553 -19.01067417 4.55453459 -12.97265625 0.10546875 C-8.62244864 -1.34460045 -4.24772527 -1.92619621 0 0 Z " fill="#0F0F0D" transform="translate(61.97265625,77.89453125)"/>
<path d="M0 0 C3.125 1.3125 3.125 1.3125 5 3 C5 3.99 5 4.98 5 6 C2.69 5.34 0.38 4.68 -2 4 C5.21282382 15.65148463 12.73567485 22.57855828 26 27 C33.17650307 27.69622791 40.34612716 26.84862288 47 24 C49.28507683 21.99780554 49.28507683 21.99780554 51 20 C51.66 20.33 52.32 20.66 53 21 C52.401875 21.7425 51.80375 22.485 51.1875 23.25 C49.03180278 25.84420943 49.03180278 25.84420943 47.625 28.25 C44.73744439 31.35967527 40.54790577 30.96834322 36.484375 31.203125 C23.64022659 31.36434862 14.9214395 29.41622926 5 21 C0.68787269 16.72447819 -3.09140595 12.35465939 -6 7 C-6 6.34 -6 5.68 -6 5 C-7.99983534 5.79117904 -7.99983534 5.79117904 -10 7 C-10.33 7.99 -10.66 8.98 -11 10 C-11.99 9.67 -12.98 9.34 -14 9 C-14.34098943 5.93109509 -14.21961817 4.36935783 -12.625 1.6875 C-8.57463118 -0.91630853 -4.68177993 -0.63533039 0 0 Z " fill="#121212" transform="translate(92,143)"/>
<path d="M0 0 C3.21114872 2.17828439 6.24533765 4.4906753 8 8 C8.59729005 14.09235846 7.3609954 17.10254956 4 22 C0.3558226 24.4294516 -1.71241272 24.16179575 -6 24 C-6.99 20.37 -7.98 16.74 -9 13 C-7.35 12.67 -5.7 12.34 -4 12 C-4.33 11.01 -4.66 10.02 -5 9 C-6.32 9 -7.64 9 -9 9 C-9 9.66 -9 10.32 -9 11 C-10.32 10.34 -11.64 9.68 -13 9 C-13 5 -13 5 -11.6796875 3.515625 C-7.73784454 0.75121565 -4.95350684 -1.13517865 0 0 Z " fill="#F2F2F2" transform="translate(193,85)"/>
<path d="M0 0 C0.33 0 0.66 0 1 0 C0.5112925 7.61709622 -1.02840052 14.62793238 -3 22 C0.96 21.34 4.92 20.68 9 20 C9 20.66 9 21.32 9 22 C17.08933661 22.03414792 17.08933661 22.03414792 24.125 18.625 C25.44838987 16.77225419 26.73703307 14.8944504 28 13 C28.1546875 13.9590625 28.1546875 13.9590625 28.3125 14.9375 C28.539375 15.618125 28.76625 16.29875 29 17 C29.99 17.33 30.98 17.66 32 18 C31.34 18.99 30.68 19.98 30 21 C32.31 21.33 34.62 21.66 37 22 C37 20.02 37 18.04 37 16 C37.66 16 38.32 16 39 16 C39.495 18.97 39.495 18.97 40 22 C41.32 22.33 42.64 22.66 44 23 C43.030625 23.12375 42.06125 23.2475 41.0625 23.375 C40.051875 23.58125 39.04125 23.7875 38 24 C37.67 24.66 37.34 25.32 37 26 C24.13 26 11.26 26 -2 26 C-2 25.34 -2 24.68 -2 24 C-3.98 23.34 -5.96 22.68 -8 22 C-5.60309494 14.55697903 -2.84737559 7.28162848 0 0 Z " fill="#E9E5D9" transform="translate(117,224)"/>
<path d="M0 0 C3.50367037 0.35036704 4.86023555 0.61220392 7.125 3.3125 C7.375 7 7.375 7 7.125 10.3125 C4.65 8.3325 4.65 8.3325 2.125 6.3125 C2.0425 7.158125 1.96 8.00375 1.875 8.875 C-0.1084116 17.96563651 -6.03203792 24.01948674 -13.55859375 28.98046875 C-17.65685248 31.3371403 -20.93436582 32.5793846 -25.6875 32.4375 C-26.47769531 32.41945312 -27.26789063 32.40140625 -28.08203125 32.3828125 C-28.67371094 32.35960937 -29.26539063 32.33640625 -29.875 32.3125 C-28.555 31.3225 -27.235 30.3325 -25.875 29.3125 C-27.855 28.9825 -29.835 28.6525 -31.875 28.3125 C-31.875 27.9825 -31.875 27.6525 -31.875 27.3125 C-30.74964844 27.29123047 -30.74964844 27.29123047 -29.6015625 27.26953125 C-20.96177051 26.8669213 -13.83892396 25.17211017 -7.5 19 C-4.8431467 14.60597338 -2.50099989 10.19049966 -0.875 5.3125 C-2.525 5.6425 -4.175 5.9725 -5.875 6.3125 C-5.07200227 2.29751136 -4.3903527 0.47721225 0 0 Z " fill="#1A1A1A" transform="translate(178.875,141.6875)"/>
<path d="M0 0 C1.67654729 0.27942455 3.34259285 0.62331656 5 1 C5.928125 1.185625 6.85625 1.37125 7.8125 1.5625 C8.534375 1.706875 9.25625 1.85125 10 2 C9.34 3.32 8.68 4.64 8 6 C9.98 6 11.96 6 14 6 C12.59505784 9.39527689 11.30238306 11.30647023 8 13 C1.6760429 14.16828123 -2.79385501 12.54105257 -8.25 9.38671875 C-10 8 -10 8 -11 5 C-13.64 4.67 -16.28 4.34 -19 4 C-19 3.67 -19 3.34 -19 3 C-17.06833984 2.80083984 -17.06833984 2.80083984 -15.09765625 2.59765625 C-13.41924638 2.41950101 -11.74086227 2.24110308 -10.0625 2.0625 C-8.78729492 1.93198242 -8.78729492 1.93198242 -7.48632812 1.79882812 C-6.67744141 1.71181641 -5.86855469 1.62480469 -5.03515625 1.53515625 C-4.2862915 1.456604 -3.53742676 1.37805176 -2.76586914 1.29711914 C-0.97859987 1.1719262 -0.97859987 1.1719262 0 0 Z " fill="#F1F1F1" transform="translate(139,171)"/>
<path d="M0 0 C0.66 0 1.32 0 2 0 C2.39590347 7.39019811 1.12767046 12.8084943 -3 19 C-1.63875 18.319375 -1.63875 18.319375 -0.25 17.625 C2.16666667 16.41666667 4.58333333 15.20833333 7 14 C5.53374504 20.47595942 5.53374504 20.47595942 3.28125 22.6875 C0.50407818 24.28532488 -1.5647248 24.49790029 -4.75 24.6875 C-5.73484375 24.75324219 -6.7196875 24.81898438 -7.734375 24.88671875 C-8.48203125 24.92410156 -9.2296875 24.96148437 -10 25 C-9.6249492 20.64743671 -9.17044619 16.58152231 -7.9375 12.375 C-6.93709607 8.77354585 -6.84820023 5.71909431 -7 2 C-6.34 2 -5.68 2 -5 2 C-4.34 3.32 -3.68 4.64 -3 6 C-2.01 4.02 -1.02 2.04 0 0 Z " fill="#141414" transform="translate(124,221)"/>
<path d="M0 0 C2.01953125 1.75 2.01953125 1.75 3.8125 4 C4.41707031 4.7425 5.02164063 5.485 5.64453125 6.25 C6.09183594 6.8275 6.53914063 7.405 7 8 C6.67 8.66 6.34 9.32 6 10 C5.34 10 4.68 10 4 10 C4.33 12.97 4.66 15.94 5 19 C4.01 19 3.02 19 2 19 C2 18.34 2 17.68 2 17 C1.2575 17.103125 0.515 17.20625 -0.25 17.3125 C-3 17 -3 17 -5.25 14.6875 C-7 12 -7 12 -8 9 C-8.99 9.495 -8.99 9.495 -10 10 C-7.3310673 -0.88103331 -7.3310673 -0.88103331 0 0 Z " fill="#222222" transform="translate(159,90)"/>
<path d="M0 0 C3.92381921 0.94712878 5.79259306 2.04259306 8.625 4.875 C8.955 5.865 9.285 6.855 9.625 7.875 C8.305 7.545 6.985 7.215 5.625 6.875 C5.63660156 7.51308594 5.64820312 8.15117188 5.66015625 8.80859375 C5.66917969 9.63488281 5.67820312 10.46117188 5.6875 11.3125 C5.69910156 12.13621094 5.71070312 12.95992187 5.72265625 13.80859375 C5.625 15.875 5.625 15.875 4.625 16.875 C2.3125 17.3125 2.3125 17.3125 -0.375 16.875 C-2.92960568 13.75270417 -4.75601172 10.89842383 -5.375 6.875 C-6.365 6.875 -7.355 6.875 -8.375 6.875 C-6.72445548 2.05033141 -5.52645013 -0.20468334 0 0 Z " fill="#1B1B1B" transform="translate(110.375,90.125)"/>
<path d="M0 0 C0.33 0 0.66 0 1 0 C1.10957031 0.81984375 1.21914062 1.6396875 1.33203125 2.484375 C1.49058594 3.56203125 1.64914063 4.6396875 1.8125 5.75 C1.96332031 6.81734375 2.11414063 7.8846875 2.26953125 8.984375 C3.02875113 12.1186945 3.75521193 13.71285744 6 16 C9.59067962 17.28842537 9.59067962 17.28842537 13 18 C12.443125 18.268125 11.88625 18.53625 11.3125 18.8125 C10.549375 19.204375 9.78625 19.59625 9 20 C8.1646875 20.3815625 7.329375 20.763125 6.46875 21.15625 C3.12300979 23.65496738 2.94834129 25.64302787 2.1875 29.6875 C1.83751953 31.45673828 1.83751953 31.45673828 1.48046875 33.26171875 C1.32191406 34.16535156 1.16335937 35.06898438 1 36 C0.67 36 0.34 36 0 36 C-0.03738281 35.24074219 -0.07476562 34.48148438 -0.11328125 33.69921875 C-0.17902344 32.70535156 -0.24476563 31.71148437 -0.3125 30.6875 C-0.37050781 29.70136719 -0.42851562 28.71523437 -0.48828125 27.69921875 C-1.06619826 24.65081679 -1.48827451 23.76261438 -4 22 C-6.49018012 21.00011074 -6.49018012 21.00011074 -9.1875 20.3125 C-10.08855469 20.06113281 -10.98960937 19.80976563 -11.91796875 19.55078125 C-12.60503906 19.36902344 -13.29210937 19.18726563 -14 19 C-14 18.67 -14 18.34 -14 18 C-13.22914063 17.91363281 -12.45828125 17.82726562 -11.6640625 17.73828125 C-10.66117188 17.59777344 -9.65828125 17.45726562 -8.625 17.3125 C-7.62726563 17.18488281 -6.62953125 17.05726563 -5.6015625 16.92578125 C-2.82953779 16.2520684 -2.82953779 16.2520684 -1.6875 13.78125 C-0.97204 10.88688907 -0.58991563 8.1604996 -0.375 5.1875 C-0.30023438 4.21167969 -0.22546875 3.23585937 -0.1484375 2.23046875 C-0.09945312 1.49441406 -0.05046875 0.75835937 0 0 Z " fill="#13110D" transform="translate(196,183)"/>
<path d="M0 0 C4.176299 0.6164279 7.39272249 2.05435157 11.125 4 C20.75976347 8.99758305 28.13723821 8.78031651 38.5546875 6.046875 C41.38821117 4.83380097 42.96747417 3.28777325 45 1 C45.66 1.33 46.32 1.66 47 2 C46.401875 2.7425 45.80375 3.485 45.1875 4.25 C43.03180278 6.84420943 43.03180278 6.84420943 41.625 9.25 C38.73744439 12.35967527 34.54790577 11.96834322 30.484375 12.203125 C19.40301847 12.34222153 10.56549522 11.44825671 2 4 C2 3.01 2 2.02 2 1 C1.34 0.67 0.68 0.34 0 0 Z " fill="#151515" transform="translate(98,162)"/>
<path d="M0 0 C3 3 6 6 9 9 C10.1446875 9.86625 10.1446875 9.86625 11.3125 10.75 C13.92648952 14.23531936 13.32388339 17.78951598 13 22 C6.54249671 19.78599887 2.85718442 16.18990088 -0.7890625 10.5859375 C-2.08797234 8.7068569 -2.08797234 8.7068569 -5 7 C-3.35 7 -1.7 7 0 7 C0 4.69 0 2.38 0 0 Z " fill="#E4E1D3" transform="translate(38,106)"/>
<path d="M0 0 C3.18609925 0.35401103 4.79066678 0.83027036 7.3125 2.875 C9 5 9 5 9 8 C6.29120665 9.35439668 3.99066732 9.06501451 1 9 C1.680625 10.11375 2.36125 11.2275 3.0625 12.375 C4.22265625 14.2734375 4.22265625 14.2734375 5 16 C4.67 16.66 4.34 17.32 4 18 C3.01 18 2.02 18 1 18 C0.608125 17.278125 0.21625 16.55625 -0.1875 15.8125 C-2.69137857 11.92717118 -6.0251956 10.21871504 -10 8 C-8.22555028 5.75393573 -7.41647515 5.04918998 -4.51953125 4.70703125 C-3.17955078 4.75923828 -3.17955078 4.75923828 -1.8125 4.8125 C-0.46091797 4.85310547 -0.46091797 4.85310547 0.91796875 4.89453125 C1.60503906 4.92933594 2.29210937 4.96414062 3 5 C2.01 4.34 1.02 3.68 0 3 C0 2.01 0 1.02 0 0 Z " fill="#141313" transform="translate(159,197)"/>
<path d="M0 0 C1.16273438 -0.02578125 2.32546875 -0.0515625 3.5234375 -0.078125 C6.625 0.25 6.625 0.25 8.5390625 1.765625 C9.07660156 2.50039062 9.07660156 2.50039062 9.625 3.25 C7.875 7.125 7.875 7.125 5.625 8.25 C0.186082 8.80564585 -3.89979327 8.71467618 -8.375 5.25 C-7.10375088 -0.37981755 -5.72901726 0.07588102 0 0 Z " fill="#EAEAEA" transform="translate(145.375,139.75)"/>
<path d="M0 0 C4.14145578 7.09963847 4.31733502 14.77080037 4.25 22.75 C4.25773438 23.68199219 4.26546875 24.61398438 4.2734375 25.57421875 C4.27085937 26.47269531 4.26828125 27.37117188 4.265625 28.296875 C4.26336914 29.10479492 4.26111328 29.91271484 4.25878906 30.74511719 C3.97512093 33.21677651 3.23482604 34.85775463 2 37 C1.01 37 0.02 37 -1 37 C-0.835 35.948125 -0.67 34.89625 -0.5 33.8125 C0.62058749 24.73574131 0.11721365 15.62205506 -0.87890625 6.55859375 C-0.9949373 4.10696989 -0.73824412 2.32410187 0 0 Z " fill="#434343" transform="translate(140,96)"/>
<path d="M0 0 C0.268125 0.639375 0.53625 1.27875 0.8125 1.9375 C1.88667752 4.33131686 1.88667752 4.33131686 5 5 C4.01 6.485 4.01 6.485 3 8 C5.31 8.33 7.62 8.66 10 9 C10 7.02 10 5.04 10 3 C10.66 3 11.32 3 12 3 C12.33 4.98 12.66 6.96 13 9 C14.32 9.33 15.64 9.66 17 10 C16.030625 10.12375 15.06125 10.2475 14.0625 10.375 C13.051875 10.58125 12.04125 10.7875 11 11 C10.67 11.66 10.34 12.32 10 13 C4.39 13 -1.22 13 -7 13 C-5.90441447 7.52207236 -4.86103042 6.6679789 -1 3 C-0.67 2.01 -0.34 1.02 0 0 Z " fill="#ECE6D6" transform="translate(144,237)"/>
<path d="M0 0 C2.49361571 1.20381448 4.68143083 2.45428722 7 4 C7 3.34 7 2.68 7 2 C8.875 1.375 8.875 1.375 11 1 C11.66 1.66 12.32 2.32 13 3 C12.625 5.125 12.625 5.125 12 7 C12 6.34 12 5.68 12 5 C10.68 5.33 9.36 5.66 8 6 C8.25136719 6.92232422 8.25136719 6.92232422 8.5078125 7.86328125 C8.71148437 8.67152344 8.91515625 9.47976562 9.125 10.3125 C9.33382812 11.11300781 9.54265625 11.91351563 9.7578125 12.73828125 C10 15 10 15 8 18 C7.70547416 20.38677076 7.5071783 22.78626094 7.375 25.1875 C7.26285156 27.09595703 7.26285156 27.09595703 7.1484375 29.04296875 C7.09945312 30.01878906 7.05046875 30.99460937 7 32 C6.67 32 6.34 32 6 32 C5.98582031 30.94683594 5.97164062 29.89367187 5.95703125 28.80859375 C5.66319737 18.35127768 3.84560107 9.74881156 0 0 Z " fill="#151515" transform="translate(177,92)"/>
<path d="M0 0 C2.00720923 0.28674418 4.0085944 0.61866701 6 1 C6.13277344 1.75925781 6.26554687 2.51851563 6.40234375 3.30078125 C6.57894531 4.29464844 6.75554688 5.28851563 6.9375 6.3125 C7.11152344 7.29863281 7.28554688 8.28476563 7.46484375 9.30078125 C7.95746847 12.08189213 7.95746847 12.08189213 9 15 C8.67 15.99 8.34 16.98 8 18 C7.01 18.33 6.02 18.66 5 19 C1.2786441 13.19138913 -1.21981925 8.03421594 -1 1 C-0.67 0.67 -0.34 0.34 0 0 Z " fill="#171615" transform="translate(37,93)"/>
<path d="M0 0 C4.75 0.875 4.75 0.875 7 2 C13.03326169 2.30708218 19.08160618 2.31519863 25 1 C23.59505784 4.39527689 22.30238306 6.30647023 19 8 C12.6760429 9.16828123 8.20614499 7.54105257 2.75 4.38671875 C1 3 1 3 0 0 Z " fill="#2F2F2F" transform="translate(128,176)"/>
<path d="M0 0 C2.625 0.25 2.625 0.25 4.4375 1.3125 C6.25123389 4.27175003 5.87568132 6.86580225 5.625 10.25 C4.625 11.25 4.625 11.25 2.25 11.5625 C-0.375 11.25 -0.375 11.25 -2.1875 9.625 C-3.67366591 6.65266819 -3.6667773 4.53249457 -3.375 1.25 C-2.375 0.25 -2.375 0.25 0 0 Z " fill="#F4F4F4" transform="translate(156.375,95.75)"/>
<path d="M0 0 C2.625 0.3125 2.625 0.3125 4.4375 1.9375 C5.92366591 4.90983181 5.9167773 7.03000543 5.625 10.3125 C4.625 11.3125 4.625 11.3125 2.25 11.625 C-0.375 11.3125 -0.375 11.3125 -2.1875 9.6875 C-3.67366591 6.71516819 -3.6667773 4.59499457 -3.375 1.3125 C-2.375 0.3125 -2.375 0.3125 0 0 Z " fill="#F5F5F5" transform="translate(110.375,95.6875)"/>
<path d="M0 0 C0.78246094 -0.01417969 1.56492187 -0.02835937 2.37109375 -0.04296875 C4.5625 0.1875 4.5625 0.1875 7.5625 2.1875 C7.5625 2.8475 7.5625 3.5075 7.5625 4.1875 C6.98242188 4.14109375 6.40234375 4.0946875 5.8046875 4.046875 C0.18046043 3.78700972 -3.08547649 4.24995492 -7.4375 8.1875 C-9.32318694 11.28764929 -9.32318694 11.28764929 -10.4375 14.1875 C-11.0975 14.1875 -11.7575 14.1875 -12.4375 14.1875 C-12.89546457 11.05807543 -12.94309016 8.95524802 -11.171875 6.265625 C-7.6118164 2.08342024 -5.63762037 0.04628588 0 0 Z " fill="#0E0E0E" transform="translate(104.4375,77.8125)"/>
<path d="M0 0 C3.50367037 0.35036704 4.86023555 0.61220392 7.125 3.3125 C7.375 7 7.375 7 7.125 10.3125 C5.475 8.9925 3.825 7.6725 2.125 6.3125 C1.795 7.6325 1.465 8.9525 1.125 10.3125 C0.135 10.3125 -0.855 10.3125 -1.875 10.3125 C-1.545 8.6625 -1.215 7.0125 -0.875 5.3125 C-2.525 5.6425 -4.175 5.9725 -5.875 6.3125 C-5.07200227 2.29751136 -4.3903527 0.47721225 0 0 Z " fill="#292929" transform="translate(178.875,141.6875)"/>
<path d="M0 0 C7.35174806 -0.55253221 12.511583 0.48935892 19 4 C19 4.99 19 5.98 19 7 C18.34 7.66 17.68 8.32 17 9 C16.34 8.34 15.68 7.68 15 7 C12.33757179 6.53709779 12.33757179 6.53709779 9.375 6.375 C8.37210938 6.30023438 7.36921875 6.22546875 6.3359375 6.1484375 C5.56507813 6.09945312 4.79421875 6.05046875 4 6 C4.33 5.01 4.66 4.02 5 3 C5.66 2.67 6.32 2.34 7 2 C4.69 1.67 2.38 1.34 0 1 C0 0.67 0 0.34 0 0 Z " fill="#212121" transform="translate(137,134)"/>
<path d="M0 0 C1.23733087 2.38186193 2.17643481 4.55135878 3 7.125 C3.79613329 10.08650724 3.79613329 10.08650724 6 12 C5.01 12.66 4.02 13.32 3 14 C2.20562077 16.18505129 2.20562077 16.18505129 1.8125 18.625 C1.65394531 19.44226563 1.49539062 20.25953125 1.33203125 21.1015625 C1.22246094 21.72804687 1.11289063 22.35453125 1 23 C0.67 23 0.34 23 0 23 C-0.020625 21.741875 -0.04125 20.48375 -0.0625 19.1875 C-0.23042535 16.98300672 -0.23042535 16.98300672 -1 15 C-3.28980909 13.31016493 -5.21434833 12.81037139 -8 12 C-8 11.67 -8 11.34 -8 11 C-7.05125 10.855625 -6.1025 10.71125 -5.125 10.5625 C-1.87141432 9.37038249 -1.87141432 9.37038249 -1.15625 6.86328125 C-0.66828424 4.57773573 -0.27688708 2.3201228 0 0 Z " fill="#312F27" transform="translate(211,167)"/>
<path d="M0 0 C5.83399158 0.25420443 9.74264261 0.61363178 14 5 C16.1519437 8.22791555 16.20086443 9.28400809 16 13 C15.29875 12.2575 14.5975 11.515 13.875 10.75 C8.81769682 5.91257957 5.05968736 3.56477499 -2 3 C-1.34 2.01 -0.68 1.02 0 0 Z " fill="#161616" transform="translate(154,80)"/>
<path d="M0 0 C3.90448684 1.78490827 7.07801464 4.43663427 9.5625 7.9375 C10.39161968 10.67359496 10.31658336 13.16016615 10.1875 16 C8.1875 14 8.1875 14 6.875 11.625 C3.93486661 7.05145918 0.27278067 4.7435248 -4.8125 3 C-2.4125 0 -2.4125 0 0 0 Z " fill="#1C1C1C" transform="translate(92.8125,131)"/>
<path d="M0 0 C0 0.66 0 1.32 0 2 C-1.7634375 2.2475 -1.7634375 2.2475 -3.5625 2.5 C-9.07106239 3.8771406 -11.89737185 7.42813788 -15 12 C-16.22732691 14.3197349 -17.12057897 16.51692886 -18 19 C-18.95435272 16.43332469 -19.07808771 15.23892508 -18.21484375 12.59765625 C-13.79982543 3.83512754 -10.36690267 -0.89369851 0 0 Z " fill="#EAEAEA" transform="translate(112,198)"/>
<path d="M0 0 C0 0.66 0 1.32 0 2 C0.66 2.33 1.32 2.66 2 3 C-3.97332123 6.4753869 -8.11509775 7.57374185 -15 7 C-13.68 6.01 -12.36 5.02 -11 4 C-13.97 3.505 -13.97 3.505 -17 3 C-17 2.67 -17 2.34 -17 2 C-16.16855469 1.93941406 -15.33710938 1.87882813 -14.48046875 1.81640625 C-12.85044922 1.69072266 -12.85044922 1.69072266 -11.1875 1.5625 C-10.10855469 1.48128906 -9.02960938 1.40007812 -7.91796875 1.31640625 C-5.15209182 1.01649188 -2.75597229 0 0 0 Z " fill="#2A2A2A" transform="translate(164,167)"/>
<path d="M0 0 C0.66 0 1.32 0 2 0 C2 7.26 2 14.52 2 22 C0.68 22.33 -0.64 22.66 -2 23 C-1.34 15.41 -0.68 7.82 0 0 Z " fill="#0D0D0D" transform="translate(141,110)"/>
<path d="M0 0 C0.33 0 0.66 0 1 0 C0.54034292 7.30696249 -0.88329723 13.99757448 -3 21 C-5 20 -5 20 -5.80859375 17.92578125 C-6.07232632 13.89444055 -4.64434075 10.80461945 -3.0625 7.1875 C-2.77181641 6.49462891 -2.48113281 5.80175781 -2.18164062 5.08789062 C-1.46608352 3.38697619 -0.73460121 1.69277669 0 0 Z " fill="#EEEEED" transform="translate(117,224)"/>
<path d="M0 0 C3.18609925 0.35401103 4.79066678 0.83027036 7.3125 2.875 C9 5 9 5 9 8 C6.69 8.33 4.38 8.66 2 9 C2.33 7.68 2.66 6.36 3 5 C2.01 4.34 1.02 3.68 0 3 C0 2.01 0 1.02 0 0 Z " fill="#0F0E0B" transform="translate(159,197)"/>
<path d="M0 0 C4.40776345 0.40070577 6.93106417 2.20501791 10.3515625 4.7890625 C12.14204741 6.10434762 13.96725218 7.10559096 16 8 C12.26986346 9.24337885 11.05797481 8.55180675 7.4375 7.1875 C6.46683594 6.83042969 5.49617188 6.47335938 4.49609375 6.10546875 C2 5 2 5 0 3 C0 2.01 0 1.02 0 0 Z " fill="#DDDACF" transform="translate(44,150)"/>
<path d="M0 0 C0.33 0.99 0.66 1.98 1 3 C0 5 0 5 -2 5.9375 C-4.34608221 6.8891846 -4.34608221 6.8891846 -5 10 C-5.99 9.67 -6.98 9.34 -8 9 C-8.36794764 5.68847126 -8.29809215 4.39390748 -6.25 1.6875 C-4 0 -4 0 0 0 Z " fill="#232323" transform="translate(86,143)"/>
<path d="M0 0 C2.30142435 1.78174788 3.80034391 3.16304165 4.48828125 6.046875 C4.72323102 8.0246611 4.86751458 10.01271872 5 12 C4.01 12 3.02 12 2 12 C-0.99481865 7.50777202 -0.99481865 7.50777202 -2 5 C-1.25 2.0625 -1.25 2.0625 0 0 Z " fill="#161513" transform="translate(199,83)"/>
<path d="M0 0 C-1.625 5.75 -1.625 5.75 -5 8 C-5.66 7.01 -6.32 6.02 -7 5 C-7.99 5.495 -7.99 5.495 -9 6 C-9 5.34 -9 4.68 -9 4 C-9.66 3.67 -10.32 3.34 -11 3 C-7.14243493 0.84694043 -4.44870215 -0.39253254 0 0 Z " fill="#1B1916" transform="translate(207,157)"/>
<path d="M0 0 C1.65 0 3.3 0 5 0 C4.67 0.99 4.34 1.98 4 3 C4.66 3.33 5.32 3.66 6 4 C3.13309174 7.29163541 1.31824183 8.43181029 -3 9 C-3.99 9.495 -3.99 9.495 -5 10 C-3.33333333 6.66666667 -1.66666667 3.33333333 0 0 Z " fill="#141312" transform="translate(190,155)"/>
<path d="M0 0 C4.3177458 0.50797009 8.03302114 1.19682779 12 3 C11.01 3.33 10.02 3.66 9 4 C8.26676204 6.01508358 8.26676204 6.01508358 8 8 C7.34 7.01 6.68 6.02 6 5 C3.94074861 4.27617533 3.94074861 4.27617533 2 4 C2 4.66 2 5.32 2 6 C1.34 6 0.68 6 0 6 C0 4.02 0 2.04 0 0 Z " fill="#1B1B1B" transform="translate(50,96)"/>
<path d="M0 0 C0.66 0.33 1.32 0.66 2 1 C2 5 2 5 1 8 C0.34 8 -0.32 8 -1 8 C-1 8.66 -1 9.32 -1 10 C-2.32 9.34 -3.64 8.68 -5 8 C-5 6.68 -5 5.36 -5 4 C-2.5 1.75 -2.5 1.75 0 0 Z " fill="#E4E4E4" transform="translate(185,86)"/>
<path d="M0 0 C-0.99 0.495 -0.99 0.495 -2 1 C-2 1.66 -2 2.32 -2 3 C-4.31 3 -6.62 3 -9 3 C-9 2.34 -9 1.68 -9 1 C-13.95 1 -18.9 1 -24 1 C-24 0.67 -24 0.34 -24 0 C-7.1070615 -1.33257403 -7.1070615 -1.33257403 0 0 Z " fill="#F2EEE1" transform="translate(117,247)"/>
<path d="M0 0 C1.32 0.66 2.64 1.32 4 2 C3.34 2 2.68 2 2 2 C2 3.98 2 5.96 2 8 C-0.97 8 -3.94 8 -7 8 C-5.38405168 5.95880212 -3.7143618 3.95927063 -2 2 C-1.34 2 -0.68 2 0 2 C0 1.34 0 0.68 0 0 Z " fill="#11100E" transform="translate(152,238)"/>
<path d="M0 0 C4.87362847 0.45336079 7.39042389 1.7089159 11 5 C10.01 5.99 9.02 6.98 8 8 C5 6 2 4 -1 2 C-0.67 1.34 -0.34 0.68 0 0 Z " fill="#E1DFD4" transform="translate(61,181)"/>
<path d="M0 0 C4.60625394 -0.32136655 7.33513904 0.08966924 11 3 C11 3.99 11 4.98 11 6 C10.29875 5.649375 9.5975 5.29875 8.875 4.9375 C5.49731414 3.8360807 3.41919407 4.20483859 0 5 C0 3.33333333 0 1.66666667 0 0 Z " fill="#121212" transform="translate(86,143)"/>
<path d="M0 0 C2.97 0.495 2.97 0.495 6 1 C5.34 2.32 4.68 3.64 4 5 C-1.94 4.67 -7.88 4.34 -14 4 C-14 3.67 -14 3.34 -14 3 C-13.07316406 2.95101562 -12.14632812 2.90203125 -11.19140625 2.8515625 C-9.99386719 2.77679688 -8.79632813 2.70203125 -7.5625 2.625 C-6.36753906 2.55539063 -5.17257813 2.48578125 -3.94140625 2.4140625 C-2.97074219 2.27742187 -2.00007813 2.14078125 -1 2 C-0.67 1.34 -0.34 0.68 0 0 Z " fill="#262421" transform="translate(97,185)"/>
<path d="M0 0 C0 0.33 0 0.66 0 1 C-1.8253125 1.309375 -1.8253125 1.309375 -3.6875 1.625 C-8.50473321 2.78866557 -10.22220672 5.00692215 -13 9 C-13.75 7.3125 -13.75 7.3125 -14 5 C-12.16962345 2.04323787 -10.56020833 0.33037927 -7.5625 -1.4375 C-4.37910103 -2.13629489 -2.85350069 -1.46751464 0 0 Z " fill="#323232" transform="translate(183,134)"/>
<path d="M0 0 C2 2 2 2 2 5 C2.99 5 3.98 5 5 5 C6.13732426 8.40401948 5.83989957 10.77456664 5.0625 14.25 C4.86785156 15.14203125 4.67320313 16.0340625 4.47265625 16.953125 C4.31667969 17.62859375 4.16070312 18.3040625 4 19 C3.01 18.34 2.02 17.68 1 17 C1.99 14.03 2.98 11.06 4 8 C3.34 8 2.68 8 2 8 C0.23537317 4.91190305 0 3.76687864 0 0 Z " fill="#D7D5CA" transform="translate(80,222)"/>
<path d="M0 0 C0.99 0.33 1.98 0.66 3 1 C2.01 2.485 2.01 2.485 1 4 C2.98 4 4.96 4 7 4 C7 4.66 7 5.32 7 6 C5.783125 5.95875 4.56625 5.9175 3.3125 5.875 C-0.21894127 5.86245492 -2.80003566 6.40001783 -6 8 C-4.55746343 4.63408134 -2.66735273 2.48952921 0 0 Z " fill="#201F1B" transform="translate(38,185)"/>
<path d="M0 0 C1.4540625 0.0309375 1.4540625 0.0309375 2.9375 0.0625 C3.0625 2.4375 3.0625 2.4375 2.9375 5.0625 C2.2775 5.7225 1.6175 6.3825 0.9375 7.0625 C-0.0525 7.0625 -1.0425 7.0625 -2.0625 7.0625 C-2.7225 5.0825 -3.3825 3.1025 -4.0625 1.0625 C-3.0625 0.0625 -3.0625 0.0625 0 0 Z " fill="#DBDBDB" transform="translate(188.0625,96.9375)"/>
<path d="M0 0 C1.23733087 2.38186193 2.17643481 4.55135878 3 7.125 C3.79613329 10.08650724 3.79613329 10.08650724 6 12 C5.01 12.66 4.02 13.32 3 14 C2.01 13.67 1.02 13.34 0 13 C-1.06671952 9.79984144 -0.94845472 8.11455706 -0.5625 4.8125 C-0.46066406 3.91144531 -0.35882813 3.01039063 -0.25390625 2.08203125 C-0.17011719 1.39496094 -0.08632812 0.70789063 0 0 Z " fill="#1E1C15" transform="translate(211,167)"/>
<path d="M0 0 C4.40114397 0.50298788 6.71195019 2.08772731 10 5 C9.67 5.99 9.34 6.98 9 8 C6.0625 6.75 6.0625 6.75 3 5 C2.25 2.875 2.25 2.875 2 1 C1.34 0.67 0.68 0.34 0 0 Z " fill="#0F0F0F" transform="translate(98,162)"/>
<path d="M0 0 C2 3 2 3 1.625 6.1875 C1.41875 7.115625 1.2125 8.04375 1 9 C0.67 9 0.34 9 0 9 C-0.33 13.62 -0.66 18.24 -1 23 C-1.33 23 -1.66 23 -2 23 C-2.05429278 20.29139335 -2.09381211 17.58389099 -2.125 14.875 C-2.14175781 14.11445312 -2.15851563 13.35390625 -2.17578125 12.5703125 C-2.21546246 7.96729269 -1.75907577 4.33535996 0 0 Z " fill="#414141" transform="translate(185,101)"/>
<path d="M0 0 C9.17286652 0.35010941 9.17286652 0.35010941 12.625 3.0625 C13.07875 3.701875 13.5325 4.34125 14 5 C4.82713348 4.64989059 4.82713348 4.64989059 1.375 1.9375 C0.92125 1.298125 0.4675 0.65875 0 0 Z " fill="#DBDBDC" transform="translate(149,198)"/>
<path d="M0 0 C0.33 1.32 0.66 2.64 1 4 C-2.63 4 -6.26 4 -10 4 C-7.16124653 -0.25813021 -4.8137938 -0.13010254 0 0 Z " fill="#C4C1B7" transform="translate(134,56)"/>
<path d="M0 0 C7.26 0 14.52 0 22 0 C21.01 1.485 21.01 1.485 20 3 C17.375 3.1875 17.375 3.1875 15 3 C15 2.67 15 2.34 15 2 C10.05 1.67 5.1 1.34 0 1 C0 0.67 0 0.34 0 0 Z " fill="#F3EEE1" transform="translate(139,247)"/>
<path d="M0 0 C3.67230705 3.07999946 4.56802365 5.2482602 5 10 C5.66 9.01 6.32 8.02 7 7 C6.67 8.65 6.34 10.3 6 12 C5.01 12 4.02 12 3 12 C2.67 10.35 2.34 8.7 2 7 C1.01 7.495 1.01 7.495 0 8 C0 5.36 0 2.72 0 0 Z " fill="#202020" transform="translate(152,224)"/>
<path d="M0 0 C2.83022097 3.99560608 1.76210446 7.42737323 1 12 C0.01 12 -0.98 12 -2 12 C-3.12377697 8.69564916 -2.89554742 6.9493138 -1.5625 3.75 C-1.27503906 3.04359375 -0.98757812 2.3371875 -0.69140625 1.609375 C-0.46324219 1.07828125 -0.23507813 0.5471875 0 0 Z " fill="#302F2B" transform="translate(92,209)"/>
<path d="M0 0 C0.598125 0.350625 1.19625 0.70125 1.8125 1.0625 C1.8125 3.3725 1.8125 5.6825 1.8125 8.0625 C1.02875 7.4025 0.245 6.7425 -0.5625 6.0625 C-2.90262812 3.86048559 -2.90262812 3.86048559 -5.1875 4.0625 C-5.1875 2.7425 -5.1875 1.4225 -5.1875 0.0625 C-2.1875 -0.9375 -2.1875 -0.9375 0 0 Z " fill="#212121" transform="translate(184.1875,143.9375)"/>
<path d="M0 0 C1.32 0 2.64 0 4 0 C4.33 0.99 4.66 1.98 5 3 C4.01 3.33 3.02 3.66 2 4 C2.33 6.97 2.66 9.94 3 13 C2.01 13 1.02 13 0 13 C0 8.71 0 4.42 0 0 Z " fill="#181818" transform="translate(161,96)"/>
<path d="M0 0 C0.66 0 1.32 0 2 0 C2.33 1.98 2.66 3.96 3 6 C4.32 6.33 5.64 6.66 7 7 C1.72 7 -3.56 7 -9 7 C-9 6.67 -9 6.34 -9 6 C-6.03 6 -3.06 6 0 6 C0 4.02 0 2.04 0 0 Z " fill="#C6C3BC" transform="translate(154,240)"/>
<path d="M0 0 C1.11375 0.4640625 1.11375 0.4640625 2.25 0.9375 C4.50692176 1.8094925 6.6450153 2.47667007 9 3 C9 4.32 9 5.64 9 7 C7.35 7.33 5.7 7.66 4 8 C2.68 5.36 1.36 2.72 0 0 Z " fill="#202020" transform="translate(153,213)"/>
<path d="M0 0 C0.99 0.33 1.98 0.66 3 1 C1.02 4.63 -0.96 8.26 -3 12 C-3.33 12 -3.66 12 -4 12 C-3.5317879 7.22423661 -2.75668002 3.95523655 0 0 Z " fill="#21201E" transform="translate(97,200)"/>
<path d="M0 0 C1.65 0.33 3.3 0.66 5 1 C4.01 1.33 3.02 1.66 2 2 C1.19787372 3.87387216 1.19787372 3.87387216 0.8125 6.0625 C0.65394531 6.79597656 0.49539062 7.52945313 0.33203125 8.28515625 C0.22246094 8.85105469 0.11289063 9.41695312 0 10 C-1.5625 8.8125 -1.5625 8.8125 -3 7 C-2.6875 4.3125 -2.6875 4.3125 -2 2 C-1.34 2 -0.68 2 0 2 C0 1.34 0 0.68 0 0 Z " fill="#938E80" transform="translate(181,201)"/>
<path d="M0 0 C0.99 0.33 1.98 0.66 3 1 C2.34 1 1.68 1 1 1 C1.99 2.98 2.98 4.96 4 7 C2.02 7.99 2.02 7.99 0 9 C-3 4.25 -3 4.25 -3 2 C-2.01 1.34 -1.02 0.68 0 0 Z " fill="#1F1F1F" transform="translate(89,146)"/>
<path d="M0 0 C2.52588702 2.36292656 3.88820837 3.66462511 5 7 C4.38125 7.12375 3.7625 7.2475 3.125 7.375 C0.80879168 7.87197356 0.80879168 7.87197356 -1 10 C-2.32 9.01 -3.64 8.02 -5 7 C-3.35 7 -1.7 7 0 7 C0 4.69 0 2.38 0 0 Z " fill="#CECBBE" transform="translate(38,106)"/>
<path d="M0 0 C1.35432675 1.31200404 2.68733482 2.64631404 4 4 C4 4.33 4 4.66 4 5 C0.37 5 -3.26 5 -7 5 C-2.25 1.125 -2.25 1.125 0 0 Z " fill="#E2E1D5" transform="translate(181,177)"/>
<path d="M0 0 C-0.33 1.32 -0.66 2.64 -1 4 C-1.804375 3.690625 -2.60875 3.38125 -3.4375 3.0625 C-7.62249087 1.81434483 -11.66306101 1.3662304 -16 1 C-16 0.67 -16 0.34 -16 0 C-14.08416353 -0.1958009 -12.16727461 -0.38132214 -10.25 -0.5625 C-8.64898437 -0.71912109 -8.64898437 -0.71912109 -7.015625 -0.87890625 C-4.35858796 -0.98560074 -2.50039428 -0.81930395 0 0 Z " fill="#CFCFCF" transform="translate(136,174)"/>
<path d="M0 0 C0.33 0.66 0.66 1.32 1 2 C2.65 2 4.3 2 6 2 C5.42507812 2.28488281 4.85015625 2.56976563 4.2578125 2.86328125 C2.80655238 3.59393297 1.362969 4.34015051 -0.0703125 5.10546875 C-0.74835938 5.46253906 -1.42640625 5.81960937 -2.125 6.1875 C-2.80820313 6.55230469 -3.49140625 6.91710937 -4.1953125 7.29296875 C-5.08863281 7.64294922 -5.08863281 7.64294922 -6 8 C-6.66 7.67 -7.32 7.34 -8 7 C-5.36 4.69 -2.72 2.38 0 0 Z " fill="#D7D4CC" transform="translate(200,154)"/>
<path d="M0 0 C3 1 3 1 4.1875 2.6875 C5.19313465 5.54969093 5.13689641 7.98827908 5 11 C2.83133199 8.83133199 1.54539472 6.64004931 0 4 C-0.66 3.01 -1.32 2.02 -2 1 C-1.34 0.67 -0.68 0.34 0 0 Z " fill="#2A2A2A" transform="translate(98,136)"/>
<path d="M0 0 C0.33 0.66 0.66 1.32 1 2 C-0.32 2 -1.64 2 -3 2 C-3.33 2.99 -3.66 3.98 -4 5 C-6.5625 6.6875 -6.5625 6.6875 -9 8 C-9 6.68 -9 5.36 -9 4 C-6.15389899 1.86542424 -3.491933 0.64665426 0 0 Z " fill="#DDDACC" transform="translate(209,201)"/>
<path d="M0 0 C1.45922693 0.11409593 2.91740598 0.24165544 4.375 0.375 C5.59316406 0.47941406 5.59316406 0.47941406 6.8359375 0.5859375 C9 1 9 1 11 3 C10.67 3.66 10.34 4.32 10 5 C7.69 4.67 5.38 4.34 3 4 C3.33 3.34 3.66 2.68 4 2 C2.68 1.34 1.36 0.68 0 0 Z " fill="#22211E" transform="translate(149,194)"/>
<path d="M0 0 C-0.66 1.32 -1.32 2.64 -2 4 C-4.62834278 4 -7.08186701 3.80210238 -9.6875 3.5 C-10.49574219 3.4071875 -11.30398437 3.314375 -12.13671875 3.21875 C-12.75160156 3.1465625 -13.36648437 3.074375 -14 3 C-14 2.67 -14 2.34 -14 2 C-12.4176994 1.66179834 -10.83410625 1.32964061 -9.25 1 C-8.36828125 0.814375 -7.4865625 0.62875 -6.578125 0.4375 C-4 0 -4 0 0 0 Z " fill="#393938" transform="translate(153,177)"/>
<path d="M0 0 C1.875 0.25 1.875 0.25 4 1 C5.25 3.0625 5.25 3.0625 6 5 C4.02 5.99 4.02 5.99 2 7 C0.5393715 4.35261084 0 3.10551666 0 0 Z " fill="#DEDEDE" transform="translate(149,140)"/>
<path d="M0 0 C0.99 0.495 0.99 0.495 2 1 C3.09889421 6.40289652 3.20409437 9.81389561 1 15 C0.67 15 0.34 15 0 15 C0 10.05 0 5.1 0 0 Z " fill="#E1DFD2" transform="translate(212,85)"/>
<path d="M0 0 C2.64 0 5.28 0 8 0 C8 0.99 8 1.98 8 3 C5.03 3 2.06 3 -1 3 C-0.67 2.01 -0.34 1.02 0 0 Z " fill="#050505" transform="translate(140,180)"/>
<path d="M0 0 C0.66 0 1.32 0 2 0 C2.6875 2.3125 2.6875 2.3125 3 5 C1.5625 6.8125 1.5625 6.8125 0 8 C-0.66 7.34 -1.32 6.68 -2 6 C-1.44444444 1.44444444 -1.44444444 1.44444444 0 0 Z " fill="#131110" transform="translate(167,73)"/>
<path d="M0 0 C0.309375 0.639375 0.61875 1.27875 0.9375 1.9375 C1.8345163 3.93610821 1.8345163 3.93610821 3 5 C3.04092937 7.33297433 3.04241723 9.66705225 3 12 C2.34 12 1.68 12 1 12 C-0.26237731 9.47524538 -0.09856404 7.68799534 -0.0625 4.875 C-0.05347656 3.96492187 -0.04445313 3.05484375 -0.03515625 2.1171875 C-0.02355469 1.41851562 -0.01195313 0.71984375 0 0 Z " fill="#24221B" transform="translate(30,200)"/>
<path d="M0 0 C0.33 0.99 0.66 1.98 1 3 C1.99 2.67 2.98 2.34 4 2 C4.33 2.66 4.66 3.32 5 4 C1.21812119 5.83691257 -0.94568308 6.15837626 -5 5 C-3.35 3.35 -1.7 1.7 0 0 Z " fill="#1B1A17" transform="translate(176,174)"/>
<path d="M0 0 C0.99 0 1.98 0 3 0 C2.34 2.97 1.68 5.94 1 9 C0.01 8.67 -0.98 8.34 -2 8 C-1.34 5.36 -0.68 2.72 0 0 Z " fill="#121110" transform="translate(81,230)"/>
<path d="M0 0 C-2.88035092 2.24027294 -5.84866512 4.16172132 -9 6 C-9 5.34 -9 4.68 -9 4 C-9.66 4 -10.32 4 -11 4 C-10 2 -10 2 -7.75 0.875 C-4.98386705 -0.00513321 -2.87951649 -0.1645438 0 0 Z " fill="#C6C4BD" transform="translate(42,190)"/>
<path d="M0 0 C0.625 1.8125 0.625 1.8125 1 4 C0.01 5.485 0.01 5.485 -1 7 C-1.66 7 -2.32 7 -3 7 C-4.62514468 8.45833358 -4.62514468 8.45833358 -6 10 C-5.690625 9.236875 -5.38125 8.47375 -5.0625 7.6875 C-4.32106407 5.81210323 -3.63771783 3.91315348 -3 2 C-2.01 1.34 -1.02 0.68 0 0 Z " fill="#1E1E1E" transform="translate(179,150)"/>
<path d="M0 0 C0.66 0.33 1.32 0.66 2 1 C1.47731534 3.76276177 0.89130413 6.3260876 0 9 C-0.66 9 -1.32 9 -2 9 C-2.25 3.375 -2.25 3.375 0 0 Z " fill="#1B1B1B" transform="translate(94,83)"/>
<path d="M0 0 C0.99 0.99 1.98 1.98 3 3 C-0.625 6 -0.625 6 -4 6 C-2.25 1.125 -2.25 1.125 0 0 Z " fill="#EAEAEA" transform="translate(125,234)"/>
<path d="M0 0 C0.33 0 0.66 0 1 0 C0.93999894 1.6260287 0.8512115 3.25101549 0.75 4.875 C0.70359375 5.77992188 0.6571875 6.68484375 0.609375 7.6171875 C0 10 0 10 -2.046875 11.3203125 C-2.69140625 11.54460937 -3.3359375 11.76890625 -4 12 C-2.66666667 8 -1.33333333 4 0 0 Z " fill="#D0D0D0" transform="translate(117,224)"/>
<path d="M0 0 C1.32 0.66 2.64 1.32 4 2 C4 5 4 5 3 8 C0.9375 5.6875 0.9375 5.6875 -1 3 C-0.67 2.01 -0.34 1.02 0 0 Z " fill="#1D1D1D" transform="translate(96,158)"/>
<path d="M0 0 C0.33 0 0.66 0 1 0 C1.28571429 8.57142857 1.28571429 8.57142857 -1 12 C-1.33 12 -1.66 12 -2 12 C-2.17835515 7.45194365 -1.99785435 4.1205746 0 0 Z " fill="#DADADA" transform="translate(158,223)"/>
<path d="M0 0 C0.66 0 1.32 0 2 0 C2 2.64 2 5.28 2 8 C0.35 7.67 -1.3 7.34 -3 7 C-2.01 4.69 -1.02 2.38 0 0 Z " fill="#424242" transform="translate(124,221)"/>
<path d="M0 0 C2.475 0.99 2.475 0.99 5 2 C5.33 1.34 5.66 0.68 6 0 C6.33 1.65 6.66 3.3 7 5 C4.625 4.75 4.625 4.75 2 4 C0.6875 1.9375 0.6875 1.9375 0 0 Z " fill="#26261E" transform="translate(47,213)"/>
<path d="M0 0 C0.66 0 1.32 0 2 0 C0.41037341 4.03520597 -1.28232318 8.01811282 -3 12 C-3.88336837 9.5332355 -4.1312406 8.36140628 -3.22265625 5.859375 C-2.83980469 5.16328125 -2.45695312 4.4671875 -2.0625 3.75 C-1.68222656 3.04359375 -1.30195312 2.3371875 -0.91015625 1.609375 C-0.60980469 1.07828125 -0.30945313 0.5471875 0 0 Z " fill="#C5C5C5" transform="translate(97,205)"/>
<path d="M0 0 C0.66 0.33 1.32 0.66 2 1 C0.68 3.64 -0.64 6.28 -2 9 C-2.99 7.68 -3.98 6.36 -5 5 C-3.35 3.35 -1.7 1.7 0 0 Z " fill="#D0CFC7" transform="translate(39,201)"/>
<path d="M0 0 C0.33 0 0.66 0 1 0 C0.67 2.97 0.34 5.94 0 9 C-1.65 9 -3.3 9 -5 9 C-4.360625 8.071875 -3.72125 7.14375 -3.0625 6.1875 C-0.91377907 3.15780057 -0.91377907 3.15780057 0 0 Z " fill="#353634" transform="translate(144,237)"/>
<path d="M0 0 C0 3 0 3 -2.5 5.6875 C-3.325 6.450625 -4.15 7.21375 -5 8 C-6.98 7.34 -8.96 6.68 -11 6 C-11 5.67 -11 5.34 -11 5 C-9.1128125 4.5978125 -9.1128125 4.5978125 -7.1875 4.1875 C-4.00551199 3.40467463 -1.99755689 2.74664072 0 0 Z " fill="#1E1D19" transform="translate(183,72)"/>
<path d="M0 0 C0.99 0.33 1.98 0.66 3 1 C2.01 2.485 2.01 2.485 1 4 C0.34 4 -0.32 4 -1 4 C-1 4.66 -1 5.32 -1 6 C-2.98 6 -4.96 6 -7 6 C-7 5.67 -7 5.34 -7 5 C-5.35 5 -3.7 5 -2 5 C-1.855625 4.360625 -1.71125 3.72125 -1.5625 3.0625 C-1 1 -1 1 0 0 Z " fill="#D5D5D0" transform="translate(146,241)"/>
<path d="M0 0 C4.875 2.625 4.875 2.625 6 6 C3.0625 5.1875 3.0625 5.1875 0 4 C-0.33 3.01 -0.66 2.02 -1 1 C-0.67 0.67 -0.34 0.34 0 0 Z " fill="#151515" transform="translate(114,92)"/>
<path d="M0 0 C0.66 0.99 1.32 1.98 2 3 C0.35 4.32 -1.3 5.64 -3 7 C-3 3 -3 3 -1.5 1.25 C-1.005 0.8375 -0.51 0.425 0 0 Z " fill="#E1E1E1" transform="translate(102,199)"/>
<path d="M0 0 C0.33 0.99 0.66 1.98 1 3 C-0.4375 5.1875 -0.4375 5.1875 -2 7 C-3.32 6.67 -4.64 6.34 -6 6 C-4 4 -2 2 0 0 Z " fill="#0D0D0D" transform="translate(177,155)"/>
<path d="M0 0 C2.64 1.32 5.28 2.64 8 4 C4.06329512 5.31223496 1.87511856 4.24296256 -2 3 C-1.34 2.67 -0.68 2.34 0 2 C0 1.34 0 0.68 0 0 Z " fill="#C0C0BA" transform="translate(52,154)"/>
<path d="M0 0 C0.33 0.66 0.66 1.32 1 2 C1.66 2 2.32 2 3 2 C3 4.31 3 6.62 3 9 C2.34 7.68 1.68 6.36 1 5 C0.01 5 -0.98 5 -2 5 C-1.34 3.35 -0.68 1.7 0 0 Z " fill="#222222" transform="translate(104,92)"/>
<path d="M0 0 C1.32 0.33 2.64 0.66 4 1 C3.34 2.65 2.68 4.3 2 6 C1.34 6 0.68 6 0 6 C0 4.02 0 2.04 0 0 Z " fill="#DEDACD" transform="translate(205,87)"/>
<path d="M0 0 C0.33 1.32 0.66 2.64 1 4 C1.66 4 2.32 4 3 4 C2.625 6.4375 2.625 6.4375 2 9 C1.01 9.495 1.01 9.495 0 10 C0 6.7 0 3.4 0 0 Z " fill="#E2E2E2" transform="translate(120,218)"/>
<path d="M0 0 C1.45792884 -0.05399736 2.91642712 -0.09279177 4.375 -0.125 C5.18710938 -0.14820313 5.99921875 -0.17140625 6.8359375 -0.1953125 C9 0 9 0 11 2 C6.74938644 3.41687119 4.28148375 2.19320039 0 1 C0 0.67 0 0.34 0 0 Z " fill="#201D18" transform="translate(182,201)"/>
<path d="M0 0 C1.98 0.66 3.96 1.32 6 2 C6 2.99 6 3.98 6 5 C4.02 5 2.04 5 0 5 C0 3.35 0 1.7 0 0 Z " fill="#302F30" transform="translate(143,194)"/>
<path d="M0 0 C2.97 0.495 2.97 0.495 6 1 C6 1.99 6 2.98 6 4 C2.89448334 4 1.64738916 3.4606285 -1 2 C-0.67 1.34 -0.34 0.68 0 0 Z " fill="#CAC7C1" transform="translate(61,181)"/>
<path d="M0 0 C0.99 0 1.98 0 3 0 C3.66 1.32 4.32 2.64 5 4 C3.68 3.67 2.36 3.34 1 3 C0.67 3.66 0.34 4.32 0 5 C-0.66 4.67 -1.32 4.34 -2 4 C-1.34 2.68 -0.68 1.36 0 0 Z " fill="#E9E9E9" transform="translate(83,148)"/>
<path d="M0 0 C2 4 2 4 2 8 C1.34 8 0.68 8 0 8 C-0.33 8.66 -0.66 9.32 -1 10 C-0.67 6.7 -0.34 3.4 0 0 Z " fill="#2C2C2C" transform="translate(140,96)"/>
<path d="M0 0 C0.66 0 1.32 0 2 0 C2 3.96 2 7.92 2 12 C1.67 12 1.34 12 1 12 C0.77213542 10.01432292 0.54427083 8.02864583 0.31640625 6.04296875 C0.02829265 3.80603607 0.02829265 3.80603607 -1 1 C-0.67 0.67 -0.34 0.34 0 0 Z " fill="#21211A" transform="translate(210,86)"/>
<path d="M0 0 C1.32 1.65 2.64 3.3 4 5 C3.67 5.66 3.34 6.32 3 7 C2.01 7 1.02 7 0 7 C-1.125 2.25 -1.125 2.25 0 0 Z " fill="#1E1D1B" transform="translate(160,208)"/>
<path d="M0 0 C2.31 0 4.62 0 7 0 C6.67 1.32 6.34 2.64 6 4 C4.02 3.01 2.04 2.02 0 1 C0 0.67 0 0.34 0 0 Z " fill="#2A2721" transform="translate(59,178)"/>
<path d="M0 0 C0 0.33 0 0.66 0 1 C-4.455 1.495 -4.455 1.495 -9 2 C-8.67 1.01 -8.34 0.02 -8 -1 C-4.37673261 -2.2077558 -3.35853631 -1.54311128 0 0 Z " fill="#222222" transform="translate(183,134)"/>
<path d="M0 0 C0.66 0.33 1.32 0.66 2 1 C2.625 3.0625 2.625 3.0625 3 5 C1.02 5.66 -0.96 6.32 -3 7 C-2.01 4.69 -1.02 2.38 0 0 Z " fill="#C7C5BE" transform="translate(198,128)"/>
<path d="M0 0 C0.33 0 0.66 0 1 0 C1.125 2.375 1.125 2.375 1 5 C0.34 5.66 -0.32 6.32 -1 7 C-1.99 7 -2.98 7 -4 7 C-3.67 6.01 -3.34 5.02 -3 4 C-2.34 4 -1.68 4 -1 4 C-0.67 2.68 -0.34 1.36 0 0 Z " fill="#CFCFCF" transform="translate(190,97)"/>
<path d="M0 0 C2.125 0.9375 2.125 0.9375 4 2 C3.67 3.32 3.34 4.64 3 6 C3 5.34 3 4.68 3 4 C2.01 4 1.02 4 0 4 C0 3.34 0 2.68 0 2 C-0.66 1.67 -1.32 1.34 -2 1 C-1.34 0.67 -0.68 0.34 0 0 Z " fill="#1E1E1E" transform="translate(186,93)"/>
</svg>
