<svg width="48" height="48" viewBox="0 0 48 48" fill="none" xmlns="http://www.w3.org/2000/svg">
    <g clip-path="url(#clip0_3332_4220)">
        <path d="M24 48C37.3001 48 48 37.3001 48 24C48 10.6999 37.3001 0 24 0C10.6999 0 0 10.6999 0 24C0 37.3001 10.6999 48 24 48Z" fill="#051212"/>
        <path d="M24 48C37.3001 48 48 37.3001 48 24C48 10.6999 37.3001 0 24 0C10.6999 0 0 10.6999 0 24C0 37.3001 10.6999 48 24 48Z" fill="url(#paint0_linear_3332_4220)"/>
        <path d="M3.6 24C3.6 29.5228 5.80959 34.5151 9.36855 38.1803L9.71718 38.5307C13.3742 42.1212 18.2562 44.2632 23.4926 44.3936L24 44.4C29.2579 44.4 34.1897 42.3701 37.9248 38.8734L38.2822 38.5307C42.045 34.8365 44.4 29.7009 44.4 24C44.4 18.2991 42.045 13.1636 38.2822 9.46934L37.9248 9.12656C34.1897 5.63015 29.2579 3.6 24 3.6L24 3L24.5232 3.00645C29.7409 3.13644 34.6153 5.20706 38.3344 8.68828L38.7029 9.04102C42.4537 12.7235 44.8471 17.801 44.993 23.4516L45 24C45 29.6866 42.7238 34.8265 39.0615 38.598L38.7029 38.9584C34.8189 42.7718 29.5891 45 24 45L23.4773 44.9936C18.0851 44.8593 13.0597 42.6527 9.29707 38.9584C5.42547 35.1572 2.99999 29.8701 2.99999 24L3.00703 23.4516C3.15291 17.801 5.54643 12.7235 9.29707 9.04102L9.66504 8.68828C13.5081 5.09077 18.5852 3.00005 24 3L24 3.6C18.5721 3.60006 13.4921 5.76301 9.71719 9.46933L9.36855 9.81973C5.80962 13.485 3.6 18.4773 3.6 24Z" fill="url(#paint1_linear_3332_4220)"/>
        <path d="M0.600001 24C0.6 30.3352 3.13485 36.0616 7.21699 40.2656L7.6166 40.6676C11.8111 44.7859 17.4109 47.2434 23.4176 47.393L24 47.4C30.0315 47.4 35.6885 45.0713 39.9727 41.0607L40.3828 40.6676C44.6987 36.4303 47.4 30.5395 47.4 24C47.4 17.4606 44.6987 11.5697 40.3828 7.33242L39.9727 6.93926C35.6885 2.92889 30.0315 0.600001 24 0.6L24 1.71655e-06L24.5977 0.00761972C30.5609 0.156104 36.1317 2.52231 40.3822 6.50098L40.8029 6.9041C45.0895 11.1126 47.825 16.9153 47.9918 23.373L48 24C48 30.499 45.3985 36.3731 41.2131 40.6834L40.8029 41.0959C36.3641 45.454 30.3875 48 24 48L23.4023 47.9924C17.24 47.8389 11.4965 45.3177 7.19648 41.0959C2.7718 36.7517 1.51166e-06 30.7086 2.09815e-06 24L0.00820375 23.373C0.174964 16.9154 2.91008 11.1126 7.19649 6.9041L7.61719 6.50098C12.0093 2.38951 17.8117 6.22107e-05 24 1.71655e-06L24 0.6C17.7736 0.600064 11.9464 3.08131 7.6166 7.33242L7.21699 7.73438C3.13489 11.9384 0.600001 17.6649 0.600001 24Z" fill="#21F1A6"/>
        <path d="M45 24C45 18.319 42.7293 13.1827 39.0615 9.40548L38.7024 9.04454C34.9322 5.34283 29.9072 3.14048 24.5221 3.00645L24 3.00001C18.5932 3.00001 13.5176 5.08629 9.66739 8.69063L9.29825 9.04454C5.41996 12.8522 3.00001 18.136 3.00001 24C3.00001 29.8639 5.41959 35.1477 9.29766 38.9555H9.29825C13.1902 42.7764 18.4188 45 24 45V47.4L23.417 47.393C17.6029 47.2481 12.1715 44.9405 8.02735 41.0613L7.61719 40.6682C3.30298 36.4325 0.600006 30.5409 0.600006 24C0.600006 17.6634 3.13674 11.9364 7.21758 7.7338L7.61719 7.33184C11.9451 3.08262 17.7721 0.600015 24 0.600006L24.5824 0.607037C30.5909 0.756656 36.1908 3.2154 40.3834 7.33184C44.6975 11.5674 47.4 17.4591 47.4 24C47.4 30.5409 44.6975 36.4325 40.3834 40.6682L39.9733 41.0613C35.6909 45.0701 30.0337 47.3999 24 47.4V45C29.5819 44.9999 34.8106 42.7771 38.7024 38.9561L39.0615 38.5945C42.7293 34.8173 45 29.6809 45 24Z" fill="url(#paint2_linear_3332_4220)"/>
        <path d="M23.9998 8.39999C28.1521 8.39999 32.0371 10.055 34.9224 12.8878C37.7984 15.7116 39.6 19.6394 39.6 24C39.6 28.3606 37.7984 32.2885 34.9224 35.1122C32.0371 37.9451 28.1521 39.6 23.9998 39.6C19.8479 39.6 15.9633 37.9449 13.078 35.1122C10.2019 32.2885 8.39999 28.3606 8.39999 24C8.39999 19.6394 10.2019 15.7116 13.078 12.8878C15.9633 10.055 19.8479 8.4 23.9998 8.39999Z" fill="#051212"/>
        <path d="M33.363 24.1751C33.3803 25.7354 33.0545 27.2263 32.4145 28.6508C31.5005 30.6792 29.3094 32.3378 27.3085 30.5723C25.6767 29.1333 25.374 26.2121 22.9292 25.7845C19.6944 25.3915 19.6165 29.1507 17.5033 29.5754C15.1478 30.0551 14.3665 26.085 14.4011 24.282C14.4357 22.479 14.9143 19.9449 16.9613 19.9449C19.3167 19.9449 19.4753 23.5192 22.465 23.3256C25.4259 23.1233 25.4778 19.4046 27.4123 17.8125C29.0816 16.4372 31.045 17.4456 32.0281 19.1012C32.9392 20.6326 33.3399 22.4299 33.3601 24.1751H33.363Z" fill="#21F1A6"/>
        <path d="M39 24C39 19.9396 37.3756 16.2692 34.7584 13.5738L34.5018 13.316C31.8123 10.6755 28.223 9.10054 24.3732 9.00468L24 8.99999C20.1343 9 16.5082 10.4925 13.7613 13.0641L13.4982 13.316C10.7311 16.0328 8.99999 19.8086 8.99999 24C8.99999 28.1914 10.7311 31.9672 13.4982 34.684L13.7613 34.9365C16.5082 37.5078 20.1345 39 24 39V39.6L23.6115 39.5953C19.7353 39.4988 16.114 37.9605 13.3512 35.3742L13.0781 35.1123C10.2919 32.3768 8.51375 28.6052 8.40527 24.4078L8.39999 24C8.39999 19.7757 10.0911 15.9577 12.8115 13.156L13.0781 12.8877C15.9634 10.0549 19.8481 8.4 24 8.39999L24.3885 8.40468C28.394 8.50448 32.1274 10.1434 34.9225 12.8877C37.7985 15.7114 39.6 19.6394 39.6 24L39.5947 24.4072C39.4864 28.6048 37.7087 32.3767 34.9225 35.1123L34.6488 35.3742C31.7939 38.0467 28.0225 39.6 24 39.6V39C27.9906 39 31.7256 37.4097 34.5018 34.684L34.7584 34.4262C37.3755 31.7308 39 28.0604 39 24Z" fill="url(#paint3_linear_3332_4220)"/>
    </g>
    <defs>
        <linearGradient id="paint0_linear_3332_4220" x1="0" y1="24" x2="48" y2="24" gradientUnits="userSpaceOnUse">
            <stop stop-color="#97FCE4"/>
            <stop offset="1" stop-color="#97FCE4" stop-opacity="0.2"/>
        </linearGradient>
        <linearGradient id="paint1_linear_3332_4220" x1="2.04687" y1="24.5407" x2="41.4027" y2="24.5407" gradientUnits="userSpaceOnUse">
            <stop stop-color="#21F1A6" stop-opacity="0.6"/>
            <stop offset="1" stop-color="#21F1A6" stop-opacity="0.2"/>
        </linearGradient>
        <linearGradient id="paint2_linear_3332_4220" x1="48.4621" y1="23.3975" x2="-30.6" y2="23.3975" gradientUnits="userSpaceOnUse">
            <stop stop-color="#051212"/>
            <stop offset="1" stop-color="#051212" stop-opacity="0.76"/>
        </linearGradient>
        <linearGradient id="paint3_linear_3332_4220" x1="40.308" y1="23.5983" x2="11.0723" y2="23.5983" gradientUnits="userSpaceOnUse">
            <stop stop-color="#21F1A6"/>
            <stop offset="1" stop-color="#21F1A6" stop-opacity="0"/>
        </linearGradient>
        <clipPath id="clip0_3332_4220">
            <rect width="48" height="48" fill="white"/>
        </clipPath>
    </defs>
</svg>
