<?xml version="1.0" encoding="UTF-8"?>
<svg version="1.1" xmlns="http://www.w3.org/2000/svg" width="512" height="512">
<path d="M0 0 C168.96 0 337.92 0 512 0 C512 168.96 512 337.92 512 512 C343.04 512 174.08 512 0 512 C0 343.04 0 174.08 0 0 Z " fill="#06231F" transform="translate(0,0)"/>
<path d="M0 0 C1.28970703 -0.01611328 2.57941406 -0.03222656 3.90820312 -0.04882812 C26.47922768 -0.06024493 45.4267353 9.69612725 62.1875 24.3125 C63.0434375 25.04597656 63.899375 25.77945313 64.78125 26.53515625 C77.86146392 37.98034343 88.29191632 51.5046382 97.5625 66.125 C98.06241455 66.91318115 98.5623291 67.7013623 99.07739258 68.51342773 C107.1875 81.51725859 107.1875 81.51725859 107.1875 85.3125 C107.8475 85.3125 108.5075 85.3125 109.1875 85.3125 C109.44402344 84.45785156 109.70054687 83.60320312 109.96484375 82.72265625 C121.31606627 51.0625372 151.82899544 20.03862199 181.92578125 5.71484375 C200.90173493 -2.44368005 227.85381127 -3.14791457 247.1875 4.3125 C248.82912109 4.87324219 248.82912109 4.87324219 250.50390625 5.4453125 C262.14807078 9.59706892 272.78924966 15.26408813 282.1875 23.3125 C282.99832031 23.97894531 283.80914062 24.64539063 284.64453125 25.33203125 C300.59339167 38.92898598 312.6602582 59.48682829 314.38037109 80.68994141 C315.188979 105.52155504 310.00727815 127.39441289 293.1875 146.3125 C292.60871094 147.0446875 292.02992188 147.776875 291.43359375 148.53125 C277.52581125 165.59306525 256.91716702 173.93984993 236.1875 179.3125 C235.5996875 179.49063232 235.011875 179.66876465 234.40625 179.85229492 C212.66614021 184.36154965 188.30637906 180.54153966 169.85058594 168.44238281 C144.01571234 150.89044579 122.22016952 125.82146458 109.1875 97.3125 C109.1875 96.6525 109.1875 95.9925 109.1875 95.3125 C108.5275 95.3125 107.8675 95.3125 107.1875 95.3125 C106.92710937 96.17230469 106.66671875 97.03210938 106.3984375 97.91796875 C95.43505239 128.65081283 66.07032513 158.92015226 37.1875 173.3125 C24.69547244 178.90892835 13.39069097 180.72580672 -0.25 180.75 C-1.23654068 180.75259827 -1.23654068 180.75259827 -2.24301147 180.75524902 C-13.75534503 180.7419757 -23.99279495 179.24074549 -34.8125 175.3125 C-35.70066406 174.99023438 -36.58882812 174.66796875 -37.50390625 174.3359375 C-39.68715815 173.43764065 -41.72894201 172.42197582 -43.8125 171.3125 C-44.83601563 170.79816406 -45.85953125 170.28382813 -46.9140625 169.75390625 C-53.80695552 166.19653962 -59.92535253 162.35409667 -65.8125 157.3125 C-66.62332031 156.64605469 -67.43414062 155.97960937 -68.26953125 155.29296875 C-83.18526679 142.57678868 -94.90467168 122.9500339 -97.8125 103.3125 C-99.76682639 78.20860786 -94.72606989 56.18795451 -78.8125 36.3125 C-78.10867187 35.43335938 -77.40484375 34.55421875 -76.6796875 33.6484375 C-62.94732442 17.55936524 -44.28850207 7.0941791 -23.8125 2.3125 C-23.18883545 2.13662354 -22.5651709 1.96074707 -21.92260742 1.77954102 C-14.67377117 -0.12075421 -7.45386487 -0.0184593 0 0 Z " fill="#7EF9DD" transform="translate(147.8125,165.6875)"/>
<path d="M0 0 C6.46006631 5.0264386 12.60814535 10.36280335 18.65625 15.875 C20.80692711 17.82494724 22.98824971 19.73026129 25.1875 21.625 C41.17875795 35.59326748 41.17875795 35.59326748 45 44 C31 58 31 58 28.66796875 60.3203125 C26.96197257 62.03380207 25.27029254 63.7617434 23.59765625 65.5078125 C17.06810588 72.24864262 10.14463307 78.1197416 2.64746094 83.75830078 C1.16383752 84.87651487 -0.30572981 86.0133199 -1.7734375 87.15234375 C-13.82186039 96.28815991 -26.4516163 102.90598248 -41 107 C-41.65613281 107.20238281 -42.31226563 107.40476562 -42.98828125 107.61328125 C-61.98150706 111.26440621 -82.54578483 104.90595909 -98.26000977 94.3840332 C-110.37971741 85.97590921 -118.73096693 75.91104564 -124 62 C-124.3196875 61.17371094 -124.639375 60.34742188 -124.96875 59.49609375 C-129.52716622 45.67311864 -127.94256955 31.07065171 -122 18 C-112.32506885 -0.38706576 -95.53084184 -13.24974969 -75.79296875 -19.390625 C-47.23417429 -27.32527445 -22.82168293 -17.32248222 0 0 Z " fill="#06231F" transform="translate(209,213)"/>
<path d="M0 0 C0.79921875 0.60457031 1.5984375 1.20914063 2.421875 1.83203125 C14.32585033 11.58097656 22.4502615 25.68933045 24 41 C25.41250255 60.0593678 20.22110996 74.55008708 7.6875 89.25 C-7.05722232 104.96281015 -28.07080835 112.46548136 -49.21337891 113.38989258 C-78.71675422 114.03967326 -104.68350709 90.87870489 -125 72 C-129.10224842 68.04034264 -133.11047376 63.98567106 -137.125 59.9375 C-138.18726206 58.87020583 -139.24976083 57.80314722 -140.3125 56.73632812 C-142.87772359 54.16025075 -145.4397678 51.58103929 -148 49 C-146.38512829 44.96612372 -143.53221834 42.24319138 -140.50390625 39.23828125 C-139.95572739 38.68818893 -139.40754852 38.13809662 -138.84275818 37.57133484 C-137.67928785 36.40650491 -136.51329357 35.24419129 -135.3449707 34.08422852 C-133.59293643 32.342753 -131.85164059 30.59107046 -130.11132812 28.83789062 C-123.38445556 22.10262909 -116.50242804 15.87332051 -109 10 C-107.8690264 9.08427768 -106.73868439 8.16777391 -105.609375 7.25 C-73.40878891 -18.0881661 -34.72790474 -26.65519004 0 0 Z " fill="#06231F" transform="translate(406,208)"/>
</svg>
