<svg width="80" height="80" viewBox="0 0 80 80" fill="none" xmlns="http://www.w3.org/2000/svg">
    <g clip-path="url(#clip0_50_85)">
        <path d="M40.0008 0.719452H39.9993C18.3056 0.719452 0.719414 18.3056 0.719414 39.9993V40.0008C0.719414 61.6945 18.3056 79.2806 39.9993 79.2806H40.0008C61.6944 79.2806 79.2806 61.6945 79.2806 40.0008V39.9993C79.2806 18.3056 61.6944 0.719452 40.0008 0.719452Z" fill="#111111"/>
        <path fill-rule="evenodd" clip-rule="evenodd" d="M40.0008 2.1403H39.9993C19.0903 2.1403 2.14027 19.0904 2.14027 39.9993V40.0008C2.14027 60.9097 19.0903 77.8598 39.9993 77.8598H40.0008C60.9097 77.8598 77.8598 60.9097 77.8598 40.0008V39.9993C77.8598 19.0904 60.9097 2.1403 40.0008 2.1403ZM39.9993 0.719452H40.0008C61.6944 0.719452 79.2806 18.3056 79.2806 39.9993V40.0008C79.2806 61.6945 61.6944 79.2806 40.0008 79.2806H39.9993C18.3056 79.2806 0.719414 61.6945 0.719414 40.0008V39.9993C0.719414 18.3056 18.3056 0.719452 39.9993 0.719452Z" fill="#111111"/>
        <path d="M40.0008 0.719452H39.9993C18.3056 0.719452 0.719414 18.3056 0.719414 39.9993V40.0008C0.719414 61.6945 18.3056 79.2806 39.9993 79.2806H40.0008C61.6944 79.2806 79.2806 61.6945 79.2806 40.0008V39.9993C79.2806 18.3056 61.6944 0.719452 40.0008 0.719452Z" fill="url(#paint0_radial_50_85)" fill-opacity="0.7"/>
        <path fill-rule="evenodd" clip-rule="evenodd" d="M39.9993 1.43884C18.7029 1.43884 1.43884 18.7029 1.43884 39.9993C1.43884 61.2956 18.7029 78.5612 39.9993 78.5612C61.2956 78.5612 78.5612 61.2971 78.5612 40.0008C78.5612 18.7044 61.2956 1.43884 39.9993 1.43884ZM0 39.9993C0 17.9083 17.9083 0 39.9993 0C62.0903 0 80 17.9083 80 39.9993C80 62.0903 62.0917 80 40.0008 80C17.9098 80 0 62.0903 0 39.9993Z" fill="url(#paint1_linear_50_85)"/>
        <path fill-rule="evenodd" clip-rule="evenodd" d="M33.7152 7.68082C18.5455 10.6028 7.08668 23.949 7.08668 39.9715C7.08668 55.9941 18.5455 69.3403 33.7152 72.2622V69.1802C20.2249 66.3045 10.1067 54.3196 10.1067 39.9715C10.1067 25.6234 20.2249 13.6386 33.7152 10.7629V7.68082ZM46.285 10.7749V7.69173C61.4267 10.6359 72.8571 23.9688 72.8571 39.9715C72.8571 55.9742 61.4267 69.3072 46.285 72.2513V69.1681C59.7471 66.2711 69.837 54.2996 69.837 39.9715C69.837 25.6434 59.7471 13.672 46.285 10.7749Z" fill="white"/>
        <path d="M44.657 38.8727C47.1661 39.3509 49.1123 40.2732 50.4955 41.6395C51.8788 42.9716 52.5704 44.6794 52.5704 46.763V50.0421C52.5704 52.5356 51.6697 54.5508 49.8682 56.0879C48.0668 57.5908 45.7024 58.3423 42.7751 58.3423H41.7618V63.5683H38.2876V58.3423H37.2261C35.296 58.3423 33.591 57.9153 32.1113 57.0614C30.6316 56.1733 29.4735 54.9436 28.6371 53.3724C27.8329 51.767 27.4308 49.9225 27.4308 47.839H30.905C30.905 49.9567 31.484 51.6816 32.6421 53.0138C33.8323 54.3117 35.3925 54.9607 37.3226 54.9607H42.6786C44.5765 54.9607 46.1045 54.5167 47.2626 53.6286C48.4207 52.7063 48.9997 51.5108 48.9997 50.0421V46.763C48.9997 45.6017 48.5654 44.6111 47.6969 43.7914C46.8605 42.9716 45.7024 42.4422 44.2227 42.2031L35.5372 40.666C33.0924 40.222 31.1945 39.2997 29.8434 37.8993C28.4924 36.4988 27.8168 34.7397 27.8168 32.622V29.8553C27.8168 27.3618 28.6854 25.3807 30.4225 23.912C32.1917 22.4091 34.5239 21.6576 37.4191 21.6576H38.2876V16.4316H41.7618V21.6576H42.8716C45.6059 21.6576 47.8095 22.5457 49.4822 24.3219C51.155 26.0639 51.9913 28.3695 51.9913 31.2387H48.5172C48.5172 29.36 48.0025 27.8571 46.9731 26.7299C45.9437 25.6027 44.5765 25.0392 42.8716 25.0392H37.4191C35.5855 25.0392 34.1218 25.4832 33.0281 26.3713C31.9344 27.2252 31.3875 28.3865 31.3875 29.8553V32.622C31.3875 33.8175 31.7896 34.8251 32.5938 35.6449C33.4302 36.4647 34.5722 37.0112 36.0198 37.2844L44.657 38.8727Z" fill="white"/>
    </g>
    <defs>
        <radialGradient id="paint0_radial_50_85" cx="0" cy="0" r="1" gradientUnits="userSpaceOnUse" gradientTransform="translate(40.0844 12.1904) rotate(90) scale(82.8205 58.2973)">
            <stop offset="0.03125" stop-color="#3A3A3A"/>
            <stop offset="1" stop-color="#1C1C1C"/>
        </radialGradient>
        <linearGradient id="paint1_linear_50_85" x1="40" y1="-0.0217319" x2="40" y2="80.0218" gradientUnits="userSpaceOnUse">
            <stop stop-color="white"/>
            <stop offset="1" stop-color="#111111"/>
        </linearGradient>
        <clipPath id="clip0_50_85">
            <rect width="80" height="80" fill="white"/>
        </clipPath>
    </defs>
</svg>
