<svg width="48" height="48" viewBox="0 0 48 48" fill="none" xmlns="http://www.w3.org/2000/svg">
    <g clip-path="url(#clip0_3980_4775)">
        <path d="M48 24C48 37.2548 37.2548 48 24 48C10.7452 48 0 37.2548 0 24C0 10.7452 10.7452 0 24 0C37.2548 0 48 10.7452 48 24Z" fill="#051212"/>
        <g clip-path="url(#clip1_3980_4775)">
            <path d="M13.132 18.8833C14.0182 18.8833 14.8524 19.4014 15.4777 20.3032C16.1022 21.2039 16.4982 22.4648 16.4982 23.8716C16.4981 25.2782 16.1021 26.5383 15.4777 27.439C14.8524 28.3408 14.0183 28.8589 13.132 28.8589C12.2457 28.8588 11.4115 28.3408 10.7863 27.439C10.1619 26.5383 9.76581 25.2781 9.76575 23.8716C9.76575 22.4648 10.1618 21.2039 10.7863 20.3032C11.4115 19.4014 12.2457 18.8834 13.132 18.8833Z" fill="#21F1A6" stroke="#051212" stroke-width="0.6"/>
            <path d="M18.4442 16.575C19.792 16.575 21.0439 17.363 21.9716 18.7009C22.8985 20.0378 23.4813 21.9011 23.4813 23.9734C23.4813 26.0456 22.8984 27.909 21.9716 29.2458C21.0439 30.5836 19.7918 31.3708 18.4442 31.3708C17.0966 31.3707 15.8445 30.5837 14.9169 29.2458C13.99 27.909 13.4072 26.0456 13.4071 23.9734C13.4071 21.9012 13.9901 20.0378 14.9169 18.7009C15.8445 17.363 17.0966 16.5751 18.4442 16.575Z" fill="#21F1A6" stroke="#051212" stroke-width="0.6"/>
            <path d="M26.0759 13.4944C28.058 13.4945 29.8821 14.6301 31.2224 16.5247C32.5622 18.4185 33.4001 21.0508 33.4001 23.9719C33.4001 26.8931 32.5623 29.5253 31.2224 31.4192C29.8821 33.3137 28.058 34.4483 26.0759 34.4485C24.0939 34.4485 22.2699 33.3137 20.9294 31.4192C19.5896 29.5253 18.7508 26.8932 18.7507 23.9719C18.7507 21.0506 19.5895 18.4186 20.9294 16.5247C22.2699 14.63 24.0938 13.4944 26.0759 13.4944Z" fill="#21F1A6" stroke="#051212" stroke-width="0.6"/>
            <path d="M31.1676 11.1001L31.2623 11.1011H31.2653L31.4655 11.1099C33.3936 11.2333 35.1024 12.5312 36.3776 14.5112L36.6344 14.9312L36.6354 14.9321L36.6979 15.0396V15.0405C38.0252 17.3594 38.8346 20.5121 38.8346 23.9731C38.8346 27.4342 38.0252 30.5868 36.6979 32.9058V32.9067L36.6354 33.0142L36.6344 33.0161C35.2733 35.3379 33.349 36.8462 31.1637 36.8462C29.0128 36.846 27.115 35.3839 25.7584 33.1245L25.7574 33.1226L25.694 33.0171V33.0161C24.3287 30.6872 23.4938 27.489 23.4938 23.9731C23.4938 20.4574 24.3288 17.26 25.694 14.9312V14.9302L25.7574 14.8237L25.7584 14.8218C27.115 12.5623 29.0129 11.1003 31.1637 11.1001H31.1676ZM31.1627 12.3462C29.6196 12.3468 28.0585 13.4037 26.8209 15.4653L26.8199 15.4644L26.7614 15.5649C25.5273 17.6708 24.734 20.6412 24.734 23.9731C24.734 27.3054 25.5271 30.2764 26.7614 32.3823L26.8199 32.4819H26.8209C28.0588 34.5436 29.6204 35.5999 31.1637 35.6001C32.7318 35.6001 34.3195 34.5097 35.566 32.3833L35.6246 32.2827C36.8259 30.1831 37.5944 27.2529 37.5944 23.9731C37.5943 20.6927 36.8254 17.7623 35.6237 15.6626V15.6616L35.5651 15.562V15.561C34.3383 13.4694 32.7809 12.3806 31.2379 12.3472V12.3462H31.1627Z" fill="#21F1A6" stroke="#051212" stroke-width="0.6"/>
        </g>
        <path d="M3.6 24C3.6 29.5228 5.80959 34.5151 9.36855 38.1803L9.71718 38.5307C13.3742 42.1212 18.2562 44.2632 23.4926 44.3936L24 44.4C29.2579 44.4 34.1897 42.3701 37.9248 38.8734L38.2822 38.5307C42.045 34.8365 44.4 29.7009 44.4 24C44.4 18.2991 42.045 13.1636 38.2822 9.46934L37.9248 9.12656C34.1897 5.63014 29.2579 3.6 24 3.6L24 3L24.5232 3.00645C29.7409 3.13644 34.6153 5.20706 38.3344 8.68828L38.7029 9.04102C42.4537 12.7235 44.8471 17.801 44.993 23.4516L45 24C45 29.6866 42.7238 34.8265 39.0615 38.598L38.7029 38.9584C34.8189 42.7718 29.5891 45 24 45L23.4773 44.9936C18.0851 44.8593 13.0597 42.6527 9.29707 38.9584C5.42547 35.1572 3 29.8701 3 24L3.00703 23.4516C3.15291 17.801 5.54643 12.7235 9.29707 9.04101L9.66504 8.68828C13.5081 5.09077 18.5852 3.00005 24 3L24 3.6C18.5721 3.60006 13.4921 5.76301 9.71719 9.46933L9.36855 9.81973C5.80962 13.485 3.6 18.4773 3.6 24Z" fill="url(#paint0_linear_3980_4775)"/>
        <path d="M0.599996 24C0.599995 30.3352 3.13485 36.0616 7.21699 40.2656L7.6166 40.6676C11.8111 44.7859 17.4109 47.2434 23.4176 47.393L24 47.4C30.0315 47.4 35.6885 45.0713 39.9727 41.0607L40.3828 40.6676C44.6987 36.4303 47.4 30.5395 47.4 24C47.4 17.4606 44.6987 11.5697 40.3828 7.33242L39.9727 6.93926C35.6885 2.92889 30.0315 0.600001 24 0.600001L24 7.62876e-07L24.5977 0.007618C30.5609 0.156103 36.1317 2.52231 40.3822 6.50098L40.8029 6.9041C45.0895 11.1126 47.825 16.9153 47.9918 23.373L48 24C48 30.499 45.3985 36.3731 41.2131 40.6834L40.8029 41.0959C36.3641 45.454 30.3875 48 24 48L23.4023 47.9924C17.24 47.8389 11.4965 45.3177 7.19648 41.0959C2.7718 36.7517 -5.16406e-06 30.7086 -4.57757e-06 24L0.0081986 23.373C0.17496 16.9154 2.91007 11.1126 7.19648 6.9041L7.61719 6.50098C12.0093 2.38951 17.8117 6.23971e-05 24 7.62876e-07L24 0.600001C17.7736 0.600064 11.9464 3.08131 7.6166 7.33242L7.21699 7.73437C3.13489 11.9384 0.599997 17.6649 0.599996 24Z" fill="#21F1A6"/>
        <path d="M45 24.0001C45 18.3191 42.7293 13.1828 39.0615 9.40557L38.7023 9.04463C34.9321 5.34292 29.9072 3.14057 24.522 3.00654L24 3.0001C18.5932 3.00011 13.5176 5.08639 9.66736 8.69072L9.29822 9.04463C5.41993 12.8523 2.99998 18.1361 2.99998 24.0001C2.99998 29.864 5.41956 35.1478 9.29763 38.9556H9.29822C13.1902 42.7765 18.4187 45.0001 24 45.0001V47.4001L23.417 47.3931C17.6029 47.2482 12.1715 44.9406 8.02732 41.0614L7.61716 40.6683C3.30295 36.4326 0.599976 30.541 0.599976 24.0001C0.599976 17.6635 3.13671 11.9365 7.21755 7.73389L7.61716 7.33193C11.945 3.08271 17.7721 0.600107 24 0.600098L24.5824 0.607129C30.5909 0.756747 36.1907 3.21549 40.3834 7.33193C44.6974 11.5675 47.4 17.4592 47.4 24.0001C47.4 30.541 44.6974 36.4326 40.3834 40.6683L39.9732 41.0614C35.6909 45.0702 30.0337 47.4 24 47.4001V45.0001C29.5818 45 34.8106 42.7772 38.7023 38.9562L39.0615 38.5946C42.7292 34.8174 45 29.681 45 24.0001Z" fill="url(#paint1_linear_3980_4775)"/>
    </g>
    <defs>
        <linearGradient id="paint0_linear_3980_4775" x1="2.04687" y1="24.5407" x2="41.4027" y2="24.5407" gradientUnits="userSpaceOnUse">
            <stop stop-color="#21F1A6" stop-opacity="0.6"/>
            <stop offset="1" stop-color="#21F1A6" stop-opacity="0.2"/>
        </linearGradient>
        <linearGradient id="paint1_linear_3980_4775" x1="48.462" y1="23.3976" x2="4.60844" y2="23.3976" gradientUnits="userSpaceOnUse">
            <stop stop-color="#21F1A6"/>
            <stop offset="1" stop-color="#21F1A6" stop-opacity="0.2"/>
        </linearGradient>
        <clipPath id="clip0_3980_4775">
            <rect width="48" height="48" fill="white"/>
        </clipPath>
        <clipPath id="clip1_3980_4775">
            <rect width="31.2" height="25.2" fill="white" transform="translate(8.40002 11.3999)"/>
        </clipPath>
    </defs>
</svg>
