<svg width="80" height="80" viewBox="0 0 80 80" fill="none" xmlns="http://www.w3.org/2000/svg">
    <g clip-path="url(#clip0_604_162)">
        <path d="M40 80C62.1668 80 80 62.1668 80 40C80 17.8332 62.1668 0 40 0C17.8332 0 0 17.8332 0 40C0 62.1668 17.8332 80 40 80Z" fill="#051212"/>
        <path d="M77.5996 40C77.5996 19.1587 60.8413 2.40039 40 2.40039C19.1587 2.40039 2.40039 19.1587 2.40039 40C2.40039 60.8413 19.1587 77.5996 40 77.5996V80C17.8332 80 0 62.1668 0 40C0 17.8332 17.8332 0 40 0C62.1668 0 80 17.8332 80 40C80 62.1668 62.1668 80 40 80V77.5996C60.8413 77.5996 77.5996 60.8413 77.5996 40Z" fill="#FCCB68"/>
        <path d="M21.887 31.4727C23.3641 31.4727 24.755 32.3358 25.7971 33.8389C26.8378 35.3399 27.4972 37.4408 27.4973 39.7852C27.4973 42.1297 26.8379 44.2312 25.7971 45.7324C24.755 47.2355 23.3641 48.0986 21.887 48.0986C20.4098 48.0986 19.019 47.2355 17.9768 45.7324C16.936 44.2312 16.2766 42.1297 16.2766 39.7852C16.2767 37.4408 16.9361 35.34 17.9768 33.8389C19.019 32.3358 20.4098 31.4727 21.887 31.4727Z" fill="#FCCB68" fill-opacity="0.75" stroke="#171106"/>
        <path d="M30.741 27.6252C32.9872 27.6253 35.0737 28.9382 36.6199 31.1682C38.1646 33.3963 39.1365 36.5015 39.1365 39.9553C39.1364 43.4092 38.1647 46.5143 36.6199 48.7424C35.0737 50.9724 32.9872 52.2854 30.741 52.2854C28.4947 52.2854 26.4082 50.9724 24.8621 48.7424C23.3173 46.5143 22.3455 43.4092 22.3455 39.9553C22.3455 36.5015 23.3172 33.3963 24.8621 31.1682C26.4082 28.9382 28.4947 27.6252 30.741 27.6252Z" fill="#FCCB68" fill-opacity="0.75" stroke="#171106"/>
        <path d="M43.4596 22.4912C46.7631 22.4913 49.8027 24.3834 52.0367 27.541C54.2699 30.6975 55.6666 35.0843 55.6666 39.9531C55.6666 44.822 54.2699 49.2087 52.0367 52.3652C49.8028 55.5229 46.7631 57.4149 43.4596 57.415C40.156 57.415 37.1155 55.523 34.8815 52.3652C32.6484 49.2087 31.2516 44.8219 31.2516 39.9531C31.2516 35.0844 32.6484 30.6975 34.8815 27.541C37.1155 24.3833 40.156 22.4912 43.4596 22.4912Z" fill="#FCCB68" fill-opacity="0.75" stroke="#171106"/>
        <path d="M63.1574 39.9556C63.1574 34.4159 61.8596 29.4433 59.8066 25.8562L59.7084 25.6863C57.6181 22.1204 54.8901 20.1396 52.0741 20.0785L51.9399 20.0769C49.1215 20.0769 46.3824 22.0022 44.272 25.5178L44.172 25.6863C42.0621 29.2855 40.7225 34.328 40.7225 39.9556C40.7225 45.5832 42.0621 50.6256 44.172 54.2248L44.272 54.3936C46.3824 57.9089 49.1215 59.8342 51.9399 59.8342C54.8034 59.8342 57.585 57.8473 59.7084 54.2248L59.8066 54.0552C61.8597 50.468 63.1574 45.4952 63.1574 39.9556ZM64.2241 39.9556C64.2241 45.6518 62.8918 50.8172 60.7298 54.5945L60.6264 54.7735C58.4032 58.5661 55.3319 60.9111 51.9399 60.9111C48.6012 60.9111 45.5731 58.6385 43.3587 54.9502L43.254 54.7735C41.0309 50.9813 39.6558 45.7423 39.6558 39.9556C39.6558 34.1689 41.0309 28.9301 43.254 25.1379L43.3587 24.9612C45.5731 21.2726 48.6012 19 51.9399 19L52.0985 19.0018C55.4276 19.0737 58.4379 21.4045 60.6264 25.1379L60.7298 25.3167C62.8918 29.0939 64.2241 34.2593 64.2241 39.9556Z" fill="url(#paint0_linear_604_162)"/>
    </g>
    <defs>
        <linearGradient id="paint0_linear_604_162" x1="64.2241" y1="39.4299" x2="42.2021" y2="39.4299" gradientUnits="userSpaceOnUse">
            <stop stop-color="#FCCB68"/>
            <stop offset="1" stop-color="#FCCB68" stop-opacity="0"/>
        </linearGradient>
        <clipPath id="clip0_604_162">
            <rect width="80" height="80" rx="40" fill="white"/>
        </clipPath>
    </defs>
</svg>
