<svg width="54" height="54" viewBox="0 0 54 54" fill="none" xmlns="http://www.w3.org/2000/svg">
    <g clip-path="url(#clip0_4002_850)">
        <path d="M54 27C54 41.9117 41.9117 54 27 54C12.0883 54 0 41.9117 0 27C0 12.0883 12.0883 0 27 0C41.9117 0 54 12.0883 54 27Z" fill="#171106"/>
        <g clip-path="url(#clip1_4002_850)">
            <path d="M14.7734 21.2444C15.7705 21.2444 16.7096 21.8265 17.4131 22.8411C18.1156 23.8543 18.5605 25.2723 18.5605 26.8547C18.5605 28.4374 18.1156 29.8561 17.4131 30.8694C16.7096 31.884 15.7705 32.4661 14.7734 32.4661C13.7765 32.4659 12.8381 31.8838 12.1348 30.8694C11.4322 29.8561 10.9873 28.4374 10.9873 26.8547C10.9874 25.2723 11.4323 23.8543 12.1348 22.8411C12.8381 21.8266 13.7765 21.2446 14.7734 21.2444Z" fill="#FCCB68" stroke="#171106" stroke-width="0.675"/>
            <path d="M20.7505 18.6475C22.2665 18.6476 23.6747 19.5331 24.7183 21.0381C25.761 22.5421 26.4165 24.6384 26.4165 26.9697C26.4165 29.3011 25.761 31.3974 24.7183 32.9014C23.6747 34.4063 22.2665 35.2918 20.7505 35.292C19.2343 35.292 17.8254 34.4065 16.7817 32.9014C15.739 31.3974 15.0835 29.3011 15.0835 26.9697C15.0835 24.6384 15.739 22.5421 16.7817 21.0381C17.8254 19.533 19.2343 18.6475 20.7505 18.6475Z" fill="#FCCB68" stroke="#171106" stroke-width="0.675"/>
            <path d="M29.3354 15.1819C31.5652 15.182 33.6166 16.4588 35.1245 18.5901C36.6319 20.7207 37.5756 23.6816 37.5757 26.968C37.5757 30.2545 36.6319 33.2163 35.1245 35.3469C33.6166 37.478 31.5651 38.755 29.3354 38.7551C27.1057 38.7551 25.0534 37.4782 23.5454 35.3469C22.038 33.2163 21.0952 30.2545 21.0952 26.968C21.0953 23.6816 22.038 20.7207 23.5454 18.5901C25.0534 16.4586 27.1055 15.1819 29.3354 15.1819Z" fill="#FCCB68" stroke="#171106" stroke-width="0.675"/>
            <path d="M35.0635 12.4871L35.1699 12.489H35.1738C37.4349 12.5379 39.4399 14.0216 40.9238 16.3259L41.2139 16.7976L41.2148 16.7986L41.2842 16.9197L41.2852 16.9207C42.7783 19.5293 43.6884 23.076 43.6885 26.9695C43.6885 30.8631 42.7784 34.4105 41.2852 37.0193V37.0203L41.2148 37.1404L41.2139 37.1423C39.6826 39.7545 37.518 41.4528 35.0596 41.4529C32.6396 41.4529 30.5037 39.8074 28.9775 37.2654L28.9766 37.2634L28.9062 37.1443L28.9053 37.1423C27.3695 34.5223 26.4297 30.9247 26.4297 26.9695C26.4298 23.0144 27.3695 19.4175 28.9053 16.7976L28.9062 16.7957L28.9766 16.6765L28.9775 16.6746C30.5037 14.1324 32.6396 12.4871 35.0596 12.4871H35.0635ZM35.0586 13.8894C33.3223 13.8898 31.5654 15.0785 30.1729 17.3982L30.1064 17.5105C28.7181 19.8795 27.8253 23.2211 27.8252 26.9695C27.8252 30.718 28.7181 34.0603 30.1064 36.4294L30.1729 36.5417L30.4385 36.9636C31.7855 39.0056 33.4317 40.0505 35.0596 40.0505C36.8236 40.0504 38.6094 38.8234 40.0117 36.4314L40.0771 36.3181C41.4287 33.956 42.2939 30.6593 42.2939 26.9695C42.2939 23.2792 41.428 19.9829 40.0762 17.6208V17.6199L40.0107 17.5076V17.5066C38.6306 15.1533 36.8785 13.928 35.1426 13.8904V13.8894H35.0586Z" fill="#E5CD97" stroke="#171106" stroke-width="0.675"/>
        </g>
        <path d="M4.04999 27C4.04999 33.2131 6.53578 38.8295 10.5396 42.9528L10.9318 43.347C15.046 47.3864 20.5382 49.7961 26.4291 49.9427L27 49.95C32.9152 49.95 38.4634 47.6663 42.6654 43.7326L43.0675 43.347C47.3006 39.191 49.95 33.4135 49.95 27C49.95 20.5865 47.3006 14.8091 43.0675 10.653L42.6654 10.2674C38.4634 6.33391 32.9152 4.05 27 4.05L27 3.375L27.5886 3.38225C33.4585 3.52849 38.9422 5.85794 43.1262 9.77432L43.5408 10.1711C47.7604 14.3139 50.453 20.0261 50.6171 26.383L50.625 27C50.625 33.3974 48.0642 39.1798 43.9442 43.4228L43.5408 43.8282C39.1713 48.1183 33.2878 50.625 27 50.625L26.412 50.6177C20.3457 50.4667 14.6922 47.9843 10.4592 43.8282C6.10365 39.5519 3.37499 33.6038 3.37499 27L3.3829 26.383C3.54702 20.0262 6.23973 14.3139 10.4592 10.1711L10.8732 9.77432C15.1967 5.72712 20.9084 3.37506 27 3.375L27 4.05C20.8936 4.05006 15.1786 6.48338 10.9318 10.653L10.5396 11.0472C6.53582 15.1706 4.04999 20.7869 4.04999 27Z" fill="url(#paint0_linear_4002_850)"/>
        <path d="M0.674998 27C0.674997 34.1271 3.52671 40.5693 8.11911 45.2988L8.56867 45.751C13.2875 50.3841 19.5873 53.1488 26.3448 53.3171L27 53.325C33.7854 53.325 40.1496 50.7053 44.9692 46.1933L45.4307 45.751C50.286 40.9841 53.325 34.3569 53.325 27C53.325 19.6432 50.286 13.0159 45.4307 8.24898L44.9692 7.80667C40.1496 3.295 33.7854 0.675001 27 0.675001L27 1.45428e-06L27.6724 0.00856932C34.381 0.175616 40.6482 2.8376 45.43 7.3136L45.9033 7.76712C50.7257 12.5017 53.8031 19.0297 53.9908 26.2947L54 27C54 34.3114 51.0733 40.9197 46.3647 45.7688L45.9033 46.2329C40.9096 51.1357 34.1859 54 27 54L26.3276 53.9914C19.395 53.8187 12.9336 50.9824 8.09604 46.2329C3.11828 41.3456 -5.92878e-06 34.5472 -5.26898e-06 27L0.00922636 26.2947C0.196834 19.0298 3.27383 12.5017 8.09604 7.76711L8.56934 7.3136C13.5105 2.6882 20.0381 6.95102e-05 27 1.45428e-06L27 0.675001C19.9953 0.675073 13.4397 3.46648 8.56868 8.24897L8.11911 8.70117C3.52675 13.4307 0.674998 19.873 0.674998 27Z" fill="#E5CD97"/>
        <path d="M50.6248 27C50.6248 20.609 48.0703 14.8305 43.944 10.5812L43.5399 10.1751C39.2985 6.01073 33.6454 3.53309 27.5871 3.3823L26.9998 3.37505C20.9171 3.37506 15.2071 5.72212 10.8756 9.777L10.4603 10.1751C6.09726 14.4588 3.3748 20.403 3.3748 27C3.3748 33.5969 6.09683 39.5412 10.4597 43.825H10.4603C14.8388 48.1235 20.7209 50.625 26.9998 50.625V53.3251L26.3439 53.3171C19.8031 53.1542 13.6928 50.5581 9.03057 46.194L8.56914 45.7517C3.71566 40.9866 0.674805 34.3586 0.674805 27C0.674805 19.8714 3.52863 13.4284 8.11958 8.70056L8.56914 8.24836C13.438 3.46799 19.9935 0.675059 26.9998 0.675049L27.655 0.682959C34.4146 0.851279 40.7144 3.61737 45.4311 8.24836C50.2845 13.0134 53.3248 19.6415 53.3248 27C53.3248 34.3585 50.2844 40.9866 45.4311 45.7517L44.9697 46.194C40.1521 50.7039 33.7877 53.325 26.9998 53.3251V50.625C33.2794 50.625 39.1617 48.1243 43.5399 43.8256L43.944 43.4189C48.0702 39.1695 50.6248 33.3911 50.6248 27Z" fill="url(#paint1_linear_4002_850)"/>
    </g>
    <defs>
        <linearGradient id="paint0_linear_4002_850" x1="2.30273" y1="27.6083" x2="46.578" y2="27.6083" gradientUnits="userSpaceOnUse">
            <stop stop-color="#FCCB68" stop-opacity="0.6"/>
            <stop offset="1" stop-color="#FCCB68" stop-opacity="0.2"/>
        </linearGradient>
        <linearGradient id="paint1_linear_4002_850" x1="54.5196" y1="26.3222" x2="5.18432" y2="26.3222" gradientUnits="userSpaceOnUse">
            <stop stop-color="#FCCB68"/>
            <stop offset="1" stop-color="#FCCB68" stop-opacity="0.2"/>
        </linearGradient>
        <clipPath id="clip0_4002_850">
            <rect width="54" height="54" fill="white"/>
        </clipPath>
        <clipPath id="clip1_4002_850">
            <rect width="35.1" height="28.35" fill="white" transform="translate(9.4502 12.825)"/>
        </clipPath>
    </defs>
</svg>
