<?xml version="1.0" encoding="UTF-8"?>
<svg version="1.1" xmlns="http://www.w3.org/2000/svg" width="200" height="200">
<path d="M0 0 C66 0 132 0 200 0 C200 66 200 132 200 200 C134 200 68 200 0 200 C0 134 0 68 0 0 Z " fill="#1E3058" transform="translate(0,0)"/>
<path d="M0 0 C2.41020309 1.17893213 4.8721512 2.19239555 7.36132812 3.19238281 C9.50942654 4.08277107 11.65480687 4.97972122 13.79882812 5.87988281 C14.64525879 6.23453613 15.49168945 6.58918945 16.36376953 6.95458984 C19.3096238 8.2010095 22.24206901 9.47569603 25.17382812 10.75488281 C26.60190796 11.35296753 26.60190796 11.35296753 28.05883789 11.96313477 C34.69312969 14.89549291 39.49524164 18.27270985 42.79882812 24.87988281 C42.91010747 26.69611868 42.95805708 28.51638262 42.97583008 30.3359375 C42.99508293 32.0484671 42.99508293 32.0484671 43.01472473 33.79559326 C43.02211166 35.03512756 43.0294986 36.27466187 43.03710938 37.55175781 C43.04518112 38.82206848 43.05325287 40.09237915 43.06156921 41.40118408 C43.07542139 44.09464169 43.08643407 46.78797643 43.09399414 49.48144531 C43.10503962 52.92256865 43.13941636 56.36304192 43.17916584 59.803936 C43.21168891 63.09481193 43.21611639 66.38574568 43.22460938 69.67675781 C43.24211746 70.90819519 43.25962555 72.13963257 43.27766418 73.40838623 C43.26130566 79.86271111 43.23976565 84.02346347 38.79882812 88.87988281 C34.04583192 93.59037831 28.89129662 95.83038776 22.73632812 98.31738281 C20.85158987 99.0997362 18.96747299 99.88358823 17.08398438 100.66894531 C16.17535645 101.04567383 15.26672852 101.42240234 14.33056641 101.81054688 C11.06813446 103.18850753 7.87383878 104.67516958 4.67382812 106.19238281 C-0.17911053 108.47313727 -5.08245726 110.38113229 -10.15429688 112.11816406 C-12.16468558 112.70470035 -12.16468558 112.70470035 -13.20117188 113.87988281 C-20.75443465 114.82463469 -26.31820903 113.07167767 -33.01367188 109.75488281 C-33.88604492 109.34181885 -34.75841797 108.92875488 -35.65722656 108.50317383 C-37.39305512 107.68033975 -39.12545324 106.85022213 -40.85400391 106.01220703 C-43.86274405 104.56072619 -46.90574389 103.18991652 -49.95117188 101.81738281 C-51.44390625 101.11548828 -51.44390625 101.11548828 -52.96679688 100.39941406 C-54.71146653 99.57975646 -56.45862571 98.76492581 -58.21875 97.97900391 C-60.39000237 97.00902693 -62.54555591 96.00905934 -64.70117188 95.00488281 C-65.70809082 94.56776978 -65.70809082 94.56776978 -66.73535156 94.12182617 C-72.04425743 91.59265913 -74.96478219 88.33633212 -77.20117188 82.87988281 C-77.90022695 78.46425206 -77.87916888 74.12053271 -77.83007812 69.65722656 C-77.83249008 68.39777725 -77.83490204 67.13832794 -77.83738708 65.8407135 C-77.83641038 63.18646407 -77.82568731 60.53449485 -77.7980957 57.88061523 C-77.76397795 54.49562534 -77.7700549 51.11215095 -77.78875828 47.72708797 C-77.80192266 44.47454735 -77.78359802 41.22223464 -77.76757812 37.96972656 C-77.77253799 36.7622728 -77.77749786 35.55481903 -77.78260803 34.31077576 C-77.67168773 26.36207514 -76.79388535 21.58783427 -71.13085938 15.74316406 C-66.76161725 12.96432607 -62.09575159 11.05879135 -57.32617188 9.06738281 C-55.25385193 8.18622735 -53.18223728 7.30341134 -51.11132812 6.41894531 C-50.10215332 5.9887207 -49.09297852 5.55849609 -48.05322266 5.11523438 C-44.25189187 3.46870691 -40.50414738 1.7218418 -36.76367188 -0.05761719 C-21.82974193 -7.05428713 -14.72448934 -7.3919611 0 0 Z " fill="#F4F8FB" transform="translate(117.201171875,46.1201171875)"/>
<path d="M0 0 C0.10167676 6.99246763 0.17158171 13.98474358 0.21972656 20.9777832 C0.23980363 23.35513432 0.26707113 25.7324363 0.30175781 28.10961914 C0.35044614 31.53283845 0.37300853 34.95540306 0.390625 38.37890625 C0.41127014 39.43646622 0.43191528 40.49402618 0.45318604 41.58363342 C0.45511222 47.96235365 -0.16168379 51.83343343 -4 57 C-9.69844019 62.58278588 -19.22259631 65.30968981 -26.48291016 68.35864258 C-28.7627216 69.3178525 -31.03574629 70.29199905 -33.30859375 71.26757812 C-34.76263984 71.8837124 -36.21705427 72.4989783 -37.671875 73.11328125 C-38.34796814 73.40382889 -39.02406128 73.69437653 -39.72064209 73.99372864 C-43.1065535 75.40319957 -45.26366548 76 -49 76 C-49.12720405 68.88349582 -49.21452078 61.76728688 -49.2746582 54.64990234 C-49.29973872 52.23084558 -49.33381149 49.81186411 -49.37719727 47.39306641 C-49.43813045 43.90768816 -49.46627563 40.42331536 -49.48828125 36.9375 C-49.51408768 35.86322754 -49.5398941 34.78895508 -49.56648254 33.68212891 C-49.56900671 26.86163171 -48.54968071 22.21679863 -44 17 C-39.51673277 12.93858758 -34.70868352 10.87914057 -29 9.0625 C-27.50419561 8.56422786 -26.00942116 8.06285454 -24.515625 7.55859375 C-23.39124023 7.17936768 -23.39124023 7.17936768 -22.24414062 6.79248047 C-17.47086769 5.10687952 -12.82779824 3.0838879 -8.171875 1.1015625 C-5.13245375 0.04599995 -3.16021354 -0.09452484 0 0 Z " fill="#19A2F7" transform="translate(152,74)"/>
<path d="M0 0 C4.64755251 0.70716561 8.5265626 1.87485815 12.875 3.6875 C16.99743586 5.39589217 21.11656978 7.06584169 25.32421875 8.5546875 C26.03271973 8.80774658 26.7412207 9.06080566 27.47119141 9.3215332 C28.82545862 9.80136054 30.18307443 10.2718808 31.54443359 10.73120117 C38.54211732 13.23577755 43.00194462 16.96590817 46.18080139 23.59339905 C47.75249088 28.21063032 47.48531343 32.89194961 47.390625 37.71875 C47.38496521 38.81723267 47.37930542 39.91571533 47.37347412 41.04748535 C47.35120753 44.5321132 47.30102752 48.01568656 47.25 51.5 C47.22992252 53.87238091 47.21167394 56.24477805 47.1953125 58.6171875 C47.15137465 64.4118139 47.08455981 70.20583159 47 76 C41.79615988 75.34271752 37.90492473 74.26179793 33.1875 71.9375 C28.91087082 69.84478604 24.63718028 67.82001894 20.234375 66.00390625 C19.43620361 65.6694751 18.63803223 65.33504395 17.81567383 64.99047852 C16.27199335 64.34755564 14.72253455 63.7182724 13.16674805 63.10522461 C7.78461696 60.82972908 4.24110414 57.90038459 1 53 C0.01533747 50.04601242 -0.12127836 48.14750978 -0.11352539 45.06958008 C-0.11344986 44.06876907 -0.11337433 43.06795807 -0.11329651 42.03681946 C-0.10813522 40.95861435 -0.10297394 39.88040924 -0.09765625 38.76953125 C-0.0962413 37.66397385 -0.09482635 36.55841644 -0.09336853 35.4193573 C-0.08776514 31.88371083 -0.07521204 28.34812738 -0.0625 24.8125 C-0.05748544 22.41731862 -0.05292246 20.02213625 -0.04882812 17.62695312 C-0.03779461 11.75128053 -0.02105316 5.87564477 0 0 Z " fill="#5DBCFE" transform="translate(48,74)"/>
<path d="M0 0 C1.07507813 0.45375 2.15015625 0.9075 3.2578125 1.375 C7.61087943 3.358174 11.95830208 5.35146416 16.27880859 7.40478516 C21.33442732 9.80597202 26.45495647 11.95528939 31.6875 13.9375 C31.6875 15.2575 31.6875 16.5775 31.6875 17.9375 C30.52476562 18.36160156 29.36203125 18.78570312 28.1640625 19.22265625 C27.39908447 19.50294678 26.63410645 19.7832373 25.84594727 20.07202148 C24.1388626 20.69731095 22.43099912 21.32047779 20.72241211 21.94165039 C16.38791455 23.52858888 12.09110808 25.16182132 7.83984375 26.9609375 C-4.84023353 32.30153485 -13.33938591 33.80650329 -26.4375 28.6875 C-28.73420339 27.74340528 -31.01983708 26.7778992 -33.30078125 25.79638672 C-35.82327088 24.71943059 -38.37743253 23.73372963 -40.9375 22.75 C-45.19155076 21.04394839 -49.24436957 19.04690096 -53.3125 16.9375 C-53.3125 15.9475 -53.3125 14.9575 -53.3125 13.9375 C-48.56152655 11.62878786 -43.79700253 9.35182431 -39.01806641 7.1015625 C-37.398543 6.33382661 -35.78285252 5.55794525 -34.17138672 4.7734375 C-22.77591986 -0.7653387 -12.53350928 -5.39131589 0 0 Z " fill="#22B2F5" transform="translate(110.3125,51.0625)"/>
<path d="M0 0 C13.68149789 5.70062412 13.68149789 5.70062412 19.77734375 8.515625 C21.12816763 9.13300416 22.47908154 9.75018635 23.83007812 10.3671875 C25.90021264 11.31514453 27.96953875 12.26476591 30.03735352 13.21777344 C32.07356004 14.15510884 34.11269054 15.08581851 36.15234375 16.015625 C37.9465979 16.83981934 37.9465979 16.83981934 39.77709961 17.68066406 C42.56802656 18.82316609 45.03114433 19.55084121 48 20 C45.29974536 24.58787341 43.18376142 26.91703416 38.375 29.1875 C37.79959473 29.46086182 37.22418945 29.73422363 36.63134766 30.01586914 C34.43330181 31.04035396 32.21939719 32.02257198 30 33 C28.96617187 33.45697266 27.93234375 33.91394531 26.8671875 34.38476562 C23.37616768 35.91755394 19.87773173 37.43167751 16.375 38.9375 C14.64902588 39.68326294 14.64902588 39.68326294 12.88818359 40.4440918 C11.79844238 40.90468994 10.70870117 41.36528809 9.5859375 41.83984375 C8.6067334 42.25613037 7.6275293 42.67241699 6.61865234 43.10131836 C4 44 4 44 0 44 C0 29.48 0 14.96 0 0 Z " fill="#3492FD" transform="translate(103,106)"/>
<path d="M0 0 C0 14.19 0 28.38 0 43 C-5.84402364 42.16513948 -8.75709185 41.42832399 -13.8125 38.9375 C-15.11743376 38.3012155 -16.42347697 37.6672026 -17.73046875 37.03515625 C-18.4167334 36.70273926 -19.10299805 36.37032227 -19.81005859 36.02783203 C-22.12016029 34.9436037 -24.45217438 33.93152797 -26.80078125 32.93359375 C-27.60346436 32.59013916 -28.40614746 32.24668457 -29.2331543 31.89282227 C-30.79205454 31.2294503 -32.35459583 30.57455081 -33.92114258 29.92944336 C-38.59614296 27.91988939 -41.64018308 25.83789364 -45 22 C-44 19 -44 19 -40.87646484 17.23828125 C-39.49296494 16.58562823 -38.10400435 15.94447524 -36.7109375 15.3125 C-35.97428864 14.96872314 -35.23763977 14.62494629 -34.47866821 14.27075195 C-32.11516837 13.17073829 -29.74524889 12.08538268 -27.375 11 C-25.8003509 10.26915567 -24.22612664 9.53739524 -22.65234375 8.8046875 C-18.44332068 6.85084474 -14.23044823 4.90705835 -10 3 C-9.35524719 2.70432129 -8.71049438 2.40864258 -8.04620361 2.10400391 C-5.17777395 0.81992119 -3.18111403 0 0 0 Z " fill="#479AFE" transform="translate(95,107)"/>
</svg>
