<svg xmlns="http://www.w3.org/2000/svg" width="32" height="32" viewBox="0 0 32 32" fill="none">
    <circle cx="16" cy="16" r="16" fill="rgb(219 251 246)"/>
    <path d="M20.1595 22.8355L20.1588 22.8351C19.7476 22.474 19.4039 22.0083 19.0771 21.4971C18.9218 21.2541 18.7716 21.0034 18.62 20.75L18.5969 20.7112C18.4379 20.4456 18.2768 20.1774 18.1086 19.9182C17.4379 18.8839 16.6277 17.9486 15.2576 17.7752C14.3958 17.6667 13.7223 17.873 13.1683 18.2464C12.6207 18.6155 12.1957 19.1436 11.8189 19.666C11.7211 19.8013 11.6272 19.9356 11.5352 20.0668C11.2655 20.4517 11.0133 20.8118 10.7368 21.104C10.3715 21.4899 9.99103 21.7265 9.51758 21.7265C8.36835 21.7265 7.66281 20.8982 7.2376 19.7745C6.81335 18.6537 6.69336 17.2941 6.69336 16.3653C6.69336 15.4168 6.82721 14.3102 7.21586 13.4474C7.60179 12.5908 8.22349 11.9995 9.20544 11.9995C10.2846 11.9995 10.8856 12.7458 11.5793 13.6071C11.6257 13.6649 11.6725 13.723 11.72 13.7815C12.4613 14.6957 13.3261 15.6449 14.9774 15.5396H14.9784C16.6244 15.4266 17.455 14.3282 18.1155 13.1085C18.2664 12.83 18.4097 12.5423 18.5522 12.2569L18.5932 12.1746C18.7495 11.8612 18.9056 11.5515 19.0719 11.2542C19.4053 10.6588 19.7742 10.1249 20.2539 9.72865C21.0557 9.07474 22.4507 9.07651 23.6719 10.067C24.8871 11.0528 25.9219 13.0231 25.9219 16.2658C25.9219 19.4693 24.9418 21.5514 23.7395 22.6057C22.5402 23.6575 21.1261 23.692 20.1595 22.8355Z"
          fill="url(#paint0_linear_3660_3727)" stroke="black" stroke-width="0.380752"/>
    <path d="M8.08604 12.2302C8.40307 12.3661 9.29547 12.5564 10.3282 12.2302M7.20274 13.1815C8.08604 13.5212 9.51289 13.793 11.3474 13.1815M6.86302 14.6763C7.769 14.9707 9.97492 15.3829 11.5513 14.6763C11.8543 14.5404 12.729 14.8348 12.8422 14.8801M6.65918 16.7826C7.81425 17.1223 9.98851 17.53 11.5513 16.7826C13.728 15.7416 16.8525 16.852 17.5984 17.5979C18.2099 18.2094 21.811 19.5004 25.8878 18.0735"
          stroke="black" stroke-width="0.380752"/>
    <path d="M12.4346 14.6762C12.5478 15.5143 12.7064 17.5163 12.4346 18.8209M14.7447 15.5595V17.7338M16.5113 15.0839C16.3527 15.7407 16.1308 17.2717 16.5113 18.1414M18.5497 12.3661C18.1647 13.8836 17.6256 17.6522 18.5497 20.5875M21.6752 9.37646C21.1768 10.5768 19.7727 11.6866 19.7727 15.8313C19.7727 20.9272 20.4521 23.4412 21.6752 23.4412M21.7431 9.37646C22.0828 10.6901 22.0149 13.8473 22.0149 15.9672C22.0149 18.6171 22.0149 22.9656 21.7431 23.5091"
          stroke="black" stroke-width="0.380752"/>
    <path d="M21.6748 9.37646C22.2184 9.37646 24.3926 12.502 24.3926 15.7633C24.3926 19.3645 23.985 23.4412 21.9466 23.4412"
          stroke="black" stroke-width="0.380752"/>
    <path d="M20.3839 9.64758C20.8142 9.89667 21.9602 10.2455 23.1017 9.64758M19.7044 10.2591C20.3612 10.5536 22.1233 10.9657 23.917 10.2591M18.8891 11.5501C19.7497 12.003 22.1505 12.6372 24.8683 11.5501M18.3455 13.3166C19.0702 13.8829 21.5254 14.6756 25.5477 13.3166M16.7148 14.8794C16.7601 15.4682 22.9658 16.578 25.8875 15.355M18.2776 19.6356C19.6365 20.2018 22.9794 20.9945 25.4798 19.6356M18.8891 21.1983C19.7724 21.6966 22.2048 22.3942 24.8683 21.1983M6.93066 18.8202C7.70076 19.2506 9.94745 19.7715 12.774 18.4126"
          stroke="black" stroke-width="0.380752"/>
    <path d="M9.17307 11.959C8.81064 12.7516 8.08594 14.7855 8.08594 16.5793C8.08594 18.8215 8.08594 21.7431 9.24101 21.7431"
          stroke="black" stroke-width="0.380752"/>
    <path d="M9.17285 12.0262C9.60322 12.7057 10.4638 14.5538 10.4638 16.5106C10.4638 18.9567 10.3959 21.7425 9.30874 21.7425"
          stroke="black" stroke-width="0.380752"/>
    <defs>
        <linearGradient id="paint0_linear_3660_3727" x1="15.0167" y1="23.6448" x2="15.2205" y2="9.1045"
                        gradientUnits="userSpaceOnUse">
            <stop stop-color="#97FCCB"/>
            <stop offset="1" stop-color="#97FBFC"/>
        </linearGradient>
    </defs>
</svg>