<?xml version="1.0" encoding="UTF-8"?>
<svg version="1.1" xmlns="http://www.w3.org/2000/svg" width="250" height="250">
<path d="M0 0 C1.3125 3.625 1.3125 3.625 2 7 C2.66 7 3.32 7 4 7 C4.99 10.3 5.98 13.6 7 17 C7.66 17 8.32 17 9 17 C9.26554688 17.74765625 9.53109375 18.4953125 9.8046875 19.265625 C10.33449219 20.74289063 10.33449219 20.74289063 10.875 22.25 C11.39707031 23.71179687 11.39707031 23.71179687 11.9296875 25.203125 C12.89623448 27.90105711 12.89623448 27.90105711 14.03125 29.9375 C15.37058427 32.78898586 15.9490995 35.67772502 16.625 38.75 C16.88539063 39.92046875 17.14578125 41.0909375 17.4140625 42.296875 C17.60742188 43.18890625 17.80078125 44.0809375 18 45 C18.33 45 18.66 45 19 45 C20.4209412 56.10110314 21.23300333 66.94284246 20.92578125 78.14331055 C20.90064453 79.40075073 20.90064453 79.40075073 20.875 80.68359375 C20.85179687 81.42150146 20.82859375 82.15940918 20.8046875 82.91967773 C21.03277013 85.34904279 21.79852765 86.89270411 23 89 C24.83372888 92.50075513 26.03353087 96.01946754 27.21875 99.78125 C27.932645 101.98775782 27.932645 101.98775782 29 103.87109375 C30.7958828 107.69435987 31.35915096 111.88810867 32.21875 116.00390625 C32.86537408 119.15210539 32.86537408 119.15210539 35 122 C36.6740567 125.68292475 38.01709624 129.06838496 39 133 C42.96 133 46.92 133 51 133 C51 134.65 51 136.3 51 138 C49.02 138 47.04 138 45 138 C45 138.66 45 139.32 45 140 C43.02 140 41.04 140 39 140 C39 140.66 39 141.32 39 142 C38.34 142 37.68 142 37 142 C36.67 144.31 36.34 146.62 36 149 C37.7634375 148.9690625 37.7634375 148.9690625 39.5625 148.9375 C43.47413467 148.93052739 47.14497944 149.35749657 51 150 C51 151.65 51 153.3 51 155 C48.16730334 156.41634833 45.52533562 156.3463005 42.375 156.5625 C41.18648437 156.64628906 39.99796875 156.73007813 38.7734375 156.81640625 C37.85820312 156.87699219 36.94296875 156.93757812 36 157 C35.34 158.65 34.68 160.3 34 162 C33.34 162 32.68 162 32 162 C32 162.99 32 163.98 32 165 C33.32 165 34.64 165 36 165 C36 165.66 36 166.32 36 167 C37.65 167.33 39.3 167.66 41 168 C41 169.65 41 171.3 41 173 C35.1977825 173.36263859 31.36000789 172.25684543 26 170 C25.51789063 170.5775 25.03578125 171.155 24.5390625 171.75 C23.90742188 172.4925 23.27578125 173.235 22.625 174 C21.99851563 174.7425 21.37203125 175.485 20.7265625 176.25 C20.15679687 176.8275 19.58703125 177.405 19 178 C18.34 178 17.68 178 17 178 C15.7763932 180.0745356 15.7763932 180.0745356 16 183 C16.99 183.66 17.98 184.32 19 185 C19.6875 187.125 19.6875 187.125 20 190 C20.2165625 191.918125 20.2165625 191.918125 20.4375 193.875 C20.39626851 198.22904538 18.57616668 200.43497052 15.703125 203.5546875 C13.89142805 205.09213674 12.1623043 206.03023928 10 207 C6.85474188 208.30628723 6.85474188 208.30628723 5 211 C3.33333333 211.66666667 1.66666667 212.33333333 0 213 C-0.33 213.66 -0.66 214.32 -1 215 C-4.2668126 216.54266151 -7.44765442 217.39102647 -11 218 C-11 218.66 -11 219.32 -11 220 C-12.43554025 220.50559908 -13.8735202 221.0042749 -15.3125 221.5 C-16.51326172 221.91765625 -16.51326172 221.91765625 -17.73828125 222.34375 C-20 223 -20 223 -23 223 C-23 223.66 -23 224.32 -23 225 C-24.89385437 225.50744423 -26.79018666 226.00564574 -28.6875 226.5 C-30.27111328 226.91765625 -30.27111328 226.91765625 -31.88671875 227.34375 C-34.71142672 227.9391715 -37.12836708 228.12786492 -40 228 C-40 228.66 -40 229.32 -40 230 C-57.16 230 -74.32 230 -92 230 C-92 229.34 -92 228.68 -92 228 C-92.92619141 227.92652344 -92.92619141 227.92652344 -93.87109375 227.8515625 C-99.73478159 227.33391578 -105.27872775 226.38417877 -111 225 C-111 224.34 -111 223.68 -111 223 C-114.63 222.01 -118.26 221.02 -122 220 C-122 219.34 -122 218.68 -122 218 C-123.32 217.67 -124.64 217.34 -126 217 C-126.08133791 215.08404032 -126.13934367 213.16708068 -126.1875 211.25 C-126.23970703 209.64898437 -126.23970703 209.64898437 -126.29296875 208.015625 C-125.96470671 204.63671441 -125.17218183 203.51688575 -123 201 C-122.67 200.01 -122.34 199.02 -122 198 C-123.5778125 197.814375 -123.5778125 197.814375 -125.1875 197.625 C-128.45958771 197.08859218 -131.00536076 196.36119965 -134 195 C-134.433125 196.175625 -134.433125 196.175625 -134.875 197.375 C-136 200 -136 200 -138 202 C-139.65 202 -141.3 202 -143 202 C-142.67 198.7 -142.34 195.4 -142 192 C-143.32 191.34 -144.64 190.68 -146 190 C-146.66 189.01 -147.32 188.02 -148 187 C-150.02045442 187.60183749 -152.02111039 188.27306096 -154 189 C-154.495 189.99 -154.495 189.99 -155 191 C-156.98 191 -158.96 191 -161 191 C-161.375 188.3125 -161.375 188.3125 -161 185 C-159.184967 182.98874721 -157.20335164 181.61878896 -155 180 C-154.505 179.01 -154.505 179.01 -154 178 C-154.66 178 -155.32 178 -156 178 C-156.66 176.02 -157.32 174.04 -158 172 C-159.65 172.33 -161.3 172.66 -163 173 C-163 173.66 -163 174.32 -163 175 C-164.65 175 -166.3 175 -168 175 C-168 173.02 -168 171.04 -168 169 C-166.02 168.01 -164.04 167.02 -162 166 C-162.17917969 165.44054687 -162.35835937 164.88109375 -162.54296875 164.3046875 C-164.65118752 156.35734161 -163.09762495 149.82662214 -161 142 C-160.34 142 -159.68 142 -159 142 C-156.70766352 122.54779828 -156.70766352 122.54779828 -161 104.1171875 C-163.32868817 99.18691802 -164.35046253 93.43216919 -164 88 C-164.66 88 -165.32 88 -166 88 C-167.1521548 80.89504542 -167.1523835 73.82651804 -167.13037109 66.64624023 C-167.1250212 64.57072616 -167.13033635 62.49542929 -167.13671875 60.41992188 C-167.14934073 42.10241599 -167.14934073 42.10241599 -164 36 C-163.41076456 33.76198651 -162.87225083 31.51023105 -162.375 29.25 C-161.98441406 27.49429688 -161.98441406 27.49429688 -161.5859375 25.703125 C-161.29589844 24.36507812 -161.29589844 24.36507812 -161 23 C-160.34 23 -159.68 23 -159 23 C-158.773125 22.195625 -158.54625 21.39125 -158.3125 20.5625 C-157.879375 19.716875 -157.44625 18.87125 -157 18 C-154.375 17.1875 -154.375 17.1875 -152 17 C-152 16.34 -152 15.68 -152 15 C-150.68 15 -149.36 15 -148 15 C-148 15.66 -148 16.32 -148 17 C-147.4225 17.12375 -146.845 17.2475 -146.25 17.375 C-143.94900359 18.01416567 -142.05890385 18.79305636 -140 20 C-139.67 20.66 -139.34 21.32 -139 22 C-138.360625 22.309375 -137.72125 22.61875 -137.0625 22.9375 C-135 24 -135 24 -133 27 C-132.01 27.33 -131.02 27.66 -130 28 C-128.28891311 29.62102968 -126.62746694 31.29503463 -125 33 C-124.175 33.825 -123.35 34.65 -122.5 35.5 C-121.675 36.325 -120.85 37.15 -120 38 C-119.236875 38.7425 -118.47375 39.485 -117.6875 40.25 C-114.65581932 43.35218488 -111.80510977 46.58662736 -108.9375 49.83984375 C-106.70826256 52.32526372 -104.39725643 54.67765783 -102 57 C-102 56.34 -102 55.68 -102 55 C-98.98017116 54.49317558 -95.95937183 53.99436665 -92.9375 53.5 C-92.08994141 53.35691406 -91.24238281 53.21382812 -90.36914062 53.06640625 C-85.50727611 52.27799579 -80.92471814 51.83962926 -76 52 C-76 51.34 -76 50.68 -76 50 C-68.41 49.34 -60.82 48.68 -53 48 C-52.34 46.35 -51.68 44.7 -51 43 C-50.34 43 -49.68 43 -49 43 C-48.81824219 42.38511719 -48.63648438 41.77023438 -48.44921875 41.13671875 C-48.19785156 40.32847656 -47.94648438 39.52023438 -47.6875 38.6875 C-47.44386719 37.88699219 -47.20023437 37.08648437 -46.94921875 36.26171875 C-45.94880957 33.87802775 -44.88526709 32.72309358 -43 31 C-42.5359375 30.0409375 -42.5359375 30.0409375 -42.0625 29.0625 C-40.76346141 26.54083686 -39.0289094 24.96550599 -37 23 C-36.01 21.515 -36.01 21.515 -35 20 C-34.00936394 18.99072294 -33.00887709 17.9910434 -32 17 C-31.07528479 15.902565 -30.1588875 14.79807882 -29.25 13.6875 C-26.59764676 10.54568507 -23.70565564 8.01457687 -20.53125 5.41796875 C-18.77786186 3.92683755 -18.77786186 3.92683755 -17.3125 1.1875 C-16 -1 -16 -1 -14.25 -1.8125 C-4.05144695 -2.66237942 -4.05144695 -2.66237942 0 0 Z " fill="#FAFBFB" transform="translate(191,20)"/>
<path d="M0 0 C1.3125 3.625 1.3125 3.625 2 7 C2.66 7 3.32 7 4 7 C4.99 10.3 5.98 13.6 7 17 C7.66 17 8.32 17 9 17 C9.26554688 17.74765625 9.53109375 18.4953125 9.8046875 19.265625 C10.33449219 20.74289063 10.33449219 20.74289063 10.875 22.25 C11.39707031 23.71179687 11.39707031 23.71179687 11.9296875 25.203125 C12.89623448 27.90105711 12.89623448 27.90105711 14.03125 29.9375 C15.37058427 32.78898586 15.9490995 35.67772502 16.625 38.75 C16.88539063 39.92046875 17.14578125 41.0909375 17.4140625 42.296875 C17.60742188 43.18890625 17.80078125 44.0809375 18 45 C18.33 45 18.66 45 19 45 C20.4209412 56.10110314 21.23300333 66.94284246 20.92578125 78.14331055 C20.90064453 79.40075073 20.90064453 79.40075073 20.875 80.68359375 C20.85179687 81.42150146 20.82859375 82.15940918 20.8046875 82.91967773 C21.03277013 85.34904279 21.79852765 86.89270411 23 89 C24.83372888 92.50075513 26.03353087 96.01946754 27.21875 99.78125 C27.932645 101.98775782 27.932645 101.98775782 29 103.87109375 C30.7958828 107.69435987 31.35915096 111.88810867 32.21875 116.00390625 C32.86537408 119.15210539 32.86537408 119.15210539 35 122 C36.6740567 125.68292475 38.01709624 129.06838496 39 133 C42.96 133 46.92 133 51 133 C51 134.65 51 136.3 51 138 C49.02 138 47.04 138 45 138 C45 138.66 45 139.32 45 140 C43.02 140 41.04 140 39 140 C39 140.66 39 141.32 39 142 C38.34 142 37.68 142 37 142 C36.67 144.31 36.34 146.62 36 149 C37.7634375 148.9690625 37.7634375 148.9690625 39.5625 148.9375 C43.47413467 148.93052739 47.14497944 149.35749657 51 150 C51 151.65 51 153.3 51 155 C48.16730334 156.41634833 45.52533562 156.3463005 42.375 156.5625 C41.18648437 156.64628906 39.99796875 156.73007813 38.7734375 156.81640625 C37.85820312 156.87699219 36.94296875 156.93757812 36 157 C35.34 158.65 34.68 160.3 34 162 C33.34 162 32.68 162 32 162 C32 162.99 32 163.98 32 165 C33.32 165 34.64 165 36 165 C36 165.66 36 166.32 36 167 C37.65 167.33 39.3 167.66 41 168 C41 169.65 41 171.3 41 173 C35.1977825 173.36263859 31.36000789 172.25684543 26 170 C25.51789063 170.5775 25.03578125 171.155 24.5390625 171.75 C23.90742188 172.4925 23.27578125 173.235 22.625 174 C21.99851563 174.7425 21.37203125 175.485 20.7265625 176.25 C20.15679687 176.8275 19.58703125 177.405 19 178 C18.34 178 17.68 178 17 178 C15.7763932 180.0745356 15.7763932 180.0745356 16 183 C16.99 183.66 17.98 184.32 19 185 C19.6875 187.125 19.6875 187.125 20 190 C20.2165625 191.918125 20.2165625 191.918125 20.4375 193.875 C20.39626851 198.22904538 18.57616668 200.43497052 15.703125 203.5546875 C13.89142805 205.09213674 12.1623043 206.03023928 10 207 C6.85474188 208.30628723 6.85474188 208.30628723 5 211 C3.33333333 211.66666667 1.66666667 212.33333333 0 213 C-0.33 213.66 -0.66 214.32 -1 215 C-4.2668126 216.54266151 -7.44765442 217.39102647 -11 218 C-11 218.66 -11 219.32 -11 220 C-12.43554025 220.50559908 -13.8735202 221.0042749 -15.3125 221.5 C-16.51326172 221.91765625 -16.51326172 221.91765625 -17.73828125 222.34375 C-20 223 -20 223 -23 223 C-23 223.66 -23 224.32 -23 225 C-24.89385437 225.50744423 -26.79018666 226.00564574 -28.6875 226.5 C-30.27111328 226.91765625 -30.27111328 226.91765625 -31.88671875 227.34375 C-34.71142672 227.9391715 -37.12836708 228.12786492 -40 228 C-40 228.66 -40 229.32 -40 230 C-57.16 230 -74.32 230 -92 230 C-92 229.34 -92 228.68 -92 228 C-92.92619141 227.92652344 -92.92619141 227.92652344 -93.87109375 227.8515625 C-99.73478159 227.33391578 -105.27872775 226.38417877 -111 225 C-111 224.34 -111 223.68 -111 223 C-114.63 222.01 -118.26 221.02 -122 220 C-122 219.34 -122 218.68 -122 218 C-123.32 217.67 -124.64 217.34 -126 217 C-126.08133791 215.08404032 -126.13934367 213.16708068 -126.1875 211.25 C-126.23970703 209.64898437 -126.23970703 209.64898437 -126.29296875 208.015625 C-125.96470671 204.63671441 -125.17218183 203.51688575 -123 201 C-122.67 200.01 -122.34 199.02 -122 198 C-123.5778125 197.814375 -123.5778125 197.814375 -125.1875 197.625 C-128.45958771 197.08859218 -131.00536076 196.36119965 -134 195 C-134.433125 196.175625 -134.433125 196.175625 -134.875 197.375 C-136 200 -136 200 -138 202 C-139.65 202 -141.3 202 -143 202 C-142.67 198.7 -142.34 195.4 -142 192 C-143.32 191.34 -144.64 190.68 -146 190 C-146.66 189.01 -147.32 188.02 -148 187 C-150.02045442 187.60183749 -152.02111039 188.27306096 -154 189 C-154.495 189.99 -154.495 189.99 -155 191 C-156.98 191 -158.96 191 -161 191 C-161.375 188.3125 -161.375 188.3125 -161 185 C-159.184967 182.98874721 -157.20335164 181.61878896 -155 180 C-154.505 179.01 -154.505 179.01 -154 178 C-154.66 178 -155.32 178 -156 178 C-156.66 176.02 -157.32 174.04 -158 172 C-159.65 172.33 -161.3 172.66 -163 173 C-163 173.66 -163 174.32 -163 175 C-164.65 175 -166.3 175 -168 175 C-168 173.02 -168 171.04 -168 169 C-166.02 168.01 -164.04 167.02 -162 166 C-162.17917969 165.44054687 -162.35835937 164.88109375 -162.54296875 164.3046875 C-164.65118752 156.35734161 -163.09762495 149.82662214 -161 142 C-160.34 142 -159.68 142 -159 142 C-156.70766352 122.54779828 -156.70766352 122.54779828 -161 104.1171875 C-163.32868817 99.18691802 -164.35046253 93.43216919 -164 88 C-164.66 88 -165.32 88 -166 88 C-167.1521548 80.89504542 -167.1523835 73.82651804 -167.13037109 66.64624023 C-167.1250212 64.57072616 -167.13033635 62.49542929 -167.13671875 60.41992188 C-167.14934073 42.10241599 -167.14934073 42.10241599 -164 36 C-163.41076456 33.76198651 -162.87225083 31.51023105 -162.375 29.25 C-161.98441406 27.49429688 -161.98441406 27.49429688 -161.5859375 25.703125 C-161.29589844 24.36507812 -161.29589844 24.36507812 -161 23 C-160.34 23 -159.68 23 -159 23 C-158.773125 22.195625 -158.54625 21.39125 -158.3125 20.5625 C-157.879375 19.716875 -157.44625 18.87125 -157 18 C-154.375 17.1875 -154.375 17.1875 -152 17 C-152 16.34 -152 15.68 -152 15 C-150.68 15 -149.36 15 -148 15 C-148 15.66 -148 16.32 -148 17 C-147.4225 17.12375 -146.845 17.2475 -146.25 17.375 C-143.94900359 18.01416567 -142.05890385 18.79305636 -140 20 C-139.67 20.66 -139.34 21.32 -139 22 C-138.360625 22.309375 -137.72125 22.61875 -137.0625 22.9375 C-135 24 -135 24 -133 27 C-132.01 27.33 -131.02 27.66 -130 28 C-128.28891311 29.62102968 -126.62746694 31.29503463 -125 33 C-124.175 33.825 -123.35 34.65 -122.5 35.5 C-121.675 36.325 -120.85 37.15 -120 38 C-119.236875 38.7425 -118.47375 39.485 -117.6875 40.25 C-114.65581932 43.35218488 -111.80510977 46.58662736 -108.9375 49.83984375 C-106.70826256 52.32526372 -104.39725643 54.67765783 -102 57 C-102 56.34 -102 55.68 -102 55 C-98.98017116 54.49317558 -95.95937183 53.99436665 -92.9375 53.5 C-92.08994141 53.35691406 -91.24238281 53.21382812 -90.36914062 53.06640625 C-85.50727611 52.27799579 -80.92471814 51.83962926 -76 52 C-76 51.34 -76 50.68 -76 50 C-68.41 49.34 -60.82 48.68 -53 48 C-52.34 46.35 -51.68 44.7 -51 43 C-50.34 43 -49.68 43 -49 43 C-48.81824219 42.38511719 -48.63648438 41.77023438 -48.44921875 41.13671875 C-48.19785156 40.32847656 -47.94648438 39.52023438 -47.6875 38.6875 C-47.44386719 37.88699219 -47.20023437 37.08648437 -46.94921875 36.26171875 C-45.94880957 33.87802775 -44.88526709 32.72309358 -43 31 C-42.5359375 30.0409375 -42.5359375 30.0409375 -42.0625 29.0625 C-40.76346141 26.54083686 -39.0289094 24.96550599 -37 23 C-36.01 21.515 -36.01 21.515 -35 20 C-34.00936394 18.99072294 -33.00887709 17.9910434 -32 17 C-31.07528479 15.902565 -30.1588875 14.79807882 -29.25 13.6875 C-26.59764676 10.54568507 -23.70565564 8.01457687 -20.53125 5.41796875 C-18.77786186 3.92683755 -18.77786186 3.92683755 -17.3125 1.1875 C-16 -1 -16 -1 -14.25 -1.8125 C-4.05144695 -2.66237942 -4.05144695 -2.66237942 0 0 Z M-19 10 C-21.39870659 12.45581865 -23.84393553 14.84920798 -26.3125 17.234375 C-40.25496078 31.47507819 -40.25496078 31.47507819 -47 49 C-47.66 49 -48.32 49 -49 49 C-49.20625 49.639375 -49.4125 50.27875 -49.625 50.9375 C-50.305625 51.9584375 -50.305625 51.9584375 -51 53 C-51.99 53.144375 -52.98 53.28875 -54 53.4375 C-54.99 53.623125 -55.98 53.80875 -57 54 C-58.45291273 56.46255685 -58.45291273 56.46255685 -59 59 C-61.64 59.33 -64.28 59.66 -67 60 C-67 58.35 -67 56.7 -67 55 C-69.64 55 -72.28 55 -75 55 C-75.33 56.65 -75.66 58.3 -76 60 C-80.29 60.33 -84.58 60.66 -89 61 C-89 60.34 -89 59.68 -89 59 C-90.98 59 -92.96 59 -95 59 C-95.33 60.98 -95.66 62.96 -96 65 C-100.455 65.495 -100.455 65.495 -105 66 C-105 64.68 -105 63.36 -105 62 C-105.99 62 -106.98 62 -108 62 C-107.85171753 60.92915161 -107.85171753 60.92915161 -107.70043945 59.83666992 C-108.12606824 55.80620468 -109.94106842 54.44326879 -112.79296875 51.61328125 C-113.29484207 51.11136765 -113.79671539 50.60945404 -114.313797 50.09233093 C-115.3831953 49.0282939 -116.45871676 47.97038092 -117.53979492 46.91821289 C-119.15040864 45.34864608 -120.73944923 43.75968778 -122.32617188 42.16601562 C-129.43220741 35.10521247 -136.93048773 28.93519244 -145 23 C-145.74016357 22.41130127 -146.48032715 21.82260254 -147.24291992 21.21606445 C-148.92768549 19.78247112 -148.92768549 19.78247112 -151.0625 20.125 C-154.7155206 21.77475124 -156.453389 24.39124101 -158 28 C-166.61089943 51.11695309 -166.52495556 81.96804944 -156.75 104.625 C-156.1725 105.73875 -155.595 106.8525 -155 108 C-153.515 107.505 -153.515 107.505 -152 107 C-151.15201066 105.20302073 -151.15201066 105.20302073 -150.625 103 C-149.10250602 97.99980924 -147.1038656 93.23942618 -144 89 C-142.515 88.505 -142.515 88.505 -141 88 C-141.42152344 88.67546875 -141.84304687 89.3509375 -142.27734375 90.046875 C-142.82519531 90.93890625 -143.37304688 91.8309375 -143.9375 92.75 C-144.48277344 93.63171875 -145.02804688 94.5134375 -145.58984375 95.421875 C-147.0679949 97.86634089 -147.0679949 97.86634089 -147.56640625 100.265625 C-147.70949219 100.83796875 -147.85257813 101.4103125 -148 102 C-148.99 102.495 -148.99 102.495 -150 103 C-153.95474055 113.30395291 -154.7250047 124.04067377 -155.5625 134.94140625 C-155.86378199 138.75276293 -156.3504593 142.43850784 -157.125 146.1875 C-158.18735124 151.40651123 -158.60959178 156.69296571 -158 162 C-157.34 162.99 -156.68 163.98 -156 165 C-153.37302936 165.22137393 -150.99106036 165.28162025 -148.375 165.1875 C-147.66859375 165.17396484 -146.9621875 165.16042969 -146.234375 165.14648438 C-144.48925872 165.1111104 -142.74453392 165.05730221 -141 165 C-140.505 165.99 -140.505 165.99 -140 167 C-143.96 167 -147.92 167 -152 167 C-152.2954439 172.02254631 -151.98514628 174.89542386 -149 179 C-146.36 178.67 -143.72 178.34 -141 178 C-143.475 178.99 -143.475 178.99 -146 180 C-145.67218843 183.05957468 -144.94321599 184.05836134 -142.75 186.3125 C-140.17346526 188.2365498 -140.17346526 188.2365498 -137.4375 187.9375 C-134.87168683 186.95064878 -133.13638581 185.70910865 -131 184 C-130.01 183.67 -129.02 183.34 -128 183 C-128 183.66 -128 184.32 -128 185 C-129.98 185.99 -129.98 185.99 -132 187 C-132 188.32 -132 189.64 -132 191 C-126.80680647 193.93081219 -121.63776992 195.31527956 -115.875 196.625 C-114.92028809 196.84373779 -113.96557617 197.06247559 -112.98193359 197.2878418 C-103.35200168 199.3588716 -93.82507654 199.88278108 -84 200 C-83.67 200.66 -83.34 201.32 -83 202 C-86.3 202 -89.6 202 -93 202 C-93 202.66 -93 203.32 -93 204 C-91.07248507 205.5710153 -89.13592809 207.04273294 -87.125 208.5 C-81.533747 212.64240786 -76.75970289 217.05015469 -72.0234375 222.1640625 C-70.08507483 224.33598043 -70.08507483 224.33598043 -67 224 C-65.3989263 222.54053059 -65.3989263 222.54053059 -63.875 220.5625 C-61.14867363 217.31632326 -58.34840596 214.21046273 -55.375 211.1875 C-54.66085938 210.45917969 -53.94671875 209.73085937 -53.2109375 208.98046875 C-51 207 -51 207 -48.2265625 205.36328125 C-47.12441406 204.68845703 -47.12441406 204.68845703 -46 204 C-46 203.34 -46 202.68 -46 202 C-44.7934375 201.566875 -44.7934375 201.566875 -43.5625 201.125 C-40.8673532 200.26737432 -40.8673532 200.26737432 -40 198 C-42.31 198 -44.62 198 -47 198 C-46.67 197.34 -46.34 196.68 -46 196 C-44.17407227 195.60522461 -44.17407227 195.60522461 -41.81640625 195.40234375 C-40.54893555 195.28342773 -40.54893555 195.28342773 -39.25585938 195.16210938 C-37.92264648 195.05092773 -37.92264648 195.05092773 -36.5625 194.9375 C-34.8134977 194.7833636 -33.06477886 194.62596567 -31.31640625 194.46484375 C-30.53724854 194.399021 -29.75809082 194.33319824 -28.95532227 194.26538086 C-26.92486238 194.09695611 -26.92486238 194.09695611 -25 193 C-25 192.34 -25 191.68 -25 191 C-24.09121094 190.96132813 -24.09121094 190.96132813 -23.1640625 190.921875 C-17.34293406 190.52782938 -12.6815476 189.30892668 -7.33984375 186.98828125 C-4.27941931 185.69564789 -1.2110952 184.83767701 2 184 C2 183.34 2 182.68 2 182 C2.88300781 181.75121094 3.76601562 181.50242188 4.67578125 181.24609375 C8.15452012 179.94207765 10.34566873 178.42848975 13.1875 176.0625 C14.02667969 175.37285156 14.86585938 174.68320313 15.73046875 173.97265625 C18.48337428 171.60439639 18.48337428 171.60439639 21 169 C21 168.34 21 167.68 21 167 C18.69 167 16.38 167 14 167 C14 166.01 14 165.02 14 164 C14.72445312 164.165 15.44890625 164.33 16.1953125 164.5 C19.28435819 165.02719713 21.87727579 165.32983507 25 165 C27.79891994 162.77250417 29.49110013 160.22789971 31 157 C31 156.34 31 155.68 31 155 C26.38 155.33 21.76 155.66 17 156 C17 155.01 17 154.02 17 153 C22.28 152.67 27.56 152.34 33 152 C33 151.34 33 150.68 33 150 C32.34 149.67 31.68 149.34 31 149 C30.375 146.9375 30.375 146.9375 30 145 C29.34 145 28.68 145 28 145 C27.34 145.99 26.68 146.98 26 148 C24.1875 148.328125 24.1875 148.328125 22 148.25 C21.20722656 148.22421875 20.41445312 148.1984375 19.59765625 148.171875 C15.3825408 147.89298014 11.19798901 147.47301285 7 147 C7.33 143.7 7.66 140.4 8 137 C8.969375 137.04125 9.93875 137.0825 10.9375 137.125 C13.87505855 137.13677378 16.4076074 136.72724279 19.25 136 C24.50260303 134.71179684 29.62250181 134.81907483 35 135 C34.40206779 131.20856623 33.28345387 128.26563613 31.5 124.875 C30.11780882 122.23115758 28.94548313 119.8364494 28 117 C20.84404654 117.70156407 13.98144819 119.30785021 7 121 C6.67 117.7 6.34 114.4 6 111 C7.32 110.34 8.64 109.68 10 109 C11.70137198 107.36549473 11.70137198 107.36549473 13.1875 105.5 C13.95126953 104.58734375 13.95126953 104.58734375 14.73046875 103.65625 C16.07117638 102.01530467 16.07117638 102.01530467 17 100 C17.99 99.67 18.98 99.34 20 99 C19.88590407 97.54077307 19.75834456 96.08259402 19.625 94.625 C19.55539063 93.81289062 19.48578125 93.00078125 19.4140625 92.1640625 C19.17107412 89.79665809 19.17107412 89.79665809 17 88 C16.71289062 85.04174805 16.71289062 85.04174805 16.65625 81.26171875 C16.6416272 80.58510696 16.62700439 79.90849518 16.61193848 79.21138 C16.56539669 77.03681475 16.53132031 74.86233436 16.5 72.6875 C16.44162277 54.54017848 16.44162277 54.54017848 11.84375 37.1484375 C10.74731314 34.35658439 9.9577664 31.50610311 9.125 28.625 C7.34616321 22.71622817 4.97274481 17.3972375 2 12 C1.34 12 0.68 12 0 12 C-0.37125 10.63875 -0.37125 10.63875 -0.75 9.25 C-2.08006604 5.79182829 -3.0082366 4.16071801 -6 2 C-12.71716658 0.20875558 -15.25898843 5.28192423 -19 10 Z " fill="#062722" transform="translate(191,20)"/>
<path d="M0 0 C4.41777297 0.88355459 5.6603522 2.96323756 8.125 6.625 C8.9375 9 8.9375 9 9.125 10.625 C9.785 10.625 10.445 10.625 11.125 10.625 C15.53069213 19.33040541 18.56789758 27.88866961 21.14453125 37.265625 C21.77861332 40.43883866 21.77861332 40.43883866 23.125 41.625 C25.4259437 52.07813642 25.48889028 62.64745496 25.58129883 73.29003906 C25.60296269 75.39167192 25.64231568 77.49242413 25.68359375 79.59375 C25.70377563 81.44129883 25.70377563 81.44129883 25.72436523 83.32617188 C26.1561297 86.88132205 27.19097256 88.67003259 29.125 91.625 C29.3125 94.9375 29.3125 94.9375 29.125 97.625 C27.64 98.12 27.64 98.12 26.125 98.625 C24.5618721 100.38310669 24.5618721 100.38310669 23.125 102.5 C21.28817877 105.09259663 19.53882846 107.53913736 17.125 109.625 C16.465 109.625 15.805 109.625 15.125 109.625 C15.62 114.575 15.62 114.575 16.125 119.625 C17.22199219 119.33625 18.31898438 119.0475 19.44921875 118.75 C20.90356457 118.37468495 22.35799623 117.99970245 23.8125 117.625 C24.53373047 117.43421875 25.25496094 117.2434375 25.99804688 117.046875 C29.79350961 116.07634572 33.17115439 115.37544761 37.125 115.625 C37.37894531 116.28886719 37.63289063 116.95273438 37.89453125 117.63671875 C39.68589397 122.23253696 41.56505442 126.40108979 44.125 130.625 C44.125 131.615 44.125 132.605 44.125 133.625 C43.43535156 133.60179687 42.74570313 133.57859375 42.03515625 133.5546875 C36.55154401 133.44937807 31.67819029 133.6886626 26.390625 135.1875 C24.125 135.625 24.125 135.625 17.125 135.625 C17.125 130.675 17.125 125.725 17.125 120.625 C15.64 121.12 15.64 121.12 14.125 121.625 C12.06354893 121.693991 9.99998599 121.70967727 7.9375 121.6875 C6.85082031 121.67847656 5.76414063 121.66945313 4.64453125 121.66015625 C3.81308594 121.64855469 2.98164063 121.63695312 2.125 121.625 C2.125 120.635 2.125 119.645 2.125 118.625 C4.53125 116.80078125 4.53125 116.80078125 7.625 114.9375 C8.6459375 114.31488281 9.666875 113.69226563 10.71875 113.05078125 C11.90984375 112.34501953 11.90984375 112.34501953 13.125 111.625 C12.94851171 104.37293579 11.1814215 98.6838756 8.18359375 92.09375 C7.125 89.625 7.125 89.625 7.125 87.625 C6.135 87.295 5.145 86.965 4.125 86.625 C3.13672718 84.91199378 2.15296982 83.19589542 1.2109375 81.45703125 C-2.62268857 74.98951101 -10.1419493 69.78908396 -16.875 66.625 C-16.875 65.965 -16.875 65.305 -16.875 64.625 C-20.505 63.965 -24.135 63.305 -27.875 62.625 C-27.875 61.965 -27.875 61.305 -27.875 60.625 C-35.135 59.965 -42.395 59.305 -49.875 58.625 C-48.885 55.655 -48.885 55.655 -47.875 52.625 C-46.92625 52.5425 -45.9775 52.46 -45 52.375 C-41.77038209 51.97425077 -41.77038209 51.97425077 -40.5 49.5625 C-40.29375 48.923125 -40.0875 48.28375 -39.875 47.625 C-39.215 47.625 -38.555 47.625 -37.875 47.625 C-37.7821875 46.92632812 -37.689375 46.22765625 -37.59375 45.5078125 C-34.67609189 33.80546639 -23.7130469 21.42529345 -14.5703125 14.08984375 C-10.67551056 10.72451949 -7.27524207 6.64996545 -4.3515625 2.421875 C-2.875 0.625 -2.875 0.625 0 0 Z " fill="#89D1EA" transform="translate(181.875,21.375)"/>
<path d="M0 0 C-0.33 2.97 -0.66 5.94 -1 9 C3.99497599 9.5628142 8.97416197 10.08655811 14 10.25 C14.721875 10.27578125 15.44375 10.3015625 16.1875 10.328125 C16.785625 10.21984375 17.38375 10.1115625 18 10 C18.66 9.01 19.32 8.02 20 7 C20.66 7 21.32 7 22 7 C22.12375 7.639375 22.2475 8.27875 22.375 8.9375 C22.58125 9.618125 22.7875 10.29875 23 11 C23.99 11.495 23.99 11.495 25 12 C25 12.66 25 13.32 25 14 C17.08 14.495 17.08 14.495 9 15 C9 15.99 9 16.98 9 18 C13.62 17.67 18.24 17.34 23 17 C19.99270073 24.51824818 19.99270073 24.51824818 17 27 C13.25323824 27.1243514 9.68627801 26.64192083 6 26 C6 26.99 6 27.98 6 29 C8.31 29 10.62 29 13 29 C10.34448421 35.31391253 4.33908292 39.63907903 -1.4375 43 C-4 44 -4 44 -6 44 C-6 44.66 -6 45.32 -6 46 C-8.91720544 46.97240181 -11.83464201 47.94394512 -14.75390625 48.91015625 C-16.70575802 49.5654711 -18.65292737 50.23536899 -20.58984375 50.93359375 C-24.8898482 52.46983465 -28.35631985 53.35720617 -33 53 C-33 53.66 -33 54.32 -33 55 C-39.28980721 56.40531484 -45.40897669 57.29503376 -51.84765625 57.65625 C-52.55792969 57.7696875 -53.26820313 57.883125 -54 58 C-54.495 58.99 -54.495 58.99 -55 60 C-52.69 60 -50.38 60 -48 60 C-49.28965176 61.37562854 -50.62689293 62.70766393 -52 64 C-52.66 64 -53.32 64 -54 64 C-54 64.66 -54 65.32 -54 66 C-55.328125 67.0859375 -55.328125 67.0859375 -57.25 68.375 C-61.34914466 71.33344911 -64.87965728 74.67831767 -68.4375 78.25 C-68.96956055 78.78157715 -69.50162109 79.3131543 -70.04980469 79.86083984 C-72.8710874 82.67032897 -72.8710874 82.67032897 -75 86 C-79.36660754 85.54089407 -81.33912542 82.89386866 -84.25 79.8125 C-89.41846847 74.45064755 -94.82176491 70.11882339 -101 66 C-101 65.34 -101 64.68 -101 64 C-97.7 64 -94.4 64 -91 64 C-91.33 63.34 -91.66 62.68 -92 62 C-93.15371094 61.99742187 -94.30742188 61.99484375 -95.49609375 61.9921875 C-105.80649881 61.80562235 -115.46426241 60.53896416 -125.5 58.125 C-127.11926392 57.73997314 -127.11926392 57.73997314 -128.77124023 57.34716797 C-133.55135558 56.13856034 -137.16304196 55.20602635 -141 52 C-140.67 51.01 -140.34 50.02 -140 49 C-139.67 49.66 -139.34 50.32 -139 51 C-136.52359992 51.43382191 -134.12148956 51.75354582 -131.625 52 C-126.94641844 52.48867196 -122.37485874 53.10830756 -117.76171875 54.04296875 C-111.55753527 55.19926161 -105.48593044 55.34314704 -99.1875 55.3125 C-98.0418457 55.30976074 -96.89619141 55.30702148 -95.71582031 55.30419922 C-88.5144818 55.21523068 -82.0441682 54.63304469 -75.07421875 52.78125 C-71.73743692 51.93327495 -68.4811295 51.51960318 -65.0625 51.125 C-54.41829514 49.6794907 -44.4269869 46.18095119 -35.05078125 40.91796875 C-33 40 -33 40 -29 40 C-29 39.34 -29 38.68 -29 38 C-28.11570312 37.59523437 -27.23140625 37.19046875 -26.3203125 36.7734375 C-23.02209848 35.01180319 -20.62020416 33.14645711 -17.875 30.625 C-17.04742187 29.87476563 -16.21984375 29.12453125 -15.3671875 28.3515625 C-13.02826123 26.02807469 -11.02156992 23.60039549 -9 21 C-8.29875 20.2575 -7.5975 19.515 -6.875 18.75 C-4.34864304 15.04467646 -3.72425223 11.37410228 -3 7 C-3.61488281 6.95101562 -4.22976562 6.90203125 -4.86328125 6.8515625 C-5.67152344 6.77679688 -6.47976562 6.70203125 -7.3125 6.625 C-8.11300781 6.55539063 -8.91351563 6.48578125 -9.73828125 6.4140625 C-12 6 -12 6 -15 4 C-15 3.01 -15 2.02 -15 1 C-9.91913204 0.15318867 -5.15171623 -0.09038099 0 0 Z " fill="#87D0E9" transform="translate(199,158)"/>
<path d="M0 0 C1.3125 3.625 1.3125 3.625 2 7 C2.66 7 3.32 7 4 7 C4.99 10.3 5.98 13.6 7 17 C7.66 17 8.32 17 9 17 C9.26554688 17.74765625 9.53109375 18.4953125 9.8046875 19.265625 C10.33449219 20.74289063 10.33449219 20.74289063 10.875 22.25 C11.39707031 23.71179687 11.39707031 23.71179687 11.9296875 25.203125 C12.90357151 27.9213904 12.90357151 27.9213904 14.09375 30.05078125 C17.55146101 37.4878407 16.11437422 48.00651298 16 56 C15.67 56 15.34 56 15 56 C14.89042969 55.154375 14.78085938 54.30875 14.66796875 53.4375 C13.8737539 47.75531244 13.08062975 42.45254896 10.84765625 37.15625 C9.73285001 34.32042951 8.91761213 31.42414815 8.0625 28.5 C6.50034399 23.30688676 4.52691042 18.78308044 2 14 C2 13.34 2 12.68 2 12 C1.34 12 0.68 12 0 12 C-1.04296875 10.3203125 -1.04296875 10.3203125 -2.1875 8.125 C-4.05143885 4.96634913 -5.23141087 3.47138855 -8.8125 2.5 C-10.3903125 2.2525 -10.3903125 2.2525 -12 2 C-12.25523437 2.57105469 -12.51046875 3.14210938 -12.7734375 3.73046875 C-15.87506955 9.46947582 -20.92713418 14.21584819 -25.9375 18.3125 C-34.8603707 25.90568801 -43.28308392 37.84925177 -47 49 C-47.66 49 -48.32 49 -49 49 C-49.66 50.65 -50.32 52.3 -51 54 C-52.98 54 -54.96 54 -57 54 C-57.144375 54.804375 -57.28875 55.60875 -57.4375 56.4375 C-58 59 -58 59 -59 60 C-61.67058851 60.14115161 -64.32432238 60.04247107 -67 60 C-67 58.35 -67 56.7 -67 55 C-69.64 55 -72.28 55 -75 55 C-74.979375 55.804375 -74.95875 56.60875 -74.9375 57.4375 C-75 60 -75 60 -76 61 C-78.18639453 61.07258946 -80.37500389 61.08373783 -82.5625 61.0625 C-84.35880859 61.04896484 -84.35880859 61.04896484 -86.19140625 61.03515625 C-87.11824219 61.02355469 -88.04507813 61.01195312 -89 61 C-89 60.34 -89 59.68 -89 59 C-90.98 59 -92.96 59 -95 59 C-95.33 60.98 -95.66 62.96 -96 65 C-100.455 65.495 -100.455 65.495 -105 66 C-105 64.68 -105 63.36 -105 62 C-105.99 62 -106.98 62 -108 62 C-108.23614014 61.1140918 -108.47228027 60.22818359 -108.71557617 59.31542969 C-110.15139284 55.60921596 -111.74971589 53.74792522 -114.55078125 50.953125 C-115.47133301 50.02991455 -116.39188477 49.1067041 -117.34033203 48.15551758 C-118.33028691 47.18622695 -119.3210232 46.21773381 -120.3125 45.25 C-120.80876892 44.75921967 -121.30503784 44.26843933 -121.81634521 43.76278687 C-129.11222556 36.54829354 -136.55464863 29.85812468 -145 24 C-145.72832031 23.42636719 -146.45664063 22.85273437 -147.20703125 22.26171875 C-148.91571893 20.80217414 -148.91571893 20.80217414 -151.0625 21 C-155.59158263 23.33759104 -157.30642698 29.41987533 -159 34 C-164.51879873 56.4158615 -165.56355516 83.99396195 -155 105 C-155 105.99 -155 106.98 -155 108 C-152.85753067 107.21266769 -152.85753067 107.21266769 -152.359375 105.28515625 C-152.15828125 104.55167969 -151.9571875 103.81820312 -151.75 103.0625 C-150.03915541 97.63318705 -147.57553178 92.46010344 -144 88 C-143.01 88 -142.02 88 -141 88 C-142.33920741 91.60555842 -144.02548894 94.70914824 -146 98 C-146.69822617 99.65369357 -147.37498605 101.31727014 -148 103 C-148.66 103 -149.32 103 -150 103 C-150.04898438 103.58007812 -150.09796875 104.16015625 -150.1484375 104.7578125 C-150.22320312 105.53898437 -150.29796875 106.32015625 -150.375 107.125 C-150.44460937 107.89070313 -150.51421875 108.65640625 -150.5859375 109.4453125 C-151 112 -151 112 -151.9765625 114.63671875 C-153.38969877 119.2806513 -153.64281954 123.86230936 -154 128.6875 C-154.95857776 140.53610213 -154.95857776 140.53610213 -156.125 146.1875 C-157.24091058 151.61767906 -158.5559612 158.88807759 -156 164 C-151.05 164 -146.1 164 -141 164 C-140.67 164.99 -140.34 165.98 -140 167 C-143.96 167 -147.92 167 -152 167 C-151.5359375 169.1346875 -151.5359375 169.1346875 -151.0625 171.3125 C-150.88847656 172.11300781 -150.71445313 172.91351563 -150.53515625 173.73828125 C-150.00113841 176.145401 -150.00113841 176.145401 -149 179 C-144.545 178.01 -144.545 178.01 -140 177 C-140.99 177.99 -141.98 178.98 -143 180 C-143.99 180 -144.98 180 -146 180 C-144.61725283 183.34163899 -143.20955991 185.25766748 -140 187 C-136.05613361 186.80280668 -134.05482461 185.3420322 -131 183 C-130.01 183 -129.02 183 -128 183 C-128 183.66 -128 184.32 -128 185 C-130 186.625 -130 186.625 -132 188 C-131.814375 188.61875 -131.62875 189.2375 -131.4375 189.875 C-131 192 -131 192 -132 194 C-132.99 194 -133.98 194 -135 194 C-135.12375 194.94875 -135.2475 195.8975 -135.375 196.875 C-136 200 -136 200 -138 202 C-139.65 202 -141.3 202 -143 202 C-142.67 198.7 -142.34 195.4 -142 192 C-143.32 191.34 -144.64 190.68 -146 190 C-146.66 189.01 -147.32 188.02 -148 187 C-150.02045442 187.60183749 -152.02111039 188.27306096 -154 189 C-154.495 189.99 -154.495 189.99 -155 191 C-156.98 191 -158.96 191 -161 191 C-161.375 188.3125 -161.375 188.3125 -161 185 C-159.184967 182.98874721 -157.20335164 181.61878896 -155 180 C-154.505 179.01 -154.505 179.01 -154 178 C-154.66 178 -155.32 178 -156 178 C-156.66 176.02 -157.32 174.04 -158 172 C-159.65 172.33 -161.3 172.66 -163 173 C-163 173.66 -163 174.32 -163 175 C-164.65 175 -166.3 175 -168 175 C-168 173.02 -168 171.04 -168 169 C-166.02 168.01 -164.04 167.02 -162 166 C-162.17917969 165.44054687 -162.35835937 164.88109375 -162.54296875 164.3046875 C-164.65118752 156.35734161 -163.09762495 149.82662214 -161 142 C-160.34 142 -159.68 142 -159 142 C-156.70766352 122.54779828 -156.70766352 122.54779828 -161 104.1171875 C-163.32868817 99.18691802 -164.35046253 93.43216919 -164 88 C-164.66 88 -165.32 88 -166 88 C-167.1521548 80.89504542 -167.1523835 73.82651804 -167.13037109 66.64624023 C-167.1250212 64.57072616 -167.13033635 62.49542929 -167.13671875 60.41992188 C-167.14934073 42.10241599 -167.14934073 42.10241599 -164 36 C-163.41076456 33.76198651 -162.87225083 31.51023105 -162.375 29.25 C-161.98441406 27.49429688 -161.98441406 27.49429688 -161.5859375 25.703125 C-161.29589844 24.36507812 -161.29589844 24.36507812 -161 23 C-160.34 23 -159.68 23 -159 23 C-158.773125 22.195625 -158.54625 21.39125 -158.3125 20.5625 C-157.879375 19.716875 -157.44625 18.87125 -157 18 C-154.375 17.1875 -154.375 17.1875 -152 17 C-152 16.34 -152 15.68 -152 15 C-150.68 15 -149.36 15 -148 15 C-148 15.66 -148 16.32 -148 17 C-147.4225 17.12375 -146.845 17.2475 -146.25 17.375 C-143.94900359 18.01416567 -142.05890385 18.79305636 -140 20 C-139.67 20.66 -139.34 21.32 -139 22 C-138.360625 22.309375 -137.72125 22.61875 -137.0625 22.9375 C-135 24 -135 24 -133 27 C-132.01 27.33 -131.02 27.66 -130 28 C-128.28891311 29.62102968 -126.62746694 31.29503463 -125 33 C-124.175 33.825 -123.35 34.65 -122.5 35.5 C-121.675 36.325 -120.85 37.15 -120 38 C-119.236875 38.7425 -118.47375 39.485 -117.6875 40.25 C-114.65581932 43.35218488 -111.80510977 46.58662736 -108.9375 49.83984375 C-106.70826256 52.32526372 -104.39725643 54.67765783 -102 57 C-102 56.34 -102 55.68 -102 55 C-98.98017116 54.49317558 -95.95937183 53.99436665 -92.9375 53.5 C-92.08994141 53.35691406 -91.24238281 53.21382812 -90.36914062 53.06640625 C-85.50727611 52.27799579 -80.92471814 51.83962926 -76 52 C-76 51.34 -76 50.68 -76 50 C-68.41 49.34 -60.82 48.68 -53 48 C-52.34 46.35 -51.68 44.7 -51 43 C-50.34 43 -49.68 43 -49 43 C-48.81824219 42.38511719 -48.63648438 41.77023438 -48.44921875 41.13671875 C-48.19785156 40.32847656 -47.94648438 39.52023438 -47.6875 38.6875 C-47.44386719 37.88699219 -47.20023437 37.08648437 -46.94921875 36.26171875 C-45.94880957 33.87802775 -44.88526709 32.72309358 -43 31 C-42.5359375 30.0409375 -42.5359375 30.0409375 -42.0625 29.0625 C-40.76346141 26.54083686 -39.0289094 24.96550599 -37 23 C-36.01 21.515 -36.01 21.515 -35 20 C-34.00936394 18.99072294 -33.00887709 17.9910434 -32 17 C-31.07528479 15.902565 -30.1588875 14.79807882 -29.25 13.6875 C-26.59764676 10.54568507 -23.70565564 8.01457687 -20.53125 5.41796875 C-18.77786186 3.92683755 -18.77786186 3.92683755 -17.3125 1.1875 C-16 -1 -16 -1 -14.25 -1.8125 C-4.05144695 -2.66237942 -4.05144695 -2.66237942 0 0 Z " fill="#0D2C29" transform="translate(191,20)"/>
<path d="M0 0 C0.99 0.33 1.98 0.66 3 1 C1.7934375 1.8971875 1.7934375 1.8971875 0.5625 2.8125 C-2.22327984 4.80947276 -2.22327984 4.80947276 -3 8 C-2.01 7.34 -1.02 6.68 0 6 C3.375 5.8125 3.375 5.8125 7 7 C9.14113479 9.76663484 10.49124708 12.8575974 12 16 C12.81446059 17.30364918 13.64733951 18.59600926 14.5 19.875 C18.81779048 26.72061085 22.45607142 33.84107124 23 42 C23.66 42 24.32 42 25 42 C25.495 45.96 25.495 45.96 26 50 C23.03 50.495 23.03 50.495 20 51 C20.33 52.32 20.66 53.64 21 55 C16.545 55.495 16.545 55.495 12 56 C12 56.66 12 57.32 12 58 C13.32 58 14.64 58 16 58 C16 59.32 16 60.64 16 62 C14.515 62.495 14.515 62.495 13 63 C12.67 63.825 12.34 64.65 12 65.5 C11.67 66.325 11.34 67.15 11 68 C9.515 68.495 9.515 68.495 8 69 C6.14538654 71.79832765 6.14538654 71.79832765 4.4375 75.1875 C3.83808594 76.31542969 3.23867188 77.44335938 2.62109375 78.60546875 C1.14268466 81.70122176 -0.00045474 84.72288395 -1 88 C-1.66 88 -2.32 88 -3 88 C-12.27417641 65.9325921 -13.22684431 43.81531925 -9.3125 20.25 C-9.16417725 19.32904541 -9.01585449 18.40809082 -8.86303711 17.45922852 C-7.55418639 10.5684204 -4.99747837 4.99747837 0 0 Z " fill="#F4B0CA" transform="translate(39,40)"/>
<path d="M0 0 C3.51762791 3.63327595 3.75933211 7.6211023 4.1875 12.4375 C4.3102832 13.67222046 4.3102832 13.67222046 4.43554688 14.93188477 C5.09771847 22.33749502 5.12819925 29.71542348 4.92651367 37.14428711 C4.90951416 37.9822583 4.89251465 38.82022949 4.875 39.68359375 C4.84019531 40.79045532 4.84019531 40.79045532 4.8046875 41.91967773 C5.03277013 44.34904279 5.79852765 45.89270411 7 48 C8.83372888 51.50075513 10.03353087 55.01946754 11.21875 58.78125 C11.932645 60.98775782 11.932645 60.98775782 13 62.87109375 C14.7958828 66.69435987 15.35915096 70.88810867 16.21875 75.00390625 C16.86537408 78.15210539 16.86537408 78.15210539 19 81 C20.6740567 84.68292475 22.01709624 88.06838496 23 92 C26.96 92 30.92 92 35 92 C35 93.65 35 95.3 35 97 C33.02 97 31.04 97 29 97 C29 97.66 29 98.32 29 99 C27.02 99 25.04 99 23 99 C23 99.66 23 100.32 23 101 C22.34 101 21.68 101 21 101 C20.67 103.31 20.34 105.62 20 108 C21.175625 107.979375 22.35125 107.95875 23.5625 107.9375 C27.47413467 107.93052739 31.14497944 108.35749657 35 109 C35 110.65 35 112.3 35 114 C32.16730334 115.41634833 29.52533562 115.3463005 26.375 115.5625 C25.18648437 115.64628906 23.99796875 115.73007813 22.7734375 115.81640625 C21.85820312 115.87699219 20.94296875 115.93757813 20 116 C19.34 117.65 18.68 119.3 18 121 C17.34 121 16.68 121 16 121 C16 121.99 16 122.98 16 124 C17.32 124 18.64 124 20 124 C20 124.66 20 125.32 20 126 C21.65 126.33 23.3 126.66 25 127 C25 128.65 25 130.3 25 132 C19.1977825 132.36263859 15.36000789 131.25684543 10 129 C9.51789063 129.5775 9.03578125 130.155 8.5390625 130.75 C7.90742188 131.4925 7.27578125 132.235 6.625 133 C5.99851563 133.7425 5.37203125 134.485 4.7265625 135.25 C4.15679687 135.8275 3.58703125 136.405 3 137 C2.34 137 1.68 137 1 137 C-0.2236068 139.0745356 -0.2236068 139.0745356 0 142 C0.99 142.66 1.98 143.32 3 144 C3.6875 146.125 3.6875 146.125 4 149 C4.07605469 149.63679687 4.15210938 150.27359375 4.23046875 150.9296875 C4.52499026 155.14850919 4.35980507 156.54550938 1.625 160 C-1 162 -1 162 -3 162 C-3.15855469 161.21496094 -3.31710938 160.42992187 -3.48046875 159.62109375 C-4.96733059 152.9261081 -6.57564828 148.26139123 -11 143 C-10.18595703 142.44505859 -10.18595703 142.44505859 -9.35546875 141.87890625 C-6.37134044 139.49853192 -3.86481311 136.76025688 -1.3125 133.9375 C-0.56516602 133.12442383 -0.56516602 133.12442383 0.19726562 132.29492188 C2.90439597 129.36661381 2.90439597 129.36661381 5 126 C2.69 126 0.38 126 -2 126 C-2 125.01 -2 124.02 -2 123 C-1.27554688 123.10441406 -0.55109375 123.20882812 0.1953125 123.31640625 C3.34142166 123.58067942 5.90211256 123.65017391 9 123 C11.86799227 120.2187523 13.14169882 117.61615364 15 114 C10.38 114.33 5.76 114.66 1 115 C1 114.01 1 113.02 1 112 C4.46222615 110.93276039 7.64039266 110.89826514 11.25 110.9375 C12.32765625 110.94652344 13.4053125 110.95554687 14.515625 110.96484375 C15.74539062 110.98224609 15.74539062 110.98224609 17 111 C17 110.34 17 109.68 17 109 C15.515 108.505 15.515 108.505 14 108 C14 106.68 14 105.36 14 104 C13.34 104 12.68 104 12 104 C11.34 105.32 10.68 106.64 10 108 C3.30574587 108.21594368 -2.46296317 107.47313506 -9 106 C-8.67 102.7 -8.34 99.4 -8 96 C1.24444596 93.94696746 9.518388 92.33268264 19 94 C18.4946875 92.95199219 17.989375 91.90398437 17.46875 90.82421875 C16.81219673 89.44545688 16.15596335 88.06654264 15.5 86.6875 C15.16613281 85.99720703 14.83226562 85.30691406 14.48828125 84.59570312 C12 79.33984375 12 79.33984375 12 76 C10.90300781 76.28875 9.80601562 76.5775 8.67578125 76.875 C7.22143543 77.25031505 5.76700377 77.62529755 4.3125 78 C3.2306543 78.28617188 3.2306543 78.28617188 2.12695312 78.578125 C-1.66850961 79.54865428 -5.04615439 80.24955239 -9 80 C-10.63551876 76.72896248 -10.8145576 73.50785289 -10 70 C-8.42596371 68.17515573 -6.7530892 66.87726708 -4.8125 65.453125 C-2.96066637 63.96846528 -1.95986326 62.64774015 -0.75 60.625 C0.11625 59.325625 0.11625 59.325625 1 58 C1.99 58 2.98 58 4 58 C3.71758359 56.53984709 3.42373386 55.08190207 3.125 53.625 C2.96257812 52.81289062 2.80015625 52.00078125 2.6328125 51.1640625 C2.13341068 48.81326077 2.13341068 48.81326077 0 47 C-0.28520203 45.0645752 -0.28520203 45.0645752 -0.3347168 42.67382812 C-0.36936287 41.33233704 -0.36936287 41.33233704 -0.40470886 39.96374512 C-0.41939713 38.99602173 -0.43408539 38.02829834 -0.44921875 37.03125 C-0.47095657 36.04000122 -0.4926944 35.04875244 -0.51509094 34.02746582 C-0.55905066 31.92937264 -0.59824065 29.83117498 -0.63305664 27.73291016 C-0.68728092 24.51300896 -0.75745522 21.29375209 -0.83007812 18.07421875 C-0.87073642 16.03908116 -0.91048078 14.00392505 -0.94921875 11.96875 C-0.96997971 11.00102661 -0.99074066 10.03330322 -1.01213074 9.03625488 C-1.03259209 7.69476379 -1.03259209 7.69476379 -1.0534668 6.32617188 C-1.06741989 5.53722534 -1.08137299 4.74827881 -1.0957489 3.9354248 C-1 2 -1 2 0 0 Z " fill="#0A2825" transform="translate(207,61)"/>
<path d="M0 0 C4.41777297 0.88355459 5.6603522 2.96323756 8.125 6.625 C8.9375 9 8.9375 9 9.125 10.625 C9.785 10.625 10.445 10.625 11.125 10.625 C15.53069213 19.33040541 18.56789758 27.88866961 21.14453125 37.265625 C21.77861332 40.43883866 21.77861332 40.43883866 23.125 41.625 C25.4095076 52.0572255 25.50014348 62.59626768 25.65673828 73.21459961 C25.69061724 75.30865328 25.73561694 77.4022684 25.78125 79.49609375 C25.80928711 81.33578735 25.80928711 81.33578735 25.83789062 83.21264648 C26.12777351 86.65796374 26.99167531 89.37687108 28.125 92.625 C28.125 93.945 28.125 95.265 28.125 96.625 C26.64 96.13 26.64 96.13 25.125 95.625 C24.09765625 93.1484375 24.09765625 93.1484375 23.1875 90 C21.65743502 85.03762711 19.81205666 81.03945023 17.125 76.625 C17.125 75.965 17.125 75.305 17.125 74.625 C16.48046875 74.39039062 15.8359375 74.15578125 15.171875 73.9140625 C13.125 72.625 13.125 72.625 12.515625 70.4609375 C12.46921875 69.64882812 12.4228125 68.83671875 12.375 68 C12.28992188 66.77410156 12.28992188 66.77410156 12.203125 65.5234375 C12.16445312 64.58371094 12.16445312 64.58371094 12.125 63.625 C11.465 63.625 10.805 63.625 10.125 63.625 C6.69717025 46.05321254 6.98640022 28.45106357 7.125 10.625 C3.29481115 8.59005361 3.29481115 8.59005361 -0.875 7.625 C-8.69547914 12.41403568 -12.27489818 21.61477345 -15.875 29.625 C-16.535 29.625 -17.195 29.625 -17.875 29.625 C-17.875 30.285 -17.875 30.945 -17.875 31.625 C-18.535 31.625 -19.195 31.625 -19.875 31.625 C-19.96652344 32.29917969 -20.05804688 32.97335938 -20.15234375 33.66796875 C-21.05852775 37.37597572 -22.68783099 40.57328493 -24.4375 43.9375 C-24.76685547 44.58267578 -25.09621094 45.22785156 -25.43554688 45.89257812 C-26.24324255 47.47285228 -27.05837613 49.04932105 -27.875 50.625 C-31.505 50.625 -35.135 50.625 -38.875 50.625 C-37.43180854 37.5374281 -26.05018958 23.6012792 -16.1875 15.375 C-15.36958984 14.72144531 -15.36958984 14.72144531 -14.53515625 14.0546875 C-10.64959507 10.70853364 -7.26376623 6.63336963 -4.3515625 2.421875 C-2.875 0.625 -2.875 0.625 0 0 Z " fill="#E9EBEC" transform="translate(181.875,21.375)"/>
<path d="M0 0 C2.54898983 1.13563944 4.03963041 1.8521771 6.0078125 3.89453125 C6.49256952 6.94562656 6.72824431 9.66910849 6.80078125 12.734375 C6.83714188 13.61170792 6.8735025 14.48904083 6.91096497 15.39295959 C7.02385858 18.20563624 7.11032775 21.01838587 7.1953125 23.83203125 C7.29651375 26.60697427 7.40312416 29.38167466 7.51004028 32.15640259 C7.57839483 33.94600663 7.64440704 35.7357018 7.70797729 37.52548218 C7.94442472 44.00524378 8.35658326 50.44159351 9.0078125 56.89453125 C9.6678125 56.89453125 10.3278125 56.89453125 11.0078125 56.89453125 C11.6678125 59.86453125 12.3278125 62.83453125 13.0078125 65.89453125 C9.15965817 64.93249267 7.97671254 64.23366461 5.0078125 61.89453125 C3.34456849 60.88884883 1.67844997 59.88788326 0.0078125 58.89453125 C-0.4871875 58.39953125 -0.4871875 58.39953125 -0.9921875 57.89453125 C-0.9921875 55.91453125 -0.9921875 53.93453125 -0.9921875 51.89453125 C-5.6121875 51.89453125 -10.2321875 51.89453125 -14.9921875 51.89453125 C-13.3421875 48.92453125 -11.6921875 45.95453125 -9.9921875 42.89453125 C-11.0028125 43.20390625 -12.0134375 43.51328125 -13.0546875 43.83203125 C-16.6653244 44.87101044 -20.26093397 45.43764306 -23.9921875 45.89453125 C-23.84987942 44.47750612 -23.70318004 43.06092165 -23.5546875 41.64453125 C-23.47347656 40.855625 -23.39226562 40.06671875 -23.30859375 39.25390625 C-23.01583757 37.07088486 -22.57154331 35.01721305 -21.9921875 32.89453125 C-21.3321875 32.89453125 -20.6721875 32.89453125 -19.9921875 32.89453125 C-19.8375 31.68796875 -19.8375 31.68796875 -19.6796875 30.45703125 C-17.42653196 18.78158889 -12.1660102 9.720874 -3.921875 1.1953125 C-1.9921875 -0.10546875 -1.9921875 -0.10546875 0 0 Z " fill="#D6789D" transform="translate(182.9921875,28.10546875)"/>
<path d="M0 0 C2.5 1.375 2.5 1.375 5 3 C5 3.66 5 4.32 5 5 C5.66 5 6.32 5 7 5 C8.48046875 6.50390625 8.48046875 6.50390625 10.1875 8.5625 C13.17144417 12.08442992 16.29529143 15.35196259 19.6171875 18.5546875 C21 20 21 20 22 22 C22.66 21.01 23.32 20.02 24 19 C24 20.65 24 22.3 24 24 C24.99 24 25.98 24 27 24 C27 25.32 27 26.64 27 28 C29.97 27.67 32.94 27.34 36 27 C36.33 25.02 36.66 23.04 37 21 C38.98 21 40.96 21 43 21 C43 21.66 43 22.32 43 23 C47.29 23 51.58 23 56 23 C56 29.2416476 56 29.2416476 54 33 C53.57879166 35.01363199 53.2289998 37.04280134 52.9296875 39.078125 C52.75566406 40.23828125 52.58164063 41.3984375 52.40234375 42.59375 C52.22832031 43.8003125 52.05429688 45.006875 51.875 46.25 C51.69324219 47.47203125 51.51148438 48.6940625 51.32421875 49.953125 C50.87671243 52.96790443 50.43555134 55.98347415 50 59 C49.01 58.67 48.02 58.34 47 58 C43.42553191 40.85106383 43.42553191 40.85106383 44 32 C43.34 32 42.68 32 42 32 C42 30.02 42 28.04 42 26 C40.35 26 38.7 26 37 26 C37.01160156 26.68964844 37.02320313 27.37929687 37.03515625 28.08984375 C37.09342124 34.15772652 36.78903948 39.98357396 36 46 C35.01 46.33 34.02 46.66 33 47 C32.32635339 44.91891315 31.66133202 42.8350329 31 40.75 C30.62875 39.58984375 30.2575 38.4296875 29.875 37.234375 C29 34 29 34 29 30 C27.35153231 30.44876616 25.70626545 30.90930488 24.0625 31.375 C23.14597656 31.63023438 22.22945312 31.88546875 21.28515625 32.1484375 C18.83254913 32.76660104 18.83254913 32.76660104 18 35 C15.4375 35.625 15.4375 35.625 13 36 C12.7733667 35.39526855 12.5467334 34.79053711 12.31323242 34.16748047 C11.27467314 31.40204834 10.23113154 28.63852171 9.1875 25.875 C8.83107422 24.92367187 8.47464844 23.97234375 8.10742188 22.9921875 C6.63840384 19.11074535 5.16997662 15.33995325 3.3125 11.625 C2.04360198 9.08720397 1.35853821 6.897194 0.8125 4.125 C0.65394531 3.34382813 0.49539062 2.56265625 0.33203125 1.7578125 C0.22246094 1.17773438 0.11289062 0.59765625 0 0 Z " fill="#A4ABAF" transform="translate(59,58)"/>
<path d="M0 0 C0 0.66 0 1.32 0 2 C0.7425 2.185625 1.485 2.37125 2.25 2.5625 C5.24515001 4.1281466 6.71625282 5.66587081 8.27734375 8.66796875 C10.30630824 15.215492 9.98957001 22.83605021 7 29 C5.11423505 31.18748735 3.72709546 31.89019921 0.87890625 32.3203125 C-3.10852588 32.51673773 -5.27459113 32.53078698 -8.5625 30.125 C-10 28 -10 28 -10 26 C-10.99 25.67 -11.98 25.34 -13 25 C-15.03792146 18.88623561 -15.45700307 10.5000332 -12.94140625 4.45703125 C-9.2165895 -0.4387306 -5.90163383 -0.71226615 0 0 Z " fill="#12312C" transform="translate(166,137)"/>
<path d="M0 0 C1.98 0 3.96 0 6 0 C6.144375 0.804375 6.28875 1.60875 6.4375 2.4375 C6.74135249 4.92103706 6.74135249 4.92103706 8 6 C10.70290822 5.74016241 13.373274 5.42664246 16.0625 5.0625 C21.76423717 4.29199498 27.24208092 3.88889373 33 4 C32.66367155 6.83127405 32.26507285 7.78866511 29.99609375 9.59765625 C17.06666667 17 17.06666667 17 11 17 C11 17.66 11 18.32 11 19 C5.05788236 21.53032584 -0.89997671 24.01758311 -6.9375 26.3125 C-8.21947266 26.80169922 -8.21947266 26.80169922 -9.52734375 27.30078125 C-12.13301903 28.03761518 -14.30622306 28.13011087 -17 28 C-17 27.34 -17 26.68 -17 26 C-17.66 25.67 -18.32 25.34 -19 25 C-16.78340239 22.6958874 -14.5496827 20.4091166 -12.3125 18.125 C-11.68666016 17.47402344 -11.06082031 16.82304687 -10.41601562 16.15234375 C-7.1718166 12.85718872 -4.59455987 10.24747132 0 9 C0 8.34 0 7.68 0 7 C2.5 5.375 2.5 5.375 5 4 C2.03 3.505 2.03 3.505 -1 3 C-0.67 2.01 -0.34 1.02 0 0 Z " fill="#314746" transform="translate(145,215)"/>
<path d="M0 0 C4.24959638 6.37439457 6.79415266 12.86944399 8.75 20.25 C8.97042969 21.03890625 9.19085938 21.8278125 9.41796875 22.640625 C10.41850288 26.31960764 11 29.12931893 11 33 C11.66 33 12.32 33 13 33 C13.9097804 40.39927377 14.12410745 47.67523781 14.0625 55.125 C14.05798828 56.176875 14.05347656 57.22875 14.04882812 58.3125 C14.03718011 60.87506221 14.02082553 63.43749877 14 66 C12.68 65.67 11.36 65.34 10 65 C10 64.34 10 63.68 10 63 C9.35546875 62.76539063 8.7109375 62.53078125 8.046875 62.2890625 C6 61 6 61 5.390625 58.8359375 C5.34421875 58.02382812 5.2978125 57.21171875 5.25 56.375 C5.19328125 55.55773437 5.1365625 54.74046875 5.078125 53.8984375 C5.05234375 53.27195313 5.0265625 52.64546875 5 52 C4.34 52 3.68 52 3 52 C-0.36431043 34.75382613 -0.14243862 17.4958448 0 0 Z " fill="#F5B2CC" transform="translate(189,33)"/>
<path d="M0 0 C1.59811523 0.00676758 1.59811523 0.00676758 3.22851562 0.01367188 C5.83990291 0.02538213 8.45117124 0.04178276 11.0625 0.0625 C11.0625 4.0625 11.0625 4.0625 9.15625 6.140625 C8.3003125 6.85734375 7.444375 7.5740625 6.5625 8.3125 C3.10473633 11.28824256 -0.26765857 14.2793912 -3.5 17.5 C-4.14066406 18.13808594 -4.78132813 18.77617187 -5.44140625 19.43359375 C-7.02474519 21.00727382 -7.02474519 21.00727382 -7.9375 23.0625 C-12.25518968 22.61758584 -14.44625471 19.81522391 -17.25 16.8125 C-21.20930708 12.69920143 -25.13169192 9.15957632 -29.9375 6.0625 C-29.6075 5.0725 -29.2775 4.0825 -28.9375 3.0625 C-25.6375 3.0625 -22.3375 3.0625 -18.9375 3.0625 C-18.9375 2.4025 -18.9375 1.7425 -18.9375 1.0625 C-12.61160373 -0.07705862 -6.41471662 -0.0517637 0 0 Z " fill="#F3F5F5" transform="translate(131.9375,220.9375)"/>
<path d="M0 0 C0.33 0 0.66 0 1 0 C1.33 2.97 1.66 5.94 2 9 C3.64548828 8.566875 3.64548828 8.566875 5.32421875 8.125 C6.77856457 7.74968495 8.23299623 7.37470245 9.6875 7 C10.40873047 6.80921875 11.12996094 6.6184375 11.87304688 6.421875 C15.66850961 5.45134572 19.04615439 4.75044761 23 5 C23.25394531 5.66386719 23.50789063 6.32773438 23.76953125 7.01171875 C25.56089397 11.60753696 27.44005442 15.77608979 30 20 C30 20.99 30 21.98 30 23 C29.31035156 22.97679687 28.62070313 22.95359375 27.91015625 22.9296875 C22.42654401 22.82437807 17.55319029 23.0636626 12.265625 24.5625 C10 25 10 25 3 25 C3 20.05 3 15.1 3 10 C2.01 10.33 1.02 10.66 0 11 C-2.06145107 11.068991 -4.12501401 11.08467727 -6.1875 11.0625 C-7.81751953 11.04896484 -7.81751953 11.04896484 -9.48046875 11.03515625 C-10.31191406 11.02355469 -11.14335937 11.01195312 -12 11 C-12 10.01 -12 9.02 -12 8 C-9.62890625 6.2109375 -9.62890625 6.2109375 -6.5625 4.375 C-3.09234338 2.43951068 -3.09234338 2.43951068 0 0 Z " fill="#91D1E7" transform="translate(196,132)"/>
<path d="M0 0 C3.81355827 2.60927671 5.03054232 5.55665229 6 10 C6.62958936 16.22911902 6.60850156 21.98577133 3.40234375 27.51953125 C1.6795619 29.3382898 0.50622455 29.80897264 -1.9375 30.3125 C-5.26880063 30.39314601 -5.99083485 30.00637576 -8.875 28 C-13.02950371 22.13481829 -13.62379857 15.98909012 -13 9 C-12.27729127 5.99797912 -11.45315432 3.75525719 -9.875 1.125 C-6.74516234 -0.7529026 -3.48548029 -0.62668232 0 0 Z " fill="#0D2C28" transform="translate(76,151)"/>
<path d="M0 0 C4.18845446 1.25653634 4.41967046 1.56951763 6.375 5.1875 C7.16783839 6.83276921 7.95951746 8.47859761 8.75 10.125 C9.56446059 11.42864918 10.39733951 12.72100926 11.25 14 C15.56779048 20.84561085 19.20607142 27.96607124 19.75 36.125 C20.41 36.125 21.07 36.125 21.75 36.125 C22.08 38.765 22.41 41.405 22.75 44.125 C19.78 44.62 19.78 44.62 16.75 45.125 C17.08 46.445 17.41 47.765 17.75 49.125 C16.79287109 49.30675781 16.79287109 49.30675781 15.81640625 49.4921875 C14.57697266 49.74355469 14.57697266 49.74355469 13.3125 50 C12.07693359 50.24363281 12.07693359 50.24363281 10.81640625 50.4921875 C10.13449219 50.70101562 9.45257813 50.90984375 8.75 51.125 C8.42 51.785 8.09 52.445 7.75 53.125 C9.07 53.125 10.39 53.125 11.75 53.125 C11.75 53.785 11.75 54.445 11.75 55.125 C9.44 54.795 7.13 54.465 4.75 54.125 C5.5 46.375 5.5 46.375 7.75 44.125 C8.71832624 38.46401582 8.96085235 32.86013029 9 27.125 C9.020625 26.36960937 9.04125 25.61421875 9.0625 24.8359375 C9.10065833 19.28389996 8.11744613 15.16965157 5.75 10.125 C4.76 9.465 3.77 8.805 2.75 8.125 C1.5625 6 1.5625 6 0.75 4.125 C-1.23 4.455 -3.21 4.785 -5.25 5.125 C-4.12859825 0.15879224 -4.12859825 0.15879224 0 0 Z " fill="#C17190" transform="translate(42.25,45.875)"/>
<path d="M0 0 C2.5 1.375 2.5 1.375 5 3 C5 3.66 5 4.32 5 5 C5.66 5 6.32 5 7 5 C8.48046875 6.50390625 8.48046875 6.50390625 10.1875 8.5625 C13.17144417 12.08442992 16.29529143 15.35196259 19.6171875 18.5546875 C21 20 21 20 22 22 C22.66 21.01 23.32 20.02 24 19 C24 20.65 24 22.3 24 24 C24.99 24 25.98 24 27 24 C27.33 25.98 27.66 27.96 28 30 C27.36191406 30.19335938 26.72382812 30.38671875 26.06640625 30.5859375 C24.82697266 30.97652344 24.82697266 30.97652344 23.5625 31.375 C22.73878906 31.63023438 21.91507813 31.88546875 21.06640625 32.1484375 C18.82201984 32.80882227 18.82201984 32.80882227 18 35 C15.4375 35.625 15.4375 35.625 13 36 C12.7733667 35.39526855 12.5467334 34.79053711 12.31323242 34.16748047 C11.27467314 31.40204834 10.23113154 28.63852171 9.1875 25.875 C8.83107422 24.92367187 8.47464844 23.97234375 8.10742188 22.9921875 C6.63840384 19.11074535 5.16997662 15.33995325 3.3125 11.625 C2.04360198 9.08720397 1.35853821 6.897194 0.8125 4.125 C0.65394531 3.34382813 0.49539062 2.56265625 0.33203125 1.7578125 C0.22246094 1.17773438 0.11289062 0.59765625 0 0 Z " fill="#91D6ED" transform="translate(59,58)"/>
<path d="M0 0 C8.75732833 -1.04622949 14.48246747 1.74520886 22 6 C24.77059993 7.53033137 25.7587862 8 29 8 C31.48046875 10.1875 31.48046875 10.1875 34.1875 13 C35.08855469 13.928125 35.98960938 14.85625 36.91796875 15.8125 C37.60503906 16.534375 38.29210937 17.25625 39 18 C37 20 37 20 33.875 20.125 C32.92625 20.08375 31.9775 20.0425 31 20 C31 19.34 31 18.68 31 18 C30.19175781 17.87882812 29.38351563 17.75765625 28.55078125 17.6328125 C27.48214844 17.46523437 26.41351563 17.29765625 25.3125 17.125 C24.25675781 16.96257812 23.20101562 16.80015625 22.11328125 16.6328125 C19.20205086 16.04106931 16.71044393 15.1968194 14 14 C14 13.34 14 12.68 14 12 C13.42378906 11.86335937 12.84757812 11.72671875 12.25390625 11.5859375 C10.09982362 11.02595068 8.03216349 10.37568865 5.9375 9.625 C5.26589844 9.39039063 4.59429687 9.15578125 3.90234375 8.9140625 C1.75463554 7.88210414 0.47402139 6.87051448 -1 5 C-0.6875 2.3125 -0.6875 2.3125 0 0 Z " fill="#2F4645" transform="translate(81,224)"/>
<path d="M0 0 C1.6711528 5.51124859 -0.88624922 9.86660525 -3 15 C-3.66 15 -4.32 15 -5 15 C-5 15.66 -5 16.32 -5 17 C-5.66 17 -6.32 17 -7 17 C-7.09152344 17.67417969 -7.18304688 18.34835938 -7.27734375 19.04296875 C-8.18352775 22.75097572 -9.81283099 25.94828493 -11.5625 29.3125 C-12.0565332 30.28026367 -12.0565332 30.28026367 -12.56054688 31.26757812 C-13.36824255 32.84785228 -14.18337613 34.42432105 -15 36 C-18.63 36 -22.26 36 -26 36 C-25.48137201 30.99676523 -23.78257245 27.26440508 -21.25 23 C-20.91484375 22.40960938 -20.5796875 21.81921875 -20.234375 21.2109375 C-16.70814674 15.14689345 -13.08932819 10.62460011 -7 7 C-4.57558165 4.75273122 -2.27731825 2.39545003 0 0 Z " fill="#EAF0F1" transform="translate(169,36)"/>
<path d="M0 0 C0.33 0 0.66 0 1 0 C1.16774111 5.03223338 0.97166755 9.55522724 0.0078125 14.5 C-1.13268503 21.11589947 -1.30429973 27.54854828 -1.25 34.25 C-1.24540771 35.42643066 -1.24081543 36.60286133 -1.23608398 37.81494141 C-1.12602575 48.41989048 -0.16010756 58.60813121 2 69 C0.68 69 -0.64 69 -2 69 C-2 68.01 -2 67.02 -2 66 C-2.66 66 -3.32 66 -4 66 C-10.09428591 46.70142796 -8.04198507 24.53626117 -4 5 C-3.34 5 -2.68 5 -2 5 C-1.855625 4.360625 -1.71125 3.72125 -1.5625 3.0625 C-1 1 -1 1 0 0 Z " fill="#EEECEE" transform="translate(35,49)"/>
<path d="M0 0 C0.495 0.99 0.495 0.99 1 2 C-0.65 2.33 -2.3 2.66 -4 3 C-4 3.66 -4 4.32 -4 5 C-5.43554025 5.50559908 -6.8735202 6.0042749 -8.3125 6.5 C-9.51326172 6.91765625 -9.51326172 6.91765625 -10.73828125 7.34375 C-13 8 -13 8 -16 8 C-16 8.66 -16 9.32 -16 10 C-17.89385437 10.50744423 -19.79018666 11.00564574 -21.6875 11.5 C-22.74324219 11.7784375 -23.79898438 12.056875 -24.88671875 12.34375 C-27.71142672 12.9391715 -30.12836708 13.12786492 -33 13 C-33 13.66 -33 14.32 -33 15 C-39.93 15 -46.86 15 -54 15 C-51.35215001 11.02822502 -48.38588787 10.71093968 -44 9.5625 C-39.05235215 8.19775655 -34.23456732 6.82019627 -29.5 4.8125 C-20.1834364 0.90961525 -10.05798632 -0.26468385 0 0 Z " fill="#304545" transform="translate(184,235)"/>
<path d="M0 0 C2.99289209 3.27792943 4.06788649 6.82186917 5.3515625 10.9765625 C5.95535919 13.03815344 5.95535919 13.03815344 7 15 C7.04022391 17.3329866 7.04320247 19.66706666 7 22 C4.60612843 22.67449966 2.21030779 23.33976641 -0.1875 24 C-0.86103516 24.19078125 -1.53457031 24.3815625 -2.22851562 24.578125 C-5.90555156 25.5825836 -9.1850182 26.23704741 -13 26 C-14.63551876 22.72896248 -14.8145576 19.50785289 -14 16 C-12.42596371 14.17515573 -10.7530892 12.87726708 -8.8125 11.453125 C-6.96066637 9.96846528 -5.95986326 8.64774015 -4.75 6.625 C-3.88375 5.325625 -3.88375 5.325625 -3 4 C-2.01 4 -1.02 4 0 4 C0 2.68 0 1.36 0 0 Z " fill="#3B5A6B" transform="translate(211,115)"/>
<path d="M0 0 C-0.66 1.32 -1.32 2.64 -2 4 C-2.66 4 -3.32 4 -4 4 C-4.33 4.99 -4.66 5.98 -5 7 C-5.86625 7.7734375 -5.86625 7.7734375 -6.75 8.5625 C-11.24698674 13.43423563 -13.58500368 19.89265393 -16 26 C-16.495 27.093125 -16.99 28.18625 -17.5 29.3125 C-19.0848009 33.20846887 -20.06651431 36.9070243 -21 41 C-20.41476563 40.83886719 -19.82953125 40.67773438 -19.2265625 40.51171875 C-16.09179928 39.79127317 -13.20221862 39.82209897 -10 40 C-9.34 40.66 -8.68 41.32 -8 42 C-8.3269756 44.61580479 -8.82039068 46.64078137 -10 49 C-8.01432292 48.96744792 -6.02864583 48.93489583 -4.04296875 48.90234375 C-2 49 -2 49 1 50 C1 52.64 1 55.28 1 58 C1.66 58 2.32 58 3 58 C3 58.66 3 59.32 3 60 C-0.875 59.125 -0.875 59.125 -2 58 C-2 56.02 -2 54.04 -2 52 C-6.62 52 -11.24 52 -16 52 C-14.35 49.03 -12.7 46.06 -11 43 C-12.010625 43.309375 -13.02125 43.61875 -14.0625 43.9375 C-17.6731369 44.97647919 -21.26874647 45.54311181 -25 46 C-24.85769192 44.58297487 -24.71099254 43.1663904 -24.5625 41.75 C-24.48128906 40.96109375 -24.40007812 40.1721875 -24.31640625 39.359375 C-24.02365007 37.17635361 -23.57935581 35.1226818 -23 33 C-22.34 33 -21.68 33 -21 33 C-20.8453125 31.7934375 -20.8453125 31.7934375 -20.6875 30.5625 C-18.84495663 21.01477529 -11.81338518 0 0 0 Z " fill="#3E4B52" transform="translate(184,28)"/>
<path d="M0 0 C0 0.33 0 0.66 0 1 C-1.27875 1.2475 -2.5575 1.495 -3.875 1.75 C-8.46093082 2.75294525 -12.62666891 4.3485247 -16.93359375 6.1953125 C-19 7 -19 7 -21 7 C-21 7.99 -21 8.98 -21 10 C-19.08210046 9.37879354 -17.16572478 8.75288109 -15.25 8.125 C-14.18265625 7.77695313 -13.1153125 7.42890625 -12.015625 7.0703125 C-9.09098635 6.11444367 -9.09098635 6.11444367 -6.859375 4.8671875 C-5 4 -5 4 -1 4 C-1.33 4.70125 -1.66 5.4025 -2 6.125 C-3.09044562 9.26003116 -3.15322643 11.70563182 -3 15 C-3.66 14.67 -4.32 14.34 -5 14 C-5 12.68 -5 11.36 -5 10 C-5.66 10 -6.32 10 -7 10 C-7.66 11.32 -8.32 12.64 -9 14 C-15.69425413 14.21594368 -21.46296317 13.47313506 -28 12 C-27.67 8.7 -27.34 5.4 -27 2 C-17.75555404 -0.05303254 -9.481612 -1.66731736 0 0 Z " fill="#3B5A6A" transform="translate(226,155)"/>
<path d="M0 0 C-0.61277612 2.96175123 -1.25372522 4.38058783 -3 7 C-3 7.66 -3 8.32 -3 9 C-1.23050905 9.10815225 0.54087487 9.18566083 2.3125 9.25 C3.79169922 9.31960937 3.79169922 9.31960937 5.30078125 9.390625 C8.14175274 9.28774619 8.14175274 9.28774619 9.66796875 6.984375 C10.10753906 6.32953125 10.54710937 5.6746875 11 5 C11.99 5 12.98 5 14 5 C12.75023244 8.65316671 12.32901247 9.78065836 9 12 C3.38784265 12.65684458 -1.76454631 12.20440155 -7 10 C-7.2475 10.61875 -7.495 11.2375 -7.75 11.875 C-9.27221172 14.46275992 -10.16777975 15.05592658 -13 16 C-16.42880943 16.35716765 -18.33831131 16.36567007 -21.375 14.6875 C-23 13 -23 13 -23 10 C-22.13375 10.350625 -21.2675 10.70125 -20.375 11.0625 C-16.72559093 12.07622474 -14.62095298 12.01049851 -11 11 C-10.67 10.34 -10.34 9.68 -10 9 C-9.34 9 -8.68 9 -8 9 C-8 8.34 -8 7.68 -8 7 C-8.969375 6.7525 -9.93875 6.505 -10.9375 6.25 C-11.948125 5.8375 -12.95875 5.425 -14 5 C-14.875 2.875 -14.875 2.875 -15 1 C-9.4584498 -0.96263236 -5.79141983 -1.01603857 0 0 Z " fill="#324F4D" transform="translate(116,169)"/>
<path d="M0 0 C0.33 0 0.66 0 1 0 C0.93296875 0.58265625 0.8659375 1.1653125 0.796875 1.765625 C0.7052991 6.61914781 1.48639782 9.71573813 4.73828125 13.3359375 C7.70175656 16.36356501 10.81686906 19.20575836 14 22 C13.67 22.99 13.34 23.98 13 25 C7.47938117 26.80847858 4.05581389 27 -2 27 C-1.34 18.09 -0.68 9.18 0 0 Z " fill="#9DA6A8" transform="translate(37,138)"/>
<path d="M0 0 C3.0625 0.5 3.0625 0.5 5.4375 2.125 C7.4756192 5.1037896 7.38402515 6.96322336 7.0625 10.5 C6.485 10.190625 5.9075 9.88125 5.3125 9.5625 C2.2993156 8.12572713 2.2993156 8.12572713 -0.9375 7.5 C-5.50472341 10.8136477 -9.41577542 15.45655085 -11.9375 20.5 C-12.9375 18.5 -12.9375 18.5 -12.9375 15.5 C-15.9075 18.47 -18.8775 21.44 -21.9375 24.5 C-22.5975 24.17 -23.2575 23.84 -23.9375 23.5 C-21.74231264 20.51454519 -19.47499901 18.03040459 -16.625 15.6875 C-11.95568238 11.80142275 -7.86063546 7.29818682 -4.41796875 2.2890625 C-2.9375 0.5 -2.9375 0.5 0 0 Z " fill="#C2D6DB" transform="translate(181.9375,21.5)"/>
<path d="M0 0 C4.18845446 1.25653634 4.41967046 1.56951763 6.375 5.1875 C7.16783839 6.83276921 7.95951746 8.47859761 8.75 10.125 C9.56446059 11.42864918 10.39733951 12.72100926 11.25 14 C21.8725201 30.78827309 21.8725201 30.78827309 20.2890625 38.31640625 C20.11117187 38.91324219 19.93328125 39.51007813 19.75 40.125 C19.0791288 38.5017313 18.41342971 36.87632422 17.75 35.25 C17.37875 34.34507813 17.0075 33.44015625 16.625 32.5078125 C15.75 30.125 15.75 30.125 15.75 28.125 C15.09 28.125 14.43 28.125 13.75 28.125 C13.58564453 27.16787109 13.58564453 27.16787109 13.41796875 26.19140625 C13.25941406 25.36511719 13.10085937 24.53882812 12.9375 23.6875 C12.78667969 22.86378906 12.63585937 22.04007813 12.48046875 21.19140625 C12.23941406 20.50949219 11.99835937 19.82757813 11.75 19.125 C10.76 18.795 9.77 18.465 8.75 18.125 C7.90625 16.34765625 7.90625 16.34765625 7.25 14.1875 C6.18824907 10.70520975 5.98663534 10.2827569 2.75 8.125 C1.5625 6 1.5625 6 0.75 4.125 C-1.23 4.455 -3.21 4.785 -5.25 5.125 C-4.12859825 0.15879224 -4.12859825 0.15879224 0 0 Z " fill="#4D5255" transform="translate(42.25,45.875)"/>
<path d="M0 0 C0.66 0 1.32 0 2 0 C2.33 1.32 2.66 2.64 3 4 C3.66 4 4.32 4 5 4 C15.86910663 25.81067398 15.86910663 25.81067398 14.59765625 33.40234375 C14.30181641 34.19318359 14.30181641 34.19318359 14 35 C13.01 34.67 12.02 34.34 11 34 C10.17211914 32.19335938 10.17211914 32.19335938 9.53515625 29.84375 C9.29216797 28.98523438 9.04917969 28.12671875 8.79882812 27.2421875 C8.4343457 25.88480469 8.4343457 25.88480469 8.0625 24.5 C6.39080456 18.38997569 4.56328605 12.63032324 1.84057617 6.89868164 C0.84105941 4.64098722 0.31560909 2.44597042 0 0 Z " fill="#E9E6E8" transform="translate(188,28)"/>
<path d="M0 0 C2.64 0 5.28 0 8 0 C8 1.65 8 3.3 8 5 C7.01 5 6.02 5 5 5 C4.566875 6.11375 4.566875 6.11375 4.125 7.25 C3.17697356 9.56739797 2.15154089 11.77917115 1 14 C2.0725 13.67 3.145 13.34 4.25 13 C8 12 8 12 12 12 C12 12.99 12 13.98 12 15 C6.25 16.125 6.25 16.125 4 15 C1.99199544 15.28112064 -0.01014051 15.61067967 -2 16 C-4.98514628 11.89542386 -5.2954439 9.02254631 -5 4 C-1.04 4 2.92 4 7 4 C6.67 3.34 6.34 2.68 6 2 C2.97065509 1.34227572 2.97065509 1.34227572 0 1 C0 0.67 0 0.34 0 0 Z " fill="#A0A9AC" transform="translate(44,183)"/>
<path d="M0 0 C4.95 0.99 9.9 1.98 15 3 C13.68 3.33 12.36 3.66 11 4 C9.93283296 5.79932579 9.93283296 5.79932579 9 8 C8.29875 8.66 7.5975 9.32 6.875 10 C3.92992334 14.71212266 4.68902412 19.58383676 5 25 C3.35 25.33 1.7 25.66 0 26 C-0.3521994 18.90383439 -0.11004258 13.45045869 3 7 C4.60546875 5.28125 4.60546875 5.28125 6 4 C4.02 3.34 2.04 2.68 0 2 C0 1.34 0 0.68 0 0 Z " fill="#23403F" transform="translate(69,214)"/>
<path d="M0 0 C-0.33 0.70125 -0.66 1.4025 -1 2.125 C-2.09044562 5.26003116 -2.15322643 7.70563182 -2 11 C-2.66 10.67 -3.32 10.34 -4 10 C-4 8.68 -4 7.36 -4 6 C-4.66 6 -5.32 6 -6 6 C-6.66 7.32 -7.32 8.64 -8 10 C-14.64409958 10.21432579 -20.53205867 9.51233701 -27 8 C-24.63388179 7.34693128 -22.91672209 7.00406234 -20.4375 7.125 C-17.96536744 7.27764864 -17.96536744 7.27764864 -16.6875 5.62890625 C-14.50596031 3.52311447 -12.41124818 2.82135112 -9.5625 1.8125 C-8.14130859 1.29623047 -8.14130859 1.29623047 -6.69140625 0.76953125 C-4 0 -4 0 0 0 Z " fill="#416374" transform="translate(225,159)"/>
<path d="M0 0 C0.33 0.66 0.66 1.32 1 2 C0.67 2.99 0.34 3.98 0 5 C2.31 5.33 4.62 5.66 7 6 C7 5.34 7 4.68 7 4 C5.68 4 4.36 4 3 4 C3.33 3.34 3.66 2.68 4 2 C5.32 2.33 6.64 2.66 8 3 C8 4.32 8 5.64 8 7 C7.01 7.33 6.02 7.66 5 8 C4.505 9.2375 4.505 9.2375 4 10.5 C3.505 11.7375 3.505 11.7375 3 13 C2.01 13.33 1.02 13.66 0 14 C-1.34938604 16.17577663 -2.53851757 18.28612355 -3.6875 20.5625 C-4.00783203 21.17802734 -4.32816406 21.79355469 -4.65820312 22.42773438 C-5.44746371 23.9473555 -6.22487915 25.47311811 -7 27 C-7.66 26.34 -8.32 25.68 -9 25 C-8.67342446 21.24438133 -7.8830622 18.26397448 -6 15 C-5.34 15 -4.68 15 -4 15 C-3.79503906 14.00097656 -3.59007812 13.00195312 -3.37890625 11.97265625 C-3.10949219 10.68230469 -2.84007812 9.39195313 -2.5625 8.0625 C-2.29566406 6.77472656 -2.02882813 5.48695312 -1.75390625 4.16015625 C-1 1 -1 1 0 0 Z " fill="#CA819E" transform="translate(47,95)"/>
<path d="M0 0 C2.99289209 3.27792943 4.06788649 6.82186917 5.3515625 10.9765625 C5.95535919 13.03815344 5.95535919 13.03815344 7 15 C7.04022391 17.3329866 7.04320247 19.66706666 7 22 C5.35 22.33 3.7 22.66 2 23 C0.68 17.72 -0.64 12.44 -2 7 C-2.66 7 -3.32 7 -4 7 C-3.67 6.01 -3.34 5.02 -3 4 C-2.01 4 -1.02 4 0 4 C0 2.68 0 1.36 0 0 Z " fill="#839196" transform="translate(211,115)"/>
<path d="M0 0 C0.598125 0.20625 1.19625 0.4125 1.8125 0.625 C1.895 1.24375 1.9775 1.8625 2.0625 2.5 C2.31 3.20125 2.5575 3.9025 2.8125 4.625 C3.43125 4.8725 4.05 5.12 4.6875 5.375 C8.12319625 7.39599779 8.8352326 10.94559996 9.8125 14.625 C10.16045205 17.64147147 10.14529225 20.59273383 10.0625 23.625 C10.05734375 24.38039063 10.0521875 25.13578125 10.046875 25.9140625 C9.97861554 30.87993857 9.66496957 35.72876455 8.8125 40.625 C7.8225 41.12 7.8225 41.12 6.8125 41.625 C6.8846875 40.95855469 6.956875 40.29210937 7.03125 39.60546875 C8.25888223 27.41439872 9.22496404 17.12599072 1.8125 6.625 C0.8225 5.965 -0.1675 5.305 -1.1875 4.625 C-1.1875 3.965 -1.1875 3.305 -1.1875 2.625 C-2.5075 2.295 -3.8275 1.965 -5.1875 1.625 C-2.1875 -0.375 -2.1875 -0.375 0 0 Z " fill="#D37C9E" transform="translate(42.1875,49.375)"/>
<path d="M0 0 C-0.25 1.875 -0.25 1.875 -1 4 C-3.0625 5.25 -3.0625 5.25 -5 6 C-4.67 6.99 -4.34 7.98 -4 9 C-4.99 9 -5.98 9 -7 9 C-7 8.34 -7 7.68 -7 7 C-7.94875 6.87625 -8.8975 6.7525 -9.875 6.625 C-13 6 -13 6 -15 4 C-14.625 1.875 -14.625 1.875 -14 0 C-8.97703996 -1.13016601 -5.02125926 -0.77916092 0 0 Z " fill="#153431" transform="translate(116,169)"/>
<path d="M0 0 C1.54516602 0.94897461 1.54516602 0.94897461 3.19140625 2.46484375 C4.11010498 3.30184814 4.11010498 3.30184814 5.04736328 4.15576172 C5.6917334 4.76436035 6.33610352 5.37295898 7 6 C7.65081543 6.60215332 8.30163086 7.20430664 8.97216797 7.82470703 C10.9867391 9.71191738 12.96442037 11.63201875 14.9375 13.5625 C15.62134766 14.20896484 16.30519531 14.85542969 17.00976562 15.52148438 C17.65494141 16.15505859 18.30011719 16.78863281 18.96484375 17.44140625 C19.5487085 18.00545166 20.13257324 18.56949707 20.73413086 19.15063477 C22.37072243 21.5416051 22.23620191 23.16405712 22 26 C21.29488281 25.29230469 20.58976562 24.58460937 19.86328125 23.85546875 C17.9573471 21.94819003 16.03725657 20.05685232 14.10546875 18.17578125 C13.13278804 17.2213791 12.16013192 16.26695188 11.1875 15.3125 C10.43436523 14.58450195 10.43436523 14.58450195 9.66601562 13.84179688 C8.40582727 12.59875394 7.19808956 11.30300108 6 10 C6 9.34 6 8.68 6 8 C5.34 8 4.68 8 4 8 C2.66666667 6.66666667 1.33333333 5.33333333 0 4 C-0.99 3.67 -1.98 3.34 -3 3 C-3 2.34 -3 1.68 -3 1 C-2.01 0.67 -1.02 0.34 0 0 Z " fill="#E3EEF0" transform="translate(60,55)"/>
<path d="M0 0 C0 0.66 0 1.32 0 2 C-1.98 2.33 -3.96 2.66 -6 3 C-5.67 4.32 -5.34 5.64 -5 7 C-5.63808594 7.12117188 -6.27617188 7.24234375 -6.93359375 7.3671875 C-7.75988281 7.53476563 -8.58617187 7.70234375 -9.4375 7.875 C-10.67306641 8.11863281 -10.67306641 8.11863281 -11.93359375 8.3671875 C-12.61550781 8.57601562 -13.29742187 8.78484375 -14 9 C-14.33 9.66 -14.66 10.32 -15 11 C-13.68 11 -12.36 11 -11 11 C-11 11.66 -11 12.32 -11 13 C-13.31 12.67 -15.62 12.34 -18 12 C-17.67 10.35 -17.34 8.7 -17 7 C-15.02 6.34 -13.04 5.68 -11 5 C-11 4.34 -11 3.68 -11 3 C-11.66 3 -12.32 3 -13 3 C-13 2.01 -13 1.02 -13 0 C-11.20909747 -0.19466332 -9.41723495 -0.38051213 -7.625 -0.5625 C-6.12839844 -0.71912109 -6.12839844 -0.71912109 -4.6015625 -0.87890625 C-2 -1 -2 -1 0 0 Z " fill="#444A4C" transform="translate(65,88)"/>
<path d="M0 0 C-0.33 2.64 -0.66 5.28 -1 8 C-2.77226453 7.71715982 -4.542788 7.42339502 -6.3125 7.125 C-7.29863281 6.96257812 -8.28476563 6.80015625 -9.30078125 6.6328125 C-12 6 -12 6 -15 4 C-15 3.01 -15 2.02 -15 1 C-9.91913204 0.15318867 -5.15171623 -0.09038099 0 0 Z " fill="#A8AEB3" transform="translate(199,158)"/>
<path d="M0 0 C-0.66 1.32 -1.32 2.64 -2 4 C-2.66 4 -3.32 4 -4 4 C-4.33 4.99 -4.66 5.98 -5 7 C-5.5775 7.515625 -6.155 8.03125 -6.75 8.5625 C-10.11569471 12.20866927 -11.89921312 16.54118703 -14 21 C-14.66305576 22.33513268 -15.32840878 23.66914033 -16 25 C-16.99 25 -17.98 25 -19 25 C-17.17909932 16.62385686 -9.91073006 0 0 0 Z " fill="#384C52" transform="translate(184,28)"/>
<path d="M0 0 C2.875 0.25 2.875 0.25 6 1 C8.14525495 4.15829201 8.55851112 7.52735882 9.125 11.25 C9.29257813 12.32765625 9.46015625 13.4053125 9.6328125 14.515625 C9.75398437 15.33546875 9.87515625 16.1553125 10 17 C8.02 17.99 8.02 17.99 6 19 C5.81824219 18.21496094 5.63648438 17.42992187 5.44921875 16.62109375 C4.05781612 10.80574429 2.57724954 5.39995141 0 0 Z " fill="#2E4443" transform="translate(198,204)"/>
<path d="M0 0 C2.31 0 4.62 0 7 0 C5.90301833 5.69139902 4.45946923 10.74567937 2 16 C1.34 16 0.68 16 0 16 C0 10.72 0 5.44 0 0 Z " fill="#A4ACB1" transform="translate(124,80)"/>
<path d="M0 0 C0.99 0 1.98 0 3 0 C1.66079259 3.60555842 -0.02548894 6.70914824 -2 10 C-2.69822617 11.65369357 -3.37498605 13.31727014 -4 15 C-4.66 15 -5.32 15 -6 15 C-6.04898438 15.60328125 -6.09796875 16.2065625 -6.1484375 16.828125 C-6.26058594 18.02695313 -6.26058594 18.02695313 -6.375 19.25 C-6.44460937 20.03890625 -6.51421875 20.8278125 -6.5859375 21.640625 C-7.01507113 24.085877 -7.78600638 25.84836903 -9 28 C-9 25.69 -9 23.38 -9 21 C-9.66 20.67 -10.32 20.34 -11 20 C-10.34 19.67 -9.68 19.34 -9 19 C-8.30562395 17.21957344 -8.30562395 17.21957344 -7.75 15.0625 C-6.03915541 9.63318705 -3.57553178 4.46010344 0 0 Z " fill="#3B504F" transform="translate(47,108)"/>
<path d="M0 0 C1.65 0 3.3 0 5 0 C6.17571451 3.67410785 6.07366746 7.16929183 6 11 C5.67 11 5.34 11 5 11 C5 9.02 5 7.04 5 5 C3.35 5 1.7 5 0 5 C0.01160156 5.68964844 0.02320312 6.37929687 0.03515625 7.08984375 C0.09342124 13.15772652 -0.21096052 18.98357396 -1 25 C-1.99 25.33 -2.98 25.66 -4 26 C-4.33 24.68 -4.66 23.36 -5 22 C-4.34 22.33 -3.68 22.66 -3 23 C-2.95101562 21.84242187 -2.90203125 20.68484375 -2.8515625 19.4921875 C-2.77648522 17.9531033 -2.70093957 16.4140419 -2.625 14.875 C-2.5940625 14.11445312 -2.563125 13.35390625 -2.53125 12.5703125 C-2.297631 8.05367842 -1.67345883 4.25847653 0 0 Z " fill="#C3C9CB" transform="translate(96,79)"/>
<path d="M0 0 C2.875 -0.125 2.875 -0.125 6 0 C8 2 8 2 8.25 4.5 C8 7 8 7 6 9 C3.5 9.25 3.5 9.25 1 9 C0.34 8.34 -0.32 7.68 -1 7 C-0.625 3.375 -0.625 3.375 0 0 Z " fill="#DADEDE" transform="translate(161,142)"/>
<path d="M0 0 C0 0.66 0 1.32 0 2 C-1.65833215 3.01376144 -3.32711476 4.0104381 -5 5 C-6.9525752 6.64581817 -8.86839086 8.33599648 -10.75 10.0625 C-12.19632813 11.37927734 -12.19632813 11.37927734 -13.671875 12.72265625 C-16.02366836 14.77511307 -16.02366836 14.77511307 -17 17 C-14.36 16.34 -11.72 15.68 -9 15 C-9.33 15.66 -9.66 16.32 -10 17 C-12.64860427 17.59355614 -15.29197322 17.74209269 -18 18 C-18 17.34 -18 16.68 -18 16 C-18.66 15.67 -19.32 15.34 -20 15 C-17.7624085 12.67521219 -15.50795768 10.36749846 -13.25 8.0625 C-12.29867187 7.0734668 -12.29867187 7.0734668 -11.328125 6.06445312 C-10.709375 5.43603516 -10.090625 4.80761719 -9.453125 4.16015625 C-8.88754883 3.57886963 -8.32197266 2.99758301 -7.73925781 2.39868164 C-5.26894846 0.41210075 -3.12404403 0 0 0 Z " fill="#1E3A36" transform="translate(146,225)"/>
<path d="M0 0 C0.042721 1.66611905 0.04063832 3.33382885 0 5 C-1 6 -1 6 -3.94140625 6.09765625 C-5.73384766 6.08025391 -5.73384766 6.08025391 -7.5625 6.0625 C-9.35880859 6.04896484 -9.35880859 6.04896484 -11.19140625 6.03515625 C-12.11824219 6.02355469 -13.04507813 6.01195313 -14 6 C-14 5.34 -14 4.68 -14 4 C-15.98 4 -17.96 4 -20 4 C-20 3.67 -20 3.34 -20 3 C-16.85436294 2.49875991 -13.70845891 1.99921578 -10.5625 1.5 C-9.66466797 1.35691406 -8.76683594 1.21382813 -7.84179688 1.06640625 C-6.56079102 0.86337891 -6.56079102 0.86337891 -5.25390625 0.65625 C-4.06776733 0.46772461 -4.06776733 0.46772461 -2.85766602 0.27539062 C-1 0 -1 0 0 0 Z " fill="#3D5C6A" transform="translate(116,75)"/>
<path d="M0 0 C0.6875 1.5625 0.6875 1.5625 1 4 C0.31412518 5.6983567 -0.38105102 7.39496339 -1.1640625 9.05078125 C-2.54338053 12.26704152 -3.22313306 15.59373728 -4 19 C-3.01 19.66 -2.02 20.32 -1 21 C-5.75 24 -5.75 24 -8 24 C-7.85769192 22.58297487 -7.71099254 21.1663904 -7.5625 19.75 C-7.48128906 18.96109375 -7.40007812 18.1721875 -7.31640625 17.359375 C-7.02365007 15.17635361 -6.57935581 13.1226818 -6 11 C-5.34 11 -4.68 11 -4 11 C-3.8453125 9.6696875 -3.8453125 9.6696875 -3.6875 8.3125 C-2.98809298 4.9426298 -1.91257489 2.82728462 0 0 Z " fill="#213738" transform="translate(167,50)"/>
<path d="M0 0 C0.33 2.97 0.66 5.94 1 9 C-5.435 9.495 -5.435 9.495 -12 10 C-9.96738311 5.93476622 -9.09369404 5.07400135 -5.4375 2.75 C-4.63183594 2.22921875 -3.82617188 1.7084375 -2.99609375 1.171875 C-1 0 -1 0 0 0 Z " fill="#AAB1B4" transform="translate(197,132)"/>
<path d="M0 0 C1.98 0 3.96 0 6 0 C6.144375 0.804375 6.28875 1.60875 6.4375 2.4375 C6.74135249 4.92103706 6.74135249 4.92103706 8 6 C10.19050021 5.90982004 12.378466 5.75333792 14.5625 5.5625 C16.35880859 5.40974609 16.35880859 5.40974609 18.19140625 5.25390625 C19.11824219 5.17011719 20.04507813 5.08632812 21 5 C17.81739441 7.12173706 16.0968484 7.46143796 12.375 8 C7.18394762 8.79570876 2.11336535 9.80688142 -3 11 C-2.67 10.34 -2.34 9.68 -2 9 C-1.34 9 -0.68 9 0 9 C0 8.34 0 7.68 0 7 C2.5 5.375 2.5 5.375 5 4 C2.03 3.505 2.03 3.505 -1 3 C-0.67 2.01 -0.34 1.02 0 0 Z " fill="#21403F" transform="translate(145,215)"/>
<path d="M0 0 C0.99 0 1.98 0 3 0 C3.33 0.99 3.66 1.98 4 3 C4.66 3.33 5.32 3.66 6 4 C6.6328125 6.28515625 6.6328125 6.28515625 7.125 9.0625 C7.29257813 9.98160156 7.46015625 10.90070313 7.6328125 11.84765625 C7.75398437 12.55792969 7.87515625 13.26820313 8 14 C6.68 14 5.36 14 4 14 C4 13.34 4 12.68 4 12 C3.34 12 2.68 12 2 12 C0.86235649 7.73383684 0 4.43513689 0 0 Z " fill="#EAF1F3" transform="translate(215,138)"/>
<path d="M0 0 C0 0.99 0 1.98 0 3 C-2.95670218 4.00486895 -5.91561577 5.00306024 -8.875 6 C-9.71675781 6.28617188 -10.55851563 6.57234375 -11.42578125 6.8671875 C-12.23144531 7.13789063 -13.03710938 7.40859375 -13.8671875 7.6875 C-14.98262939 8.06455078 -14.98262939 8.06455078 -16.12060547 8.44921875 C-18 9 -18 9 -20 9 C-20 8.01 -20 7.02 -20 6 C-17.79716302 4.98609147 -15.58901444 3.98895615 -13.375 3 C-12.75753906 2.71382812 -12.14007813 2.42765625 -11.50390625 2.1328125 C-7.49782029 0.36170081 -4.36799531 -0.32255965 0 0 Z " fill="#133334" transform="translate(225,156)"/>
<path d="M0 0 C5.28 0 10.56 0 16 0 C15 5 15 5 14 6 C11.32941149 6.14115161 8.67567762 6.04247107 6 6 C6 4.35 6 2.7 6 1 C4.02 1 2.04 1 0 1 C0 0.67 0 0.34 0 0 Z " fill="#436471" transform="translate(118,74)"/>
<path d="M0 0 C0.33 0.66 0.66 1.32 1 2 C4.96 2 8.92 2 13 2 C13 4.64 13 7.28 13 10 C13.66 10 14.32 10 15 10 C15 10.66 15 11.32 15 12 C11.125 11.125 11.125 11.125 10 10 C10 8.02 10 6.04 10 4 C5.38 4 0.76 4 -4 4 C-2.68 2.68 -1.36 1.36 0 0 Z " fill="#173433" transform="translate(172,76)"/>
<path d="M0 0 C1.07765625 0.00902344 2.1553125 0.01804688 3.265625 0.02734375 C4.08546875 0.03894531 4.9053125 0.05054688 5.75 0.0625 C5.42 1.7125 5.09 3.3625 4.75 5.0625 C4.42 4.4025 4.09 3.7425 3.75 3.0625 C-0.87 3.3925 -5.49 3.7225 -10.25 4.0625 C-10.25 3.0725 -10.25 2.0825 -10.25 1.0625 C-6.78777385 -0.00473961 -3.60960734 -0.03923486 0 0 Z " fill="#4D7072" transform="translate(218.25,171.9375)"/>
<path d="M0 0 C1 2 1 2 0 6 C-4.455 6.495 -4.455 6.495 -9 7 C-9 5.68 -9 4.36 -9 3 C-9.99 2.67 -10.98 2.34 -12 2 C-8.04 1.34 -4.08 0.68 0 0 Z " fill="#3C5D6B" transform="translate(95,79)"/>
<path d="M0 0 C1.1446875 0.1546875 1.1446875 0.1546875 2.3125 0.3125 C0.94606852 4.29792514 -0.78859014 7.23789863 -3.6875 10.3125 C-4.6775 10.3125 -5.6675 10.3125 -6.6875 10.3125 C-6.0259761 5.68183269 -5.25613325 0.61117828 0 0 Z " fill="#DCE5E6" transform="translate(219.6875,174.6875)"/>
<path d="M0 0 C0.66 0.33 1.32 0.66 2 1 C0.85512261 3.28975477 -0.37431838 4.33988726 -2.3125 6 C-2.90675781 6.515625 -3.50101563 7.03125 -4.11328125 7.5625 C-5.99743138 8.99804295 -7.85200199 10.01372277 -10 11 C-9.67 13.64 -9.34 16.28 -9 19 C-6.03 18.67 -3.06 18.34 0 18 C0 18.33 0 18.66 0 19 C-4.95 19.495 -4.95 19.495 -10 20 C-11.63637577 16.72724846 -11.81186817 13.50936564 -11 10 C-8.97790763 7.55571252 -6.55760596 5.85111523 -4 4 C-2.64946454 2.68409365 -1.30693833 1.35921586 0 0 Z " fill="#557584" transform="translate(208,121)"/>
<path d="M0 0 C1.59811523 0.00676758 1.59811523 0.00676758 3.22851562 0.01367188 C5.83990291 0.02538213 8.45117124 0.04178276 11.0625 0.0625 C11.0625 1.3825 11.0625 2.7025 11.0625 4.0625 C10.4025 3.4025 9.7425 2.7425 9.0625 2.0625 C6.14762078 1.78373233 6.14762078 1.78373233 2.7421875 1.8671875 C1.48535156 1.87363281 0.22851562 1.88007813 -1.06640625 1.88671875 C-3.04447266 1.91185547 -3.04447266 1.91185547 -5.0625 1.9375 C-6.40233721 1.94753017 -7.74218152 1.95665596 -9.08203125 1.96484375 C-12.36736573 1.98847925 -15.65234465 2.02142766 -18.9375 2.0625 C-18.9375 1.7325 -18.9375 1.4025 -18.9375 1.0625 C-12.61160373 -0.07705862 -6.41471662 -0.0517637 0 0 Z " fill="#CBE9F3" transform="translate(131.9375,220.9375)"/>
<path d="M0 0 C2.9375 0.375 2.9375 0.375 6 1 C6.99 1 7.98 1 9 1 C9 2.98 9 4.96 9 7 C8.4225 6.690625 7.845 6.38125 7.25 6.0625 C4.23632787 4.62702436 4.23632787 4.62702436 1 4 C-1.24755753 5.3516367 -1.24755753 5.3516367 -3 7 C-2.25 2.25 -2.25 2.25 0 0 Z " fill="#95CBDF" transform="translate(180,25)"/>
<path d="M0 0 C1.98 0 3.96 0 6 0 C6 1.98 6 3.96 6 6 C3.625 6.625 3.625 6.625 1 7 C0.34 6.34 -0.32 5.68 -1 5 C-0.625 2.375 -0.625 2.375 0 0 Z " fill="#DEE2E1" transform="translate(71,156)"/>
<path d="M0 0 C0.99 1.485 0.99 1.485 2 3 C3.32 2.67 4.64 2.34 6 2 C7.1577506 5.47325181 7.06866652 8.36067448 7 12 C6.01 12.33 5.02 12.66 4 13 C3.32404685 11.58774074 2.65959941 10.16997095 2 8.75 C1.62875 7.96109375 1.2575 7.1721875 0.875 6.359375 C0 4 0 4 0 0 Z " fill="#81B0C5" transform="translate(32,115)"/>
<path d="M0 0 C0 0.66 0 1.32 0 2 C-1.98 2.33 -3.96 2.66 -6 3 C-6 3.99 -6 4.98 -6 6 C-6.99 6 -7.98 6 -9 6 C-9.33 5.34 -9.66 4.68 -10 4 C-10.99 3.67 -11.98 3.34 -13 3 C-13 2.01 -13 1.02 -13 0 C-11.20909747 -0.19466332 -9.41723495 -0.38051213 -7.625 -0.5625 C-6.12839844 -0.71912109 -6.12839844 -0.71912109 -4.6015625 -0.87890625 C-2 -1 -2 -1 0 0 Z " fill="#223735" transform="translate(65,88)"/>
<path d="M0 0 C1.46726798 3.81489674 0.43336419 6.29011622 -1 10 C-1.66 10 -2.32 10 -3 10 C-3.04898438 10.60328125 -3.09796875 11.2065625 -3.1484375 11.828125 C-3.22320312 12.62734375 -3.29796875 13.4265625 -3.375 14.25 C-3.44460937 15.03890625 -3.51421875 15.8278125 -3.5859375 16.640625 C-4.01507113 19.085877 -4.78600638 20.84836903 -6 23 C-5.40546697 8.21867882 -5.40546697 8.21867882 -2 2 C-1.34 2 -0.68 2 0 2 C0 1.34 0 0.68 0 0 Z " fill="#81BED1" transform="translate(164,51)"/>
<path d="M0 0 C0.66 0 1.32 0 2 0 C2.33 1.32 2.66 2.64 3 4 C3.66 4 4.32 4 5 4 C5.99 6.97 6.98 9.94 8 13 C7.01 13.33 6.02 13.66 5 14 C0.59225513 4.58997722 0.59225513 4.58997722 0 0 Z " fill="#E4E6E8" transform="translate(188,28)"/>
<path d="M0 0 C2.64 0 5.28 0 8 0 C8 1.65 8 3.3 8 5 C5.36 5 2.72 5 0 5 C0 3.35 0 1.7 0 0 Z " fill="#84C5DC" transform="translate(116,75)"/>
<path d="M0 0 C3.62613199 0.56959153 5.25517741 1.92374534 7.75 4.5625 C8.36359375 5.20316406 8.9771875 5.84382812 9.609375 6.50390625 C10.06828125 6.99761719 10.5271875 7.49132812 11 8 C9 10 9 10 5.875 10.125 C4.92625 10.08375 3.9775 10.0425 3 10 C3.99 9.34 4.98 8.68 6 8 C5.67 7.01 5.34 6.02 5 5 C4.34 4.67 3.68 4.34 3 4 C1 3 1 3 0 0 Z " fill="#223E3A" transform="translate(109,234)"/>
<path d="M0 0 C3.96 0 7.92 0 12 0 C12.33 0.99 12.66 1.98 13 3 C9.7 3 6.4 3 3 3 C2.67 3.66 2.34 4.32 2 5 C1.34 3.35 0.68 1.7 0 0 Z " fill="#285458" transform="translate(95,219)"/>
<path d="M0 0 C0.33 0.66 0.66 1.32 1 2 C3.56047949 2.456589 6.04361856 2.79791991 8.625 3.0625 C10.03391815 3.21947891 11.44277302 3.37702682 12.8515625 3.53515625 C13.54024414 3.61008301 14.22892578 3.68500977 14.93847656 3.76220703 C17.96903956 4.11177695 20.9824581 4.55251675 24 5 C24 5.33 24 5.66 24 6 C20.95760755 5.88553375 17.91655331 5.75879267 14.875 5.625 C14.0190625 5.5940625 13.163125 5.563125 12.28125 5.53125 C7.5124128 5.31114982 3.48423193 4.80839517 -1 3 C-0.67 2.01 -0.34 1.02 0 0 Z " fill="#9CD8EC" transform="translate(59,207)"/>
<path d="M0 0 C3.96 0 7.92 0 12 0 C12 0.66 12 1.32 12 2 C10.68 2 9.36 2 8 2 C7.9175 2.78375 7.835 3.5675 7.75 4.375 C7 7 7 7 4.9375 8.3125 C4.298125 8.539375 3.65875 8.76625 3 9 C4.32 7.02 5.64 5.04 7 3 C4.69 3 2.38 3 0 3 C0 2.01 0 1.02 0 0 Z " fill="#2D5456" transform="translate(205,184)"/>
<path d="M0 0 C0.98484375 0.00902344 1.9696875 0.01804688 2.984375 0.02734375 C4.10585938 0.04474609 4.10585938 0.04474609 5.25 0.0625 C5.58 1.0525 5.91 2.0425 6.25 3.0625 C4.33364783 3.11673638 2.41685075 3.15539963 0.5 3.1875 C-1.10101563 3.22230469 -1.10101563 3.22230469 -2.734375 3.2578125 C-5.67470106 3.06737687 -7.27361878 2.58920104 -9.75 1.0625 C-6.43929162 0.06140485 -3.44915231 -0.04106134 0 0 Z " fill="#2C4744" transform="translate(44.75,183.9375)"/>
<path d="M0 0 C0.66 0 1.32 0 2 0 C2.12375 0.639375 2.2475 1.27875 2.375 1.9375 C2.58125 2.618125 2.7875 3.29875 3 4 C3.66 4.33 4.32 4.66 5 5 C5 5.66 5 6.32 5 7 C2.36 7 -0.28 7 -3 7 C-3 6.34 -3 5.68 -3 5 C-4.65 5 -6.3 5 -8 5 C-8 4.67 -8 4.34 -8 4 C-6.865625 3.71125 -5.73125 3.4225 -4.5625 3.125 C-3.386875 2.75375 -2.21125 2.3825 -1 2 C-0.67 1.34 -0.34 0.68 0 0 Z " fill="#9EB0B6" transform="translate(219,165)"/>
<path d="M0 0 C7.1641791 -0.47761194 7.1641791 -0.47761194 10.625 1.5 C12.23796104 4.43265644 12.01884679 5.1077566 11.25 8.25 C10.8375 9.4875 10.425 10.725 10 12 C9.34 11.67 8.68 11.34 8 11 C8.33 9.02 8.66 7.04 9 5 C7.35 5 5.7 5 4 5 C5.32 4.67 6.64 4.34 8 4 C7.67 3.34 7.34 2.68 7 2 C4.67843403 1.59270772 2.3431213 1.25561323 0 1 C0 0.67 0 0.34 0 0 Z " fill="#647875" transform="translate(68,151)"/>
<path d="M0 0 C0 3 0 3 -2 6 C-2.66 6 -3.32 6 -4 6 C-5.42392116 7.28095719 -6.79233821 8.62434912 -8.125 10 C-9.21167969 11.11375 -9.21167969 11.11375 -10.3203125 12.25 C-10.87460938 12.8275 -11.42890625 13.405 -12 14 C-12.66 13.67 -13.32 13.34 -14 13 C-10.37924984 8.02146853 -5.58084661 2.7904233 0 0 Z " fill="#D1D9D9" transform="translate(172,32)"/>
<path d="M0 0 C2.46098116 0.05987789 4.91578412 0.14678474 7.375 0.25 C8.07367188 0.26417969 8.77234375 0.27835938 9.4921875 0.29296875 C11.5234375 0.390625 11.5234375 0.390625 15 1 C16.4765625 3.046875 16.4765625 3.046875 17 5 C14.53961507 4.55102465 12.08210379 4.09131167 9.625 3.625 C8.57699219 3.43550781 8.57699219 3.43550781 7.5078125 3.2421875 C2.2265625 2.2265625 2.2265625 2.2265625 0 0 Z " fill="#6EB2C6" transform="translate(60,211)"/>
<path d="M0 0 C0.99 0 1.98 0 3 0 C1.43358249 4.30764815 -0.68336156 8.06171464 -3 12 C-3.66 12 -4.32 12 -5 12 C-4.526508 7.02833396 -3.14907485 3.89003364 0 0 Z " fill="#364143" transform="translate(47,108)"/>
<path d="M0 0 C1.65 0 3.3 0 5 0 C6.17571451 3.67410785 6.07366746 7.16929183 6 11 C5.67 11 5.34 11 5 11 C5 9.02 5 7.04 5 5 C3.02 5 1.04 5 -1 5 C-0.67 3.35 -0.34 1.7 0 0 Z " fill="#99CBDD" transform="translate(96,79)"/>
<path d="M0 0 C0 0.33 0 0.66 0 1 C-0.84304687 1.06058594 -1.68609375 1.12117187 -2.5546875 1.18359375 C-3.65039062 1.26738281 -4.74609375 1.35117188 -5.875 1.4375 C-6.96554688 1.51871094 -8.05609375 1.59992188 -9.1796875 1.68359375 C-11.94728971 1.83001703 -11.94728971 1.83001703 -14 3 C-16.00800456 2.71887936 -18.01014051 2.38932033 -20 2 C-20 1.67 -20 1.34 -20 1 C-12.95664616 -0.96290189 -7.22533204 -0.99939172 0 0 Z " fill="#4C6E7D" transform="translate(226,155)"/>
<path d="M0 0 C0 0.99 0 1.98 0 3 C-1.24420647 3.5345256 -2.49570936 4.05208611 -3.75 4.5625 C-4.44609375 4.85253906 -5.1421875 5.14257812 -5.859375 5.44140625 C-8.30012784 6.07831803 -9.6403655 5.80248831 -12 5 C-11.01 5 -10.02 5 -9 5 C-9.33 4.01 -9.66 3.02 -10 2 C-6.5980513 -0.09350689 -3.94727588 -0.17942163 0 0 Z " fill="#1B3A3C" transform="translate(225,156)"/>
<path d="M0 0 C0.99 0.33 1.98 0.66 3 1 C3.984375 3.14453125 3.984375 3.14453125 4.75 5.8125 C5.01296875 6.68519531 5.2759375 7.55789062 5.546875 8.45703125 C6.00968292 11.05434119 5.85082224 12.53376528 5 15 C4.16013916 13.06532058 3.32831973 11.12714871 2.5 9.1875 C2.0359375 8.10855469 1.571875 7.02960938 1.09375 5.91796875 C0 3 0 3 0 0 Z " fill="#2F3F3F" transform="translate(57,71)"/>
<path d="M0 0 C1.7890625 1.14453125 1.7890625 1.14453125 3.625 2.8125 C4.23601562 3.35519531 4.84703125 3.89789063 5.4765625 4.45703125 C7 6 7 6 8 8 C7.34 8.66 6.68 9.32 6 10 C6 9.34 6 8.68 6 8 C5.34 8 4.68 8 4 8 C2.66666667 6.66666667 1.33333333 5.33333333 0 4 C-0.99 3.67 -1.98 3.34 -3 3 C-3 2.34 -3 1.68 -3 1 C-2.01 0.67 -1.02 0.34 0 0 Z " fill="#D7E7EB" transform="translate(60,55)"/>
<path d="M0 0 C0 0.66 0 1.32 0 2 C-0.66 2.474375 -1.32 2.94875 -2 3.4375 C-2.99 4.2109375 -2.99 4.2109375 -4 5 C-4 5.99 -4 6.98 -4 8 C-6.31 7.34 -8.62 6.68 -11 6 C-3.6 0 -3.6 0 0 0 Z " fill="#315454" transform="translate(63,203)"/>
<path d="M0 0 C0.66 0 1.32 0 2 0 C2.598125 0.61875 3.19625 1.2375 3.8125 1.875 C6.12505706 4.121484 7.97199019 4.9906634 11 6 C10.67 6.66 10.34 7.32 10 8 C5.61999924 7.49942848 3.15830185 6.06806466 0 3 C0 2.01 0 1.02 0 0 Z " fill="#82BED0" transform="translate(45,200)"/>
<path d="M0 0 C0.66 0 1.32 0 2 0 C2 2.64 2 5.28 2 8 C2.66 8 3.32 8 4 8 C4 8.66 4 9.32 4 10 C0.125 9.125 0.125 9.125 -1 8 C-1.125 4.5 -1.125 4.5 -1 1 C-0.67 0.67 -0.34 0.34 0 0 Z " fill="#38444A" transform="translate(183,78)"/>
<path d="M0 0 C1.32 0 2.64 0 4 0 C4 3.96 4 7.92 4 12 C3.34 11.67 2.68 11.34 2 11 C2 8.69 2 6.38 2 4 C1.34 4 0.68 4 0 4 C0 2.68 0 1.36 0 0 Z " fill="#F3F4F4" transform="translate(200,62)"/>
<path d="M0 0 C0.99 0 1.98 0 3 0 C2.34 1.32 1.68 2.64 1 4 C0.34 4 -0.32 4 -1 4 C-1.33 4.99 -1.66 5.98 -2 7 C-3.65 7.33 -5.3 7.66 -7 8 C-6.02133662 6.85373678 -5.04205413 5.70800212 -4.0625 4.5625 C-3.51722656 3.92441406 -2.97195312 3.28632813 -2.41015625 2.62890625 C-1.63204305 1.73008851 -0.84063472 0.84063472 0 0 Z " fill="#2F484C" transform="translate(181,28)"/>
<path d="M0 0 C0.66 0.33 1.32 0.66 2 1 C1.175 1.969375 0.35 2.93875 -0.5 3.9375 C-3.10539608 6.47022001 -3.10539608 6.47022001 -3 8 C-5.64 8 -8.28 8 -11 8 C-7.76446401 5.51112616 -4.39550259 3.26366839 -1 1 C-0.67 0.67 -0.34 0.34 0 0 Z " fill="#214B4D" transform="translate(204,195)"/>
<path d="M0 0 C0.99 0 1.98 0 3 0 C2.0799075 3.17850137 1.58564751 4.65177716 -1.3125 6.375 C-4.27149356 7.06313804 -6.10351441 6.82756731 -9 6 C-9 5.67 -9 5.34 -9 5 C-7.88625 4.731875 -6.7725 4.46375 -5.625 4.1875 C-1.78159049 3.34190981 -1.78159049 3.34190981 0 0 Z " fill="#415A57" transform="translate(127,174)"/>
<path d="M0 0 C1.65 0.99 3.3 1.98 5 3 C4.01 3.495 4.01 3.495 3 4 C3.99 7.63 4.98 11.26 6 15 C2.70303895 11.70303895 2.31153725 10.23680783 1.3125 5.8125 C1.06113281 4.72582031 0.80976562 3.63914063 0.55078125 2.51953125 C0.36902344 1.68808594 0.18726563 0.85664062 0 0 Z " fill="#B1E2F3" transform="translate(59,58)"/>
<path d="M0 0 C0.33 0 0.66 0 1 0 C1.3125 3.3125 1.3125 3.3125 1 7 C-1.5 8.9375 -1.5 8.9375 -4 10 C-3.4359146 6.05140217 -2.2568294 3.29120954 0 0 Z " fill="#99D9EE" transform="translate(158,62)"/>
<path d="M0 0 C1.2065625 0.0309375 1.2065625 0.0309375 2.4375 0.0625 C2.7675 1.3825 3.0975 2.7025 3.4375 4.0625 C2.674375 4.041875 1.91125 4.02125 1.125 4 C-1.66435786 3.93307159 -1.66435786 3.93307159 -4.5625 5.0625 C-3.43829114 0.08386076 -3.43829114 0.08386076 0 0 Z " fill="#424C4D" transform="translate(41.5625,45.9375)"/>
<path d="M0 0 C1.32 0 2.64 0 4 0 C3.67 0.70125 3.34 1.4025 3 2.125 C1.90955438 5.26003116 1.84677357 7.70563182 2 11 C1.34 10.67 0.68 10.34 0 10 C-0.89093449 6.35526801 -1.23666047 3.57257469 0 0 Z " fill="#728184" transform="translate(221,159)"/>
<path d="M0 0 C1.98 0.66 3.96 1.32 6 2 C6 2.66 6 3.32 6 4 C6.99 4.33 7.98 4.66 9 5 C5.625 5.125 5.625 5.125 2 5 C1.34 4.34 0.68 3.68 0 3 C0 2.01 0 1.02 0 0 Z " fill="#2C4844" transform="translate(93,179)"/>
<path d="M0 0 C0.33 0 0.66 0 1 0 C1.33 3.3 1.66 6.6 2 10 C0.68 10 -0.64 10 -2 10 C-1.85950482 8.52031676 -1.71245174 7.04125484 -1.5625 5.5625 C-1.48128906 4.73878906 -1.40007812 3.91507813 -1.31640625 3.06640625 C-1 1 -1 1 0 0 Z " fill="#3A4F4E" transform="translate(71,230)"/>
<path d="M0 0 C0 0.99 0 1.98 0 3 C-5.41538462 4.23076923 -5.41538462 4.23076923 -8.375 3.0625 C-8.91125 2.711875 -9.4475 2.36125 -10 2 C-6.38026598 0.68373308 -3.90432869 0 0 0 Z " fill="#607472" transform="translate(56,195)"/>
<path d="M0 0 C-1.75 5.75 -1.75 5.75 -4 8 C-4.33 6.02 -4.66 4.04 -5 2 C-2 0 -2 0 0 0 Z " fill="#CE7698" transform="translate(43,114)"/>
<path d="M0 0 C1.9451 2.91765 2.45276317 4.62537285 3 8 C1.68 8 0.36 8 -1 8 C-0.67 5.36 -0.34 2.72 0 0 Z " fill="#F0F3F7" transform="translate(34,110)"/>
<path d="M0 0 C0.99 0.33 1.98 0.66 3 1 C-2.28571429 7.42857143 -2.28571429 7.42857143 -5 10 C-3.14285714 2.42857143 -3.14285714 2.42857143 0 0 Z " fill="#84C1D3" transform="translate(174,32)"/>
<path d="M0 0 C1.98 0 3.96 0 6 0 C6 0.99 6 1.98 6 3 C3.69 3 1.38 3 -1 3 C-0.67 2.01 -0.34 1.02 0 0 Z " fill="#396C74" transform="translate(145,215)"/>
<path d="M0 0 C2.01822917 0.06510417 4.03645833 0.13020833 6.0546875 0.1953125 C6.0546875 0.5253125 6.0546875 0.8553125 6.0546875 1.1953125 C3.7446875 1.1953125 1.4346875 1.1953125 -0.9453125 1.1953125 C-1.2134375 1.8346875 -1.4815625 2.4740625 -1.7578125 3.1328125 C-2.9453125 5.1953125 -2.9453125 5.1953125 -5.9453125 6.1953125 C-3.20430126 0.32171699 -3.20430126 0.32171699 0 0 Z " fill="#546B67" transform="translate(159.9453125,136.8046875)"/>
<path d="M0 0 C0.33 0 0.66 0 1 0 C1.33 2.97 1.66 5.94 2 9 C1.01 8.67 0.02 8.34 -1 8 C-1.33 6.35 -1.66 4.7 -2 3 C-1.34 3 -0.68 3 0 3 C0 2.01 0 1.02 0 0 Z " fill="#DBEBF0" transform="translate(208,109)"/>
<path d="M0 0 C0.66 0 1.32 0 2 0 C2 0.99 2 1.98 2 3 C3.32 3 4.64 3 6 3 C6 3.66 6 4.32 6 5 C3.69 4.67 1.38 4.34 -1 4 C-0.67 2.68 -0.34 1.36 0 0 Z " fill="#2B3D3C" transform="translate(48,96)"/>
<path d="M0 0 C0.33 0.99 0.66 1.98 1 3 C1.66 3 2.32 3 3 3 C3 3.66 3 4.32 3 5 C1.02 5.66 -0.96 6.32 -3 7 C-2.38722388 4.03824877 -1.74627478 2.61941217 0 0 Z " fill="#C27191" transform="translate(51,88)"/>
<path d="M0 0 C2.97 0.495 2.97 0.495 6 1 C5 3 5 3 1.9375 4.125 C0.968125 4.41375 -0.00125 4.7025 -1 5 C-0.67 3.35 -0.34 1.7 0 0 Z " fill="#173434" transform="translate(160,69)"/>
<path d="M0 0 C0.99 0.99 1.98 1.98 3 3 C2.34 4.98 1.68 6.96 1 9 C0.34 8.67 -0.32 8.34 -1 8 C-0.67 5.36 -0.34 2.72 0 0 Z " fill="#455159" transform="translate(161,61)"/>
<path d="M0 0 C-2.95664519 1.4783226 -5.74229737 1.06032783 -9 1 C-9 0.34 -9 -0.32 -9 -1 C-5.22102349 -2.0497157 -3.35080929 -2.10976881 0 0 Z " fill="#1B4242" transform="translate(217,175)"/>
<path d="M0 0 C2 2 2 2 2 5 C-0.97 4.67 -3.94 4.34 -7 4 C-7 3.67 -7 3.34 -7 3 C-4.69 3 -2.38 3 0 3 C0 2.01 0 1.02 0 0 Z " fill="#8D9FA5" transform="translate(224,150)"/>
<path d="M0 0 C2.35953094 2.35953094 2.49141413 3.77895617 3 7 C2.01 7.33 1.02 7.66 0 8 C-1.125 5.6875 -1.125 5.6875 -2 3 C-1.34 2.01 -0.68 1.02 0 0 Z " fill="#DBD5D8" transform="translate(193,34)"/>
<path d="M0 0 C0.33 0.66 0.66 1.32 1 2 C-0.4375 4.625 -0.4375 4.625 -2 7 C-3.32 6.67 -4.64 6.34 -6 6 C-4.02 4.02 -2.04 2.04 0 0 Z " fill="#C3CFD0" transform="translate(176,26)"/>
<path d="M0 0 C4.29 0 8.58 0 13 0 C13 0.33 13 0.66 13 1 C11.39602723 1.16852247 9.7918131 1.33474886 8.1875 1.5 C7.29417969 1.5928125 6.40085937 1.685625 5.48046875 1.78125 C3 2 3 2 0 2 C0 1.34 0 0.68 0 0 Z " fill="#B5DFEC" transform="translate(100,223)"/>
</svg>
