<?xml version="1.0" encoding="UTF-8"?>
<svg version="1.1" xmlns="http://www.w3.org/2000/svg" width="250" height="231">
<path d="M0 0 C82.5 0 165 0 250 0 C250 76.23 250 152.46 250 231 C167.5 231 85 231 0 231 C0 154.77 0 78.54 0 0 Z " fill="#000000" transform="translate(0,0)"/>
<path d="M0 0 C3.45763388 1.64548989 6.81501632 3.46087412 10.16503906 5.31396484 C13.35418409 7.06778689 16.57990882 8.74939895 19.80444336 10.43701172 C22.24925234 11.71743148 24.68942356 13.0063423 27.12890625 14.296875 C32.86499849 17.32311964 38.65857547 20.22186915 44.5 23.0390625 C45.56476563 23.55855469 46.62953125 24.07804687 47.7265625 24.61328125 C49.17482422 25.31130859 49.17482422 25.31130859 50.65234375 26.0234375 C57.53583281 29.8302893 60.83993164 34.14012558 63.4140625 41.55078125 C64.09489006 46.57251689 64.07223044 51.55615908 64.0078125 56.61328125 C64.00609676 58.05476786 64.00617177 59.49625759 64.00793457 60.93774414 C64.00629072 63.94350472 63.98776846 66.94851102 63.95605469 69.95410156 C63.91637959 73.78020525 63.91201543 77.60532442 63.91951752 81.43159485 C63.92260731 84.40361326 63.91039597 87.37541607 63.89338684 90.34738159 C63.88642457 91.75697475 63.88322395 93.1665923 63.88407898 94.57620239 C63.86741547 112.6473002 63.86741547 112.6473002 58.66870117 120.02905273 C51.99304363 125.65315935 44.64219034 129.13214015 36.7265625 132.61328125 C34.79798795 133.47857047 32.87156677 134.34851263 30.94543457 135.21922302 C29.67066347 135.79524505 28.39503118 136.36936513 27.11853027 136.94154358 C21.49150783 139.47627454 15.98503325 142.2222919 10.48754883 145.02539062 C1.99094073 149.24231074 -5.98632189 152.20545184 -15.5859375 150.55078125 C-19.5468758 148.97641954 -23.00096462 146.83949275 -26.5859375 144.55078125 C-28.49926562 143.44083952 -30.41604501 142.33682936 -32.3359375 141.23828125 C-35.66768242 139.28504039 -38.98696569 137.31280552 -42.29296875 135.31640625 C-43.57811665 134.54035076 -44.86327296 133.76430919 -46.1484375 132.98828125 C-47.10242432 132.41182861 -47.10242432 132.41182861 -48.07568359 131.82373047 C-51.82256588 129.57174331 -55.60404448 127.42388703 -59.4609375 125.36328125 C-75.96173688 116.46121065 -75.96173688 116.46121065 -79.5859375 107.55078125 C-79.85336304 104.5353241 -79.85336304 104.5353241 -79.87646484 100.96557617 C-79.88318207 100.31299332 -79.88989929 99.66041046 -79.89682007 98.98805237 C-79.9157804 96.83570691 -79.91972346 94.68367372 -79.921875 92.53125 C-79.92830524 91.02915826 -79.93503377 89.52706777 -79.94204712 88.02497864 C-79.95401562 84.87689309 -79.95772849 81.72891723 -79.95654297 78.58081055 C-79.95634001 74.55916475 -79.98361887 70.53822749 -80.01808739 66.51674938 C-80.04039681 63.41364859 -80.04437926 60.31071708 -80.04332352 57.20754433 C-80.04567429 55.72565588 -80.05446828 54.24376239 -80.06998825 52.76195335 C-80.16163103 43.10667608 -79.67655893 37.28729028 -73.2109375 29.80078125 C-70.42654698 27.41416081 -67.88235929 26.15506532 -64.5859375 24.55078125 C-61.72315297 23.06718015 -58.87445103 21.55685949 -56.0234375 20.05078125 C-54.3360159 19.16130958 -52.6485128 18.27199253 -50.9609375 17.3828125 C-50.084375 16.92084473 -49.2078125 16.45887695 -48.3046875 15.98291016 C-43.712961 13.56417204 -39.11895716 11.14980383 -34.5234375 8.73828125 C-33.68031006 8.29484375 -32.83718262 7.85140625 -31.96850586 7.39453125 C-29.51142628 6.10588867 -27.04902616 4.82789321 -24.5859375 3.55078125 C-23.70711914 3.08663818 -22.82830078 2.62249512 -21.92285156 2.14428711 C-20.61719238 1.46765015 -20.61719238 1.46765015 -19.28515625 0.77734375 C-18.50615967 0.3695166 -17.72716309 -0.03831055 -16.92456055 -0.45849609 C-10.96591288 -2.982788 -5.91025623 -2.38856761 0 0 Z " fill="#010101" transform="translate(133.5859375,36.44921875)"/>
<path d="M0 0 C4.29 0 8.58 0 13 0 C13 3.63 13 7.26 13 11 C19.27 11 25.54 11 32 11 C32 14.63 32 18.26 32 22 C17.48 22 2.96 22 -12 22 C-12 27.28 -12 32.56 -12 38 C2.85 38 17.7 38 33 38 C33.165 42.29 33.33 46.58 33.5 51 C33.57283203 52.33675781 33.64566406 53.67351562 33.72070312 55.05078125 C33.88159545 63.71820661 33.88159545 63.71820661 31.21875 67.58984375 C29.23405403 69.54973102 27.18145075 71.26787688 25 73 C24.67 73.66 24.34 74.32 24 75 C19.38 75 14.76 75 10 75 C10 78.63 10 82.26 10 86 C6.04 86 2.08 86 -2 86 C-2 82.37 -2 78.74 -2 75 C-9.26 75 -16.52 75 -24 75 C-24 71.37 -24 67.74 -24 64 C-9.15 64 5.7 64 21 64 C21 58.39 21 52.78 21 47 C6.15 47 -8.7 47 -24 47 C-25.33928571 20.48214286 -25.33928571 20.48214286 -19.875 14.375 C-13.76791511 9.74203905 -7.3351567 10.04875489 0 11 C0 7.37 0 3.74 0 0 Z " fill="#CACACA" transform="translate(121,68)"/>
<path d="M0 0 C3.45763388 1.64548989 6.81501632 3.46087412 10.16503906 5.31396484 C13.35418409 7.06778689 16.57990882 8.74939895 19.80444336 10.43701172 C22.24925234 11.71743148 24.68942356 13.0063423 27.12890625 14.296875 C32.86499849 17.32311964 38.65857547 20.22186915 44.5 23.0390625 C45.56476563 23.55855469 46.62953125 24.07804687 47.7265625 24.61328125 C49.17482422 25.31130859 49.17482422 25.31130859 50.65234375 26.0234375 C57.53583281 29.8302893 60.83993164 34.14012558 63.4140625 41.55078125 C64.09489006 46.57251689 64.07223044 51.55615908 64.0078125 56.61328125 C64.00609676 58.05476786 64.00617177 59.49625759 64.00793457 60.93774414 C64.00629072 63.94350472 63.98776846 66.94851102 63.95605469 69.95410156 C63.91637959 73.78020525 63.91201543 77.60532442 63.91951752 81.43159485 C63.92260731 84.40361326 63.91039597 87.37541607 63.89338684 90.34738159 C63.88642457 91.75697475 63.88322395 93.1665923 63.88407898 94.57620239 C63.86741547 112.6473002 63.86741547 112.6473002 58.66870117 120.02905273 C51.99304363 125.65315935 44.64219034 129.13214015 36.7265625 132.61328125 C34.79798795 133.47857047 32.87156677 134.34851263 30.94543457 135.21922302 C29.67066347 135.79524505 28.39503118 136.36936513 27.11853027 136.94154358 C21.49150783 139.47627454 15.98503325 142.2222919 10.48754883 145.02539062 C1.99094073 149.24231074 -5.98632189 152.20545184 -15.5859375 150.55078125 C-19.5468758 148.97641954 -23.00096462 146.83949275 -26.5859375 144.55078125 C-28.49926562 143.44083952 -30.41604501 142.33682936 -32.3359375 141.23828125 C-35.66768242 139.28504039 -38.98696569 137.31280552 -42.29296875 135.31640625 C-43.57811665 134.54035076 -44.86327296 133.76430919 -46.1484375 132.98828125 C-47.10242432 132.41182861 -47.10242432 132.41182861 -48.07568359 131.82373047 C-51.82256588 129.57174331 -55.60404448 127.42388703 -59.4609375 125.36328125 C-75.96173688 116.46121065 -75.96173688 116.46121065 -79.5859375 107.55078125 C-79.85336304 104.5353241 -79.85336304 104.5353241 -79.87646484 100.96557617 C-79.88318207 100.31299332 -79.88989929 99.66041046 -79.89682007 98.98805237 C-79.9157804 96.83570691 -79.91972346 94.68367372 -79.921875 92.53125 C-79.92830524 91.02915826 -79.93503377 89.52706777 -79.94204712 88.02497864 C-79.95401562 84.87689309 -79.95772849 81.72891723 -79.95654297 78.58081055 C-79.95634001 74.55916475 -79.98361887 70.53822749 -80.01808739 66.51674938 C-80.04039681 63.41364859 -80.04437926 60.31071708 -80.04332352 57.20754433 C-80.04567429 55.72565588 -80.05446828 54.24376239 -80.06998825 52.76195335 C-80.16163103 43.10667608 -79.67655893 37.28729028 -73.2109375 29.80078125 C-70.42654698 27.41416081 -67.88235929 26.15506532 -64.5859375 24.55078125 C-61.72315297 23.06718015 -58.87445103 21.55685949 -56.0234375 20.05078125 C-54.3360159 19.16130958 -52.6485128 18.27199253 -50.9609375 17.3828125 C-50.084375 16.92084473 -49.2078125 16.45887695 -48.3046875 15.98291016 C-43.712961 13.56417204 -39.11895716 11.14980383 -34.5234375 8.73828125 C-33.68031006 8.29484375 -32.83718262 7.85140625 -31.96850586 7.39453125 C-29.51142628 6.10588867 -27.04902616 4.82789321 -24.5859375 3.55078125 C-23.70711914 3.08663818 -22.82830078 2.62249512 -21.92285156 2.14428711 C-20.61719238 1.46765015 -20.61719238 1.46765015 -19.28515625 0.77734375 C-18.50615967 0.3695166 -17.72716309 -0.03831055 -16.92456055 -0.45849609 C-10.96591288 -2.982788 -5.91025623 -2.38856761 0 0 Z M-24.6484375 5.92578125 C-26.28735614 6.84707372 -27.92669165 7.76762492 -29.56640625 8.6875 C-30.39317871 9.1623584 -31.21995117 9.6372168 -32.07177734 10.12646484 C-36.14675021 12.43500939 -40.30605321 14.57807581 -44.4609375 16.73828125 C-46.0357746 17.56653367 -47.61000981 18.39593168 -49.18359375 19.2265625 C-50.29951904 19.8155835 -50.29951904 19.8155835 -51.43798828 20.41650391 C-52.14681152 20.79081543 -52.85563477 21.16512695 -53.5859375 21.55078125 C-54.2444873 21.89802246 -54.90303711 22.24526367 -55.58154297 22.60302734 C-57.35578824 23.5402686 -59.12720185 24.48286465 -60.8984375 25.42578125 C-61.86394531 25.93882813 -62.82945313 26.451875 -63.82421875 26.98046875 C-69.4520106 30.1804296 -73.40945743 32.78605816 -76.5859375 38.55078125 C-77.51774618 42.19312156 -77.72163193 45.62456559 -77.74707031 49.37573242 C-77.75667786 50.52430222 -77.7662854 51.67287201 -77.77618408 52.85624695 C-77.78043396 54.08962296 -77.78468384 55.32299896 -77.7890625 56.59375 C-77.79476257 57.87252518 -77.80046265 59.15130035 -77.80633545 60.46882629 C-77.81681759 63.17461542 -77.82267783 65.8803751 -77.82617188 68.58618164 C-77.83163802 72.02782707 -77.85563694 75.46907319 -77.88414383 78.91059399 C-77.90742589 82.22163705 -77.9092304 85.53262946 -77.9140625 88.84375 C-77.9264093 90.06700485 -77.9387561 91.2902597 -77.95147705 92.55058289 C-78.0743453 104.30313646 -78.0743453 104.30313646 -72.83087158 114.36125183 C-70.83381774 115.95180375 -68.7828926 117.2503913 -66.5859375 118.55078125 C-65.74933594 119.07542969 -64.91273437 119.60007812 -64.05078125 120.140625 C-60.70445345 122.2049509 -57.36415041 124.16720188 -53.8359375 125.90625 C-49.6952743 128.00146539 -45.71510762 130.33269065 -41.7109375 132.67578125 C-35.35359139 136.37390205 -28.98817931 140.05582905 -22.5859375 143.67578125 C-21.92223145 144.0536377 -21.25852539 144.43149414 -20.57470703 144.82080078 C-15.18834232 147.85618734 -10.79724556 149.4251887 -4.5859375 148.55078125 C-0.44078506 147.19540149 3.46296555 145.38839202 7.4140625 143.55078125 C8.51363281 143.05449219 9.61320312 142.55820313 10.74609375 142.046875 C21.22432893 137.25253365 31.53747489 132.10175099 41.79150391 126.84667969 C43.53462203 125.98534372 45.30396624 125.17511254 47.09521484 124.41894531 C47.95711426 124.0422168 48.81901367 123.66548828 49.70703125 123.27734375 C50.46910889 122.96619629 51.23118652 122.65504883 52.01635742 122.33447266 C57.04833155 118.5911061 59.97813719 114.35402817 60.95259094 108.08773804 C61.15759186 103.91362536 61.16999863 99.78212146 61.10546875 95.60546875 C61.10188481 94.06568755 61.10053567 92.52589969 61.1013031 90.9861145 C61.09663355 87.77336003 61.07196072 84.56162035 61.03149414 81.34912109 C60.98043958 77.24580198 60.96905506 73.14359101 60.97132969 69.03999138 C60.9705114 65.86562665 60.95401864 62.6915007 60.93232536 59.51721573 C60.92282932 58.00466844 60.91687822 56.49209434 60.91464424 54.97951889 C60.90808872 52.86202264 60.88172644 50.74566607 60.84985352 48.62841797 C60.83270042 46.82713943 60.83270042 46.82713943 60.81520081 44.98947144 C60.22880075 39.96265627 58.6633427 36.07334149 55.4140625 32.11328125 C53.44304907 30.24295923 53.44304907 30.24295923 50.4140625 30.55078125 C50.4140625 29.89078125 50.4140625 29.23078125 50.4140625 28.55078125 C49.48239258 28.08929688 48.55072266 27.6278125 47.59082031 27.15234375 C40.81286554 23.78409439 34.05730668 20.38182643 27.35437012 16.86621094 C24.12041817 15.17328072 20.87615694 13.500647 17.63085938 11.82958984 C15.97481017 10.97107978 14.3231365 10.10408057 12.67578125 9.22900391 C-0.53271155 2.22694266 -10.7987832 -2.36540686 -24.6484375 5.92578125 Z " fill="#161616" transform="translate(133.5859375,36.44921875)"/>
<path d="M0 0 C0.99 0.33 1.98 0.66 3 1 C2.67 1.99 2.34 2.98 2 4 C1.34 4 0.68 4 0 4 C0 4.99 0 5.98 0 7 C-0.66 7 -1.32 7 -2 7 C-1.125 2.25 -1.125 2.25 0 0 Z " fill="#D9D9D9" transform="translate(102,85)"/>
</svg>
