<svg width="24" height="24" viewBox="0 0 24 24" fill="none" xmlns="http://www.w3.org/2000/svg">
    <g clip-path="url(#clip0_3952_1414)">
        <path d="M24 12C24 18.6274 18.6274 24 12 24C5.37258 24 0 18.6274 0 12C0 5.37258 5.37258 0 12 0C18.6274 0 24 5.37258 24 12Z" fill="#051212"/>
        <g clip-path="url(#clip1_3952_1414)">
            <path d="M5.56511 14.8607C6.73325 14.8607 7.68022 13.5192 7.68022 11.8643C7.68022 10.2095 6.73325 8.86792 5.56511 8.86792C4.39698 8.86792 3.45001 10.2095 3.45001 11.8643C3.45001 13.5192 4.39698 14.8607 5.56511 14.8607Z" fill="#21F1A6" fill-opacity="0.5"/>
            <path d="M13.0324 18.0283C15.4618 18.0283 17.4313 15.2941 17.4313 11.9213C17.4313 8.54848 15.4618 5.81427 13.0324 5.81427C10.603 5.81427 8.63361 8.54848 8.63361 11.9213C8.63361 15.2941 10.603 18.0283 13.0324 18.0283Z" fill="#21F1A6" fill-opacity="0.5"/>
            <path d="M8.6299 16.2843C10.3305 16.2843 11.7091 14.3313 11.7091 11.9221C11.7091 9.51293 10.3305 7.55992 8.6299 7.55992C6.92932 7.55992 5.55072 9.51293 5.55072 11.9221C5.55072 14.3313 6.92932 16.2843 8.6299 16.2843Z" fill="#21F1A6" fill-opacity="0.5"/>
            <path d="M15.968 4.98039C17.0507 4.98039 18.0637 5.71686 18.816 6.97743C19.5659 8.23396 20.0356 9.98179 20.0356 11.9222C20.0356 13.8626 19.5659 15.6105 18.816 16.867C18.0637 18.1276 17.0507 18.864 15.968 18.864C14.8854 18.864 13.8725 18.1275 13.1202 16.867C12.3703 15.6105 11.9005 13.8626 11.9005 11.9222C11.9005 9.98178 12.3703 8.23396 13.1202 6.97743C13.8725 5.71686 14.8854 4.9804 15.968 4.98039Z" stroke="url(#paint0_linear_3952_1414)" stroke-width="0.318848"/>
        </g>
    </g>
    <rect x="0.3" y="0.3" width="23.4" height="23.4" rx="11.7" stroke="#21F1A6" stroke-width="0.6"/>
    <defs>
        <linearGradient id="paint0_linear_3952_1414" x1="20.2202" y1="11.7435" x2="12.5972" y2="11.7435" gradientUnits="userSpaceOnUse">
            <stop stop-color="#21F1A6"/>
            <stop offset="1" stop-color="#21F1A6" stop-opacity="0"/>
        </linearGradient>
        <clipPath id="clip0_3952_1414">
            <rect width="24" height="24" rx="12" fill="white"/>
        </clipPath>
        <clipPath id="clip1_3952_1414">
            <rect width="16.8" height="14.28" fill="white" transform="translate(3.45001 4.79732)"/>
        </clipPath>
    </defs>
</svg>
