<svg xmlns="http://www.w3.org/2000/svg" width="361" height="480" viewBox="0 0 361 480" fill="none"><script xmlns=""/>
    <g filter="url(#filter0_d_141_188)">
        <path d="M200.756 12.6511C205.603 13.1542 210.329 15.9816 214.712 21.3949C219.108 26.825 222.95 34.6244 225.928 44.3999C231.88 63.9343 234.145 90.582 231.128 119.653C228.11 148.724 220.42 174.338 210.584 192.234C205.661 201.189 200.299 208.033 194.881 212.444C189.48 216.842 184.274 218.639 179.428 218.136C174.581 217.632 169.855 214.805 165.472 209.392C161.076 203.962 157.234 196.162 154.255 186.387C148.304 166.852 146.039 140.205 149.056 111.134C152.074 82.0632 159.764 56.4488 169.6 38.5532C174.523 29.5977 179.885 22.7537 185.303 18.3423C190.704 13.9446 195.909 12.148 200.756 12.6511Z" fill="white" stroke="white" stroke-width="8"/>
        <path fill-rule="evenodd" clip-rule="evenodd" d="M190.828 217.707C187.582 219.905 183.154 216.324 179.97 213.054C172.654 205.537 159.663 149.972 164.434 108.9C170.937 52.9364 192.339 22.5983 205.062 24.367C218.138 45.187 209.632 96.4933 200.748 150.079C196.958 172.939 193.109 196.208 190.828 217.707Z" fill="url(#paint0_linear_141_188)"/>
        <path d="M293.761 33.7562C298.084 36.0051 301.44 40.371 303.527 47.0159C305.621 53.6816 306.329 62.3472 305.507 72.5332C303.864 92.8879 296.18 118.504 282.692 144.433C269.204 170.361 252.641 191.358 236.917 204.388C229.048 210.908 221.546 215.303 214.886 217.415C208.247 219.521 202.746 219.279 198.423 217.03C194.1 214.781 190.744 210.415 188.656 203.771C186.563 197.105 185.855 188.439 186.677 178.253C188.319 157.899 196.004 132.282 209.492 106.354C222.98 80.4254 239.543 59.4283 255.267 46.3987C263.136 39.8783 270.637 35.4833 277.297 33.3712C283.936 31.2656 289.438 31.5074 293.761 33.7562Z" fill="white" stroke="white" stroke-width="8"/>
        <path fill-rule="evenodd" clip-rule="evenodd" d="M265.568 265.107C269 238.5 265.568 219 248.193 191.964C173.175 131.478 47 243.548 47 302.536C49.488 369.692 234.5 403.114 265.568 265.107ZM142 282.641C151.941 282.641 160 278.582 160 268.641C160 258.7 151.941 250.641 142 250.641C132.059 250.641 124 258.7 124 268.641C124 278.582 132.059 282.641 142 282.641Z" fill="white"/>
        <path d="M336.665 306.754C300.904 304.18 274.781 323.931 248.812 343.567C219.766 365.529 190.909 387.347 148.974 377.606C173.746 407.093 232.963 412.259 275.091 390.266C301.743 376.389 313.195 352.767 323.823 330.841C327.946 322.335 331.947 314.082 336.665 306.754Z" fill="white"/>
        <path d="M133.161 382.554C148.724 381.599 158.294 393.16 167.807 404.654C178.448 417.509 189.019 430.281 207.828 425.352C194.743 441.713 168.897 443.805 152.645 430.748C142.359 422.508 139.408 408.96 136.67 396.385C135.608 391.506 134.577 386.773 133.161 382.554Z" fill="white"/>
        <path fill-rule="evenodd" clip-rule="evenodd" d="M216.047 217.886C212.255 218.877 209.273 214.024 207.361 209.881C202.968 200.356 209.236 143.637 227.423 106.503C252.204 55.9054 282.493 34.434 293.899 40.3414C299.289 64.3288 274.171 109.868 247.938 157.429C236.746 177.72 225.363 198.376 216.047 217.886Z" fill="url(#paint1_linear_141_188)"/>
        <path fill-rule="evenodd" clip-rule="evenodd" d="M35.6432 92.8452C33.0488 88.9152 38.1951 84.5131 41.6758 87.6851L71.5002 114.865C69.5 117.5 63.1418 122 54 120.652L35.6432 92.8452ZM63.1418 134.5C67.7612 134.475 78.5 132.882 84.5 126.712L115.54 155C103.5 167.5 92 168.633 84.927 167.5L63.1418 134.5ZM97.4699 186.5L116.812 215.799C118.137 217.807 120.922 218.199 122.75 216.635L150.475 192.919C152.303 191.356 152.347 188.544 150.569 186.923L130.5 168.633C128.147 173.431 118.246 183.72 97.4699 186.5Z" fill="white"/>
    </g>
    <defs>
        <filter id="filter0_d_141_188" x="10.938" y="0.568359" width="349.727" height="478.692" filterUnits="userSpaceOnUse" color-interpolation-filters="sRGB">
            <feFlood flood-opacity="0" result="BackgroundImageFix"/>
            <feColorMatrix in="SourceAlpha" type="matrix" values="0 0 0 0 0 0 0 0 0 0 0 0 0 0 0 0 0 0 127 0" result="hardAlpha"/>
            <feOffset dy="16"/>
            <feGaussianBlur stdDeviation="12"/>
            <feComposite in2="hardAlpha" operator="out"/>
            <feColorMatrix type="matrix" values="0 0 0 0 0 0 0 0 0 0 0 0 0 0 0 0 0 0 0.25 0"/>
            <feBlend mode="normal" in2="BackgroundImageFix" result="effect1_dropShadow_141_188"/>
            <feBlend mode="normal" in="SourceGraphic" in2="effect1_dropShadow_141_188" result="shape"/>
        </filter>
        <linearGradient id="paint0_linear_141_188" x1="223.246" y1="324.624" x2="159.201" y2="-33.1132" gradientUnits="userSpaceOnUse">
            <stop stop-color="#CDCED8"/>
            <stop offset="1" stop-color="#8697FF" stop-opacity="0"/>
        </linearGradient>
        <linearGradient id="paint1_linear_141_188" x1="210.981" y1="329.495" x2="269.815" y2="-29.1364" gradientUnits="userSpaceOnUse">
            <stop stop-color="#CDCED8"/>
            <stop offset="1" stop-color="#8697FF" stop-opacity="0"/>
        </linearGradient>
    </defs>
</svg>