<svg width="80" height="80" viewBox="0 0 80 80" fill="none" xmlns="http://www.w3.org/2000/svg">
    <g clip-path="url(#clip0_133_193)">
        <path d="M40 80C62.1668 80 80 62.1668 80 40C80 17.8332 62.1668 0 40 0C17.8332 0 0 17.8332 0 40C0 62.1668 17.8332 80 40 80Z" fill="#051212"/>
        <path d="M6 40C5.99999 49.2047 9.68264 57.5251 15.6143 63.6338L16.1953 64.2178C22.2904 70.2021 30.4269 73.772 39.1543 73.9893L40 74C48.7632 74 56.9828 70.6168 63.208 64.7891L63.8037 64.2178C70.075 58.0608 74 49.5015 74 40C74 30.4985 70.075 21.9393 63.8037 15.7822L63.208 15.2109C56.9828 9.38357 48.7632 6.00001 40 6L40 5L40.8721 5.01075C49.5682 5.2274 57.6921 8.67843 63.8906 14.4805L64.5049 15.0684C70.7562 21.2058 74.7451 29.6684 74.9883 39.0859L75 40C75 49.4777 71.2063 58.0442 65.1025 64.3301L64.5049 64.9307C58.0316 71.2864 49.3152 75 40 75L39.1289 74.9893C30.1418 74.7655 21.7662 71.0878 15.4951 64.9307C9.04246 58.5954 4.99999 49.7834 5 40L5.01171 39.0859C5.25484 29.6684 9.24405 21.2058 15.4951 15.0684L16.1084 14.4805C22.5136 8.48462 30.9754 5.0001 40 5L40 6C30.9535 6.0001 22.4868 9.60501 16.1953 15.7822L15.6143 16.3662C9.6827 22.475 6 30.7954 6 40Z" fill="url(#paint0_linear_133_193)"/>
        <path d="M0.999996 40C0.999995 50.5586 5.22475 60.1027 12.0283 67.1094L12.6943 67.7793C19.6852 74.6431 29.0182 78.739 39.0293 78.9883L40 79C50.0524 79 59.4808 75.1189 66.6211 68.4346L67.3047 67.7793C74.4978 60.7172 79 50.8991 79 40C79 29.101 74.4978 19.2829 67.3047 12.2207L66.6211 11.5654C59.4808 4.88149 50.0524 1.00001 40 1L40 4.13248e-06L40.9961 0.0126995C50.9348 0.260175 60.2196 4.20386 67.3037 10.835L68.0049 11.5068C75.1492 18.521 79.7084 28.1922 79.9863 38.9551L80 40C80 50.8317 75.6642 60.6218 68.6885 67.8057L68.0049 68.4932C60.6068 75.7566 50.6458 80 40 80L39.0039 79.9873C28.7333 79.7314 19.1609 75.5295 11.9941 68.4932C4.61966 61.2528 -5.10996e-06 51.1811 -4.13248e-06 40L0.0136678 38.9551C0.2916 28.1923 4.85013 18.521 11.9941 11.5068L12.6953 10.835C20.0155 3.98252 29.6861 0.000110042 40 4.13248e-06L40 1C29.6226 1.00011 19.9106 5.13552 12.6943 12.2207L12.0283 12.8906C5.22481 19.8974 0.999997 29.4415 0.999996 40Z" fill="#21F1A6"/>
        <path d="M52 45.8339C52 39.5893 48.3955 37.4482 41.1865 36.5562C36.0372 35.8424 35.0074 34.4152 35.0074 31.917C35.0074 29.4188 36.7239 27.8134 40.1566 27.8134C43.2462 27.8134 44.9628 28.8839 45.8209 31.5603C45.9926 32.0955 46.5076 32.4522 47.0225 32.4522H49.7685C50.4552 32.4522 50.9701 31.917 50.9701 31.2036V31.025C50.2834 27.0996 47.1939 24.0665 43.2462 23.7098V19.4277C43.2462 18.7138 42.7313 18.1786 41.8732 18H39.2986C38.6119 18 38.0969 18.5353 37.9252 19.4277V23.5312C32.7759 24.2451 29.5149 27.8134 29.5149 32.2741C29.5149 38.162 32.9476 40.4813 40.1566 41.3737C44.9628 42.2656 46.5076 43.3362 46.5076 46.1911C46.5076 49.046 44.1043 51.0085 40.8434 51.0085C36.3804 51.0085 34.8356 49.0455 34.3207 46.3692C34.1493 45.6558 33.6344 45.2987 33.1194 45.2987H30.2012C29.5149 45.2987 29 45.8339 29 46.5478V46.7263C29.6863 51.1866 32.4327 54.3982 38.0969 55.2906V59.5728C38.0969 60.2862 38.6119 60.8214 39.4699 61H42.0446C42.7313 61 43.2462 60.4647 43.418 59.5728V55.2906C48.5673 54.3982 52 50.6513 52 45.8339Z" fill="#21F1A6"/>
        <path d="M75 40C75 30.5317 71.2155 21.9711 65.1025 15.6758L64.5039 15.0742C58.2202 8.90471 49.8453 5.23413 40.8701 5.01074L40 5C30.9887 5.00001 22.5294 8.47715 16.1123 14.4844L15.4971 15.0742C9.03326 21.4204 5 30.2266 5 40C5 49.7731 9.03264 58.5796 15.4961 64.9258H15.4971C21.9837 71.2941 30.6979 75 40 75V79L39.0283 78.9883C29.3382 78.7469 20.2859 74.9009 13.3789 68.4355L12.6953 67.7803C5.50496 60.7208 1 50.9016 1 40C1 29.439 5.2279 19.8939 12.0293 12.8896L12.6953 12.2197C19.9084 5.13769 29.6202 1.00002 40 1L40.9707 1.01172C50.9848 1.26108 60.3179 5.35899 67.3057 12.2197C74.4958 19.2791 79 29.0985 79 40C79 50.9015 74.4958 60.7208 67.3057 67.7803L66.6221 68.4355C59.4849 75.1168 50.0561 78.9999 40 79V75C49.3031 74.9999 58.0176 71.2952 64.5039 64.9268L65.1025 64.3242C71.2154 58.0288 75 49.4682 75 40Z" fill="url(#paint1_linear_133_193)"/>
    </g>
    <defs>
        <linearGradient id="paint0_linear_133_193" x1="3.41145" y1="40.9012" x2="69.0044" y2="40.9012" gradientUnits="userSpaceOnUse">
            <stop stop-color="#21F1A6" stop-opacity="0.6"/>
            <stop offset="1" stop-color="#21F1A6" stop-opacity="0.2"/>
        </linearGradient>
        <linearGradient id="paint1_linear_133_193" x1="80.7701" y1="38.9958" x2="7.68077" y2="38.9958" gradientUnits="userSpaceOnUse">
            <stop stop-color="#21F1A6"/>
            <stop offset="1" stop-color="#21F1A6" stop-opacity="0.2"/>
        </linearGradient>
        <clipPath id="clip0_133_193">
            <rect width="80" height="80" fill="white"/>
        </clipPath>
    </defs>
</svg>
